<ttFont>
    <TTGlyph name="A" xMin="37" yMin="-123" xMax="749" yMax="990">
      <contour>
        <pt x="592" y="191" on="1"/>
        <pt x="591" y="196" on="0"/>
        <pt x="578" y="222" on="0"/>
        <pt x="574" y="226" on="1"/>
        <pt x="563" y="230" on="0"/>
        <pt x="504" y="249" on="0"/>
        <pt x="438" y="272" on="0"/>
        <pt x="379" y="292" on="0"/>
        <pt x="367" y="296" on="1"/>
        <pt x="364" y="297" on="0"/>
        <pt x="344" y="308" on="0"/>
        <pt x="320" y="321" on="0"/>
        <pt x="300" y="331" on="0"/>
        <pt x="297" y="331" on="1"/>
        <pt x="278" y="331" on="0"/>
        <pt x="244" y="285" on="0"/>
        <pt x="210" y="217" on="0"/>
        <pt x="172" y="140" on="0"/>
        <pt x="126" y="78" on="0"/>
        <pt x="71" y="43" on="0"/>
        <pt x="37" y="52" on="1"/>
        <pt x="37" y="87" on="1"/>
        <pt x="44" y="96" on="0"/>
        <pt x="75" y="134" on="0"/>
        <pt x="112" y="182" on="0"/>
        <pt x="154" y="235" on="0"/>
        <pt x="191" y="283" on="0"/>
        <pt x="220" y="321" on="0"/>
        <pt x="227" y="331" on="1"/>
        <pt x="240" y="348" on="0"/>
        <pt x="223" y="409" on="0"/>
        <pt x="190" y="479" on="0"/>
        <pt x="152" y="549" on="0"/>
        <pt x="136" y="599" on="0"/>
        <pt x="154" y="621" on="0"/>
        <pt x="194" y="608" on="1"/>
        <pt x="208" y="566" on="0"/>
        <pt x="258" y="478" on="0"/>
        <pt x="297" y="452" on="1"/>
        <pt x="329" y="473" on="0"/>
        <pt x="386" y="545" on="0"/>
        <pt x="435" y="635" on="0"/>
        <pt x="476" y="736" on="0"/>
        <pt x="509" y="835" on="0"/>
        <pt x="533" y="923" on="0"/>
        <pt x="541" y="955" on="1"/>
        <pt x="549" y="969" on="0"/>
        <pt x="578" y="985" on="0"/>
        <pt x="592" y="990" on="1"/>
        <pt x="599" y="981" on="0"/>
        <pt x="603" y="911" on="0"/>
        <pt x="603" y="810" on="0"/>
        <pt x="600" y="687" on="0"/>
        <pt x="599" y="562" on="0"/>
        <pt x="601" y="443" on="0"/>
        <pt x="610" y="352" on="0"/>
        <pt x="628" y="296" on="0"/>
        <pt x="644" y="296" on="1"/>
        <pt x="749" y="296" on="1"/>
        <pt x="749" y="234" on="1"/>
        <pt x="662" y="234" on="1"/>
        <pt x="644" y="234" on="0"/>
        <pt x="652" y="189" on="0"/>
        <pt x="681" y="119" on="0"/>
        <pt x="720" y="34" on="0"/>
        <pt x="747" y="-44" on="0"/>
        <pt x="751" y="-108" on="0"/>
        <pt x="731" y="-121" on="1"/>
        <pt x="727" y="-123" on="0"/>
        <pt x="700" y="-123" on="0"/>
        <pt x="696" y="-121" on="1"/>
        <pt x="691" y="-103" on="0"/>
        <pt x="661" y="-15" on="0"/>
        <pt x="628" y="85" on="0"/>
        <pt x="598" y="173" on="0"/>
      </contour>
      <contour>
        <pt x="419" y="348" on="1"/>
        <pt x="425" y="345" on="0"/>
        <pt x="458" y="330" on="0"/>
        <pt x="497" y="313" on="0"/>
        <pt x="533" y="299" on="0"/>
        <pt x="541" y="296" on="1"/>
        <pt x="543" y="295" on="0"/>
        <pt x="555" y="295" on="0"/>
        <pt x="557" y="296" on="1"/>
        <pt x="561" y="337" on="0"/>
        <pt x="553" y="461" on="0"/>
        <pt x="540" y="591" on="0"/>
        <pt x="526" y="710" on="0"/>
        <pt x="523" y="746" on="1"/>
        <pt x="332" y="399" on="1"/>
        <pt x="336" y="396" on="0"/>
        <pt x="361" y="381" on="0"/>
        <pt x="388" y="364" on="0"/>
        <pt x="413" y="350" on="0"/>
      </contour>
    </TTGlyph>
    <TTGlyph name="AE" xMin="26" yMin="-116" xMax="1027" yMax="945">
      <contour>
        <pt x="581" y="199" on="1"/>
        <pt x="580" y="203" on="0"/>
        <pt x="566" y="229" on="0"/>
        <pt x="563" y="233" on="1"/>
        <pt x="551" y="237" on="0"/>
        <pt x="492" y="256" on="0"/>
        <pt x="426" y="279" on="0"/>
        <pt x="367" y="299" on="0"/>
        <pt x="355" y="303" on="1"/>
        <pt x="352" y="304" on="0"/>
        <pt x="332" y="315" on="0"/>
        <pt x="309" y="328" on="0"/>
        <pt x="289" y="338" on="0"/>
        <pt x="286" y="338" on="1"/>
        <pt x="267" y="338" on="0"/>
        <pt x="233" y="292" on="0"/>
        <pt x="199" y="225" on="0"/>
        <pt x="161" y="148" on="0"/>
        <pt x="115" y="86" on="0"/>
        <pt x="60" y="51" on="0"/>
        <pt x="26" y="59" on="1"/>
        <pt x="26" y="94" on="1"/>
        <pt x="33" y="103" on="0"/>
        <pt x="63" y="141" on="0"/>
        <pt x="101" y="189" on="0"/>
        <pt x="142" y="242" on="0"/>
        <pt x="179" y="290" on="0"/>
        <pt x="209" y="328" on="0"/>
        <pt x="216" y="338" on="1"/>
        <pt x="229" y="355" on="0"/>
        <pt x="212" y="417" on="0"/>
        <pt x="178" y="487" on="0"/>
        <pt x="140" y="557" on="0"/>
        <pt x="124" y="607" on="0"/>
        <pt x="143" y="628" on="0"/>
        <pt x="182" y="615" on="1"/>
        <pt x="189" y="594" on="0"/>
        <pt x="208" y="550" on="0"/>
        <pt x="234" y="509" on="0"/>
        <pt x="266" y="472" on="0"/>
        <pt x="286" y="459" on="1"/>
        <pt x="318" y="479" on="0"/>
        <pt x="384" y="544" on="0"/>
        <pt x="448" y="623" on="0"/>
        <pt x="506" y="711" on="0"/>
        <pt x="553" y="797" on="0"/>
        <pt x="586" y="878" on="0"/>
        <pt x="594" y="910" on="1"/>
        <pt x="602" y="924" on="0"/>
        <pt x="632" y="940" on="0"/>
        <pt x="645" y="945" on="1"/>
        <pt x="653" y="934" on="0"/>
        <pt x="652" y="847" on="0"/>
        <pt x="644" y="713" on="0"/>
        <pt x="636" y="541" on="0"/>
        <pt x="637" y="444" on="1"/>
        <pt x="645" y="555" on="1"/>
        <pt x="646" y="563" on="0"/>
        <pt x="646" y="583" on="1"/>
        <pt x="646" y="666" on="1"/>
        <pt x="646" y="686" on="0"/>
        <pt x="645" y="694" on="1"/>
        <pt x="663" y="712" on="1"/>
        <pt x="975" y="816" on="1"/>
        <pt x="1010" y="816" on="1"/>
        <pt x="1015" y="802" on="0"/>
        <pt x="1008" y="770" on="0"/>
        <pt x="992" y="764" on="1"/>
        <pt x="732" y="659" on="1"/>
        <pt x="715" y="642" on="1"/>
        <pt x="714" y="641" on="0"/>
        <pt x="709" y="601" on="0"/>
        <pt x="703" y="546" on="0"/>
        <pt x="698" y="488" on="0"/>
        <pt x="697" y="469" on="1"/>
        <pt x="697" y="464" on="0"/>
        <pt x="696" y="439" on="0"/>
        <pt x="696" y="412" on="0"/>
        <pt x="697" y="387" on="0"/>
        <pt x="697" y="382" on="1"/>
        <pt x="992" y="538" on="1"/>
        <pt x="999" y="542" on="0"/>
        <pt x="1006" y="530" on="0"/>
        <pt x="1006" y="510" on="0"/>
        <pt x="999" y="490" on="0"/>
        <pt x="992" y="486" on="1"/>
        <pt x="975" y="475" on="0"/>
        <pt x="926" y="447" on="0"/>
        <pt x="873" y="416" on="0"/>
        <pt x="820" y="386" on="0"/>
        <pt x="778" y="362" on="0"/>
        <pt x="751" y="347" on="0"/>
        <pt x="750" y="347" on="1"/>
        <pt x="680" y="347" on="1"/>
        <pt x="680" y="122" on="1"/>
        <pt x="680" y="76" on="0"/>
        <pt x="721" y="50" on="0"/>
        <pt x="783" y="65" on="0"/>
        <pt x="857" y="109" on="0"/>
        <pt x="923" y="159" on="0"/>
        <pt x="970" y="202" on="0"/>
        <pt x="975" y="208" on="1"/>
        <pt x="979" y="233" on="0"/>
        <pt x="986" y="249" on="1"/>
        <pt x="992" y="263" on="0"/>
        <pt x="1012" y="275" on="0"/>
        <pt x="1027" y="260" on="1"/>
        <pt x="1033" y="229" on="0"/>
        <pt x="1002" y="157" on="0"/>
        <pt x="944" y="90" on="0"/>
        <pt x="867" y="33" on="0"/>
        <pt x="786" y="0" on="0"/>
        <pt x="709" y="-4" on="0"/>
        <pt x="681" y="16" on="1"/>
        <pt x="689" y="-17" on="0"/>
        <pt x="709" y="-82" on="0"/>
        <pt x="720" y="-114" on="1"/>
        <pt x="718" y="-115" on="0"/>
        <pt x="693" y="-116" on="0"/>
        <pt x="664" y="-115" on="0"/>
        <pt x="639" y="-113" on="0"/>
        <pt x="637" y="-112" on="1"/>
        <pt x="633" y="-100" on="0"/>
        <pt x="625" y="-52" on="0"/>
        <pt x="615" y="10" on="0"/>
        <pt x="605" y="77" on="0"/>
        <pt x="594" y="139" on="0"/>
        <pt x="585" y="187" on="0"/>
      </contour>
      <contour>
        <pt x="408" y="355" on="1"/>
        <pt x="414" y="352" on="0"/>
        <pt x="447" y="337" on="0"/>
        <pt x="486" y="320" on="0"/>
        <pt x="521" y="306" on="0"/>
        <pt x="529" y="303" on="1"/>
        <pt x="531" y="302" on="0"/>
        <pt x="544" y="302" on="0"/>
        <pt x="546" y="303" on="1"/>
        <pt x="550" y="344" on="0"/>
        <pt x="563" y="452" on="0"/>
        <pt x="574" y="562" on="0"/>
        <pt x="580" y="665" on="0"/>
        <pt x="577" y="701" on="1"/>
        <pt x="321" y="407" on="1"/>
        <pt x="325" y="404" on="0"/>
        <pt x="350" y="388" on="0"/>
        <pt x="377" y="372" on="0"/>
        <pt x="402" y="357" on="0"/>
      </contour>
    </TTGlyph>
    <TTGlyph name="AEacute" xMin="26" yMin="-116" xMax="1027" yMax="1167">
      <component glyphName="AE" x="0" y="0" flags="0x1204"/>
      <component glyphName="acute" x="592" y="406" flags="0x1004"/>
    </TTGlyph>
    <TTGlyph name="Aacute" xMin="59" yMin="-278" xMax="771" yMax="1230">
      <component glyphName="A" x="22" y="-155" flags="0x1204"/>
      <component glyphName="acute" x="390" y="469" flags="0x1004"/>
    </TTGlyph>
    <TTGlyph name="Abreve" xMin="37" yMin="-123" xMax="749" yMax="1238">
      <component glyphName="A" x="0" y="0" flags="0x1204"/>
      <component glyphName="breve" x="417" y="315" flags="0x1004"/>
    </TTGlyph>
    <TTGlyph name="Acircumflex" xMin="44" yMin="-202" xMax="824" yMax="1410">
      <component glyphName="A" x="7" y="-79" flags="0x1204"/>
      <component glyphName="circumflex" x="93" y="536" flags="0x1004"/>
    </TTGlyph>
    <TTGlyph name="Adieresis" xMin="37" yMin="-236" xMax="749" yMax="1261">
      <component glyphName="A" x="0" y="-113" flags="0x1204"/>
      <component glyphName="dieresis" x="265" y="627" flags="0x1004"/>
    </TTGlyph>
    <TTGlyph name="Agrave" xMin="35" yMin="-253" xMax="747" yMax="1150">
      <component glyphName="A" x="-2" y="-130" flags="0x1204"/>
      <component glyphName="grave" x="458" y="375" flags="0x1004"/>
    </TTGlyph>
    <TTGlyph name="Amacron" xMin="37" yMin="-123" xMax="765" yMax="1146">
      <component glyphName="A" x="0" y="0" flags="0x1204"/>
      <component glyphName="macron" x="317" y="428" flags="0x1004"/>
    </TTGlyph>
    <TTGlyph name="Aogonek" xMin="37" yMin="-288" xMax="765" yMax="990">
      <contour>
        <pt x="710" y="-288" on="1"/>
        <pt x="668" y="-298" on="0"/>
        <pt x="597" y="-278" on="0"/>
        <pt x="552" y="-233" on="0"/>
        <pt x="538" y="-172" on="0"/>
        <pt x="564" y="-112" on="0"/>
        <pt x="601" y="-85" on="1"/>
        <pt x="629" y="-65" on="0"/>
        <pt x="673" y="-52" on="1"/>
        <pt x="659" y="-11" on="0"/>
        <pt x="644" y="35" on="1"/>
        <pt x="628" y="85" on="0"/>
        <pt x="598" y="173" on="0"/>
        <pt x="592" y="191" on="1"/>
        <pt x="591" y="196" on="0"/>
        <pt x="578" y="222" on="0"/>
        <pt x="574" y="226" on="1"/>
        <pt x="563" y="230" on="0"/>
        <pt x="504" y="249" on="0"/>
        <pt x="438" y="272" on="0"/>
        <pt x="379" y="292" on="0"/>
        <pt x="367" y="296" on="1"/>
        <pt x="364" y="297" on="0"/>
        <pt x="344" y="308" on="0"/>
        <pt x="320" y="321" on="0"/>
        <pt x="300" y="331" on="0"/>
        <pt x="297" y="331" on="1"/>
        <pt x="278" y="331" on="0"/>
        <pt x="244" y="285" on="0"/>
        <pt x="210" y="217" on="0"/>
        <pt x="172" y="140" on="0"/>
        <pt x="126" y="78" on="0"/>
        <pt x="71" y="43" on="0"/>
        <pt x="37" y="52" on="1"/>
        <pt x="37" y="87" on="1"/>
        <pt x="44" y="96" on="0"/>
        <pt x="75" y="134" on="0"/>
        <pt x="112" y="182" on="0"/>
        <pt x="154" y="235" on="0"/>
        <pt x="191" y="283" on="0"/>
        <pt x="220" y="321" on="0"/>
        <pt x="227" y="331" on="1"/>
        <pt x="240" y="348" on="0"/>
        <pt x="223" y="409" on="0"/>
        <pt x="190" y="479" on="0"/>
        <pt x="152" y="549" on="0"/>
        <pt x="136" y="599" on="0"/>
        <pt x="154" y="621" on="0"/>
        <pt x="194" y="608" on="1"/>
        <pt x="208" y="566" on="0"/>
        <pt x="258" y="478" on="0"/>
        <pt x="297" y="452" on="1"/>
        <pt x="329" y="473" on="0"/>
        <pt x="386" y="545" on="0"/>
        <pt x="435" y="635" on="0"/>
        <pt x="476" y="736" on="0"/>
        <pt x="509" y="835" on="0"/>
        <pt x="533" y="923" on="0"/>
        <pt x="541" y="955" on="1"/>
        <pt x="549" y="969" on="0"/>
        <pt x="578" y="985" on="0"/>
        <pt x="592" y="990" on="1"/>
        <pt x="599" y="981" on="0"/>
        <pt x="603" y="911" on="0"/>
        <pt x="603" y="810" on="0"/>
        <pt x="600" y="687" on="0"/>
        <pt x="599" y="562" on="0"/>
        <pt x="601" y="443" on="0"/>
        <pt x="610" y="352" on="0"/>
        <pt x="628" y="296" on="0"/>
        <pt x="644" y="296" on="1"/>
        <pt x="749" y="296" on="1"/>
        <pt x="749" y="234" on="1"/>
        <pt x="662" y="234" on="1"/>
        <pt x="644" y="234" on="0"/>
        <pt x="652" y="189" on="0"/>
        <pt x="681" y="119" on="0"/>
        <pt x="720" y="34" on="0"/>
        <pt x="747" y="-44" on="0"/>
        <pt x="751" y="-108" on="0"/>
        <pt x="731" y="-121" on="1"/>
        <pt x="727" y="-123" on="0"/>
        <pt x="700" y="-123" on="0"/>
        <pt x="696" y="-121" on="1"/>
        <pt x="693" y="-111" on="0"/>
        <pt x="688" y="-95" on="1"/>
        <pt x="649" y="-104" on="0"/>
        <pt x="628" y="-122" on="1"/>
        <pt x="601" y="-145" on="0"/>
        <pt x="589" y="-195" on="0"/>
        <pt x="611" y="-240" on="0"/>
        <pt x="653" y="-257" on="0"/>
        <pt x="710" y="-236" on="0"/>
        <pt x="739" y="-196" on="1"/>
        <pt x="761" y="-212" on="0"/>
        <pt x="768" y="-237" on="0"/>
        <pt x="753" y="-259" on="0"/>
        <pt x="724" y="-278" on="0"/>
      </contour>
      <contour>
        <pt x="419" y="348" on="1"/>
        <pt x="425" y="345" on="0"/>
        <pt x="458" y="330" on="0"/>
        <pt x="497" y="313" on="0"/>
        <pt x="533" y="299" on="0"/>
        <pt x="541" y="296" on="1"/>
        <pt x="543" y="295" on="0"/>
        <pt x="555" y="295" on="0"/>
        <pt x="557" y="296" on="1"/>
        <pt x="561" y="337" on="0"/>
        <pt x="553" y="461" on="0"/>
        <pt x="540" y="591" on="0"/>
        <pt x="526" y="710" on="0"/>
        <pt x="523" y="746" on="1"/>
        <pt x="332" y="399" on="1"/>
        <pt x="336" y="396" on="0"/>
        <pt x="361" y="381" on="0"/>
        <pt x="388" y="364" on="0"/>
        <pt x="413" y="350" on="0"/>
      </contour>
    </TTGlyph>
    <TTGlyph name="Aring" xMin="37" yMin="-123" xMax="749" yMax="1385">
      <component glyphName="A" x="0" y="0" flags="0x1204"/>
      <component glyphName="ring" x="250" y="347" flags="0x1004"/>
    </TTGlyph>
    <TTGlyph name="Atilde" xMin="44" yMin="-256" xMax="762" yMax="1372">
      <component glyphName="A" x="7" y="-133" flags="0x1204"/>
      <component glyphName="tilde" x="134" y="480" flags="0x1004"/>
    </TTGlyph>
    <TTGlyph name="B" xMin="8" yMin="0" xMax="824" yMax="1007">
      <contour>
        <pt x="251" y="17" on="1"/>
        <pt x="249" y="23" on="0"/>
        <pt x="249" y="49" on="0"/>
        <pt x="251" y="52" on="1"/>
        <pt x="252" y="53" on="0"/>
        <pt x="261" y="58" on="0"/>
        <pt x="272" y="64" on="0"/>
        <pt x="283" y="69" on="0"/>
        <pt x="286" y="70" on="1"/>
        <pt x="330" y="82" on="0"/>
        <pt x="417" y="110" on="0"/>
        <pt x="501" y="146" on="0"/>
        <pt x="579" y="193" on="0"/>
        <pt x="615" y="225" on="1"/>
        <pt x="701" y="303" on="0"/>
        <pt x="776" y="416" on="0"/>
        <pt x="780" y="494" on="0"/>
        <pt x="727" y="541" on="0"/>
        <pt x="646" y="564" on="0"/>
        <pt x="549" y="566" on="0"/>
        <pt x="466" y="554" on="0"/>
        <pt x="409" y="532" on="0"/>
        <pt x="408" y="520" on="1"/>
        <pt x="373" y="173" on="1"/>
        <pt x="372" y="164" on="0"/>
        <pt x="355" y="155" on="0"/>
        <pt x="336" y="155" on="0"/>
        <pt x="321" y="164" on="0"/>
        <pt x="321" y="173" on="1"/>
        <pt x="321" y="452" on="1"/>
        <pt x="251" y="452" on="1"/>
        <pt x="250" y="454" on="0"/>
        <pt x="250" y="467" on="0"/>
        <pt x="251" y="469" on="1"/>
        <pt x="255" y="474" on="0"/>
        <pt x="274" y="499" on="0"/>
        <pt x="296" y="527" on="0"/>
        <pt x="316" y="551" on="0"/>
        <pt x="321" y="555" on="1"/>
        <pt x="322" y="568" on="0"/>
        <pt x="327" y="632" on="0"/>
        <pt x="332" y="704" on="0"/>
        <pt x="337" y="769" on="0"/>
        <pt x="338" y="781" on="1"/>
        <pt x="340" y="808" on="0"/>
        <pt x="325" y="831" on="0"/>
        <pt x="299" y="832" on="0"/>
        <pt x="267" y="817" on="0"/>
        <pt x="235" y="795" on="0"/>
        <pt x="207" y="771" on="0"/>
        <pt x="199" y="764" on="1"/>
        <pt x="191" y="756" on="0"/>
        <pt x="151" y="717" on="0"/>
        <pt x="107" y="672" on="0"/>
        <pt x="67" y="633" on="0"/>
        <pt x="60" y="625" on="1"/>
        <pt x="8" y="625" on="1"/>
        <pt x="-1" y="653" on="0"/>
        <pt x="40" y="716" on="0"/>
        <pt x="122" y="782" on="0"/>
        <pt x="235" y="848" on="0"/>
        <pt x="361" y="907" on="0"/>
        <pt x="488" y="957" on="0"/>
        <pt x="599" y="992" on="0"/>
        <pt x="683" y="1010" on="0"/>
        <pt x="702" y="1007" on="1"/>
        <pt x="720" y="1003" on="0"/>
        <pt x="730" y="971" on="0"/>
        <pt x="724" y="932" on="0"/>
        <pt x="709" y="894" on="0"/>
        <pt x="702" y="885" on="1"/>
        <pt x="671" y="841" on="0"/>
        <pt x="619" y="770" on="0"/>
        <pt x="564" y="707" on="0"/>
        <pt x="501" y="644" on="0"/>
        <pt x="460" y="607" on="1"/>
        <pt x="494" y="601" on="0"/>
        <pt x="557" y="609" on="0"/>
        <pt x="618" y="618" on="0"/>
        <pt x="683" y="619" on="0"/>
        <pt x="720" y="607" on="1"/>
        <pt x="742" y="600" on="0"/>
        <pt x="776" y="584" on="0"/>
        <pt x="801" y="562" on="0"/>
        <pt x="818" y="529" on="0"/>
        <pt x="824" y="504" on="1"/>
        <pt x="837" y="444" on="0"/>
        <pt x="791" y="330" on="0"/>
        <pt x="698" y="228" on="0"/>
        <pt x="574" y="139" on="0"/>
        <pt x="446" y="67" on="0"/>
        <pt x="327" y="15" on="0"/>
        <pt x="286" y="0" on="1"/>
        <pt x="275" y="-5" on="0"/>
        <pt x="255" y="8" on="0"/>
      </contour>
      <contour>
        <pt x="408" y="625" on="1"/>
        <pt x="415" y="631" on="0"/>
        <pt x="442" y="658" on="0"/>
        <pt x="477" y="692" on="0"/>
        <pt x="515" y="729" on="0"/>
        <pt x="548" y="764" on="0"/>
        <pt x="575" y="792" on="0"/>
        <pt x="581" y="799" on="1"/>
        <pt x="591" y="809" on="0"/>
        <pt x="620" y="848" on="0"/>
        <pt x="648" y="887" on="0"/>
        <pt x="668" y="917" on="0"/>
        <pt x="668" y="920" on="1"/>
        <pt x="668" y="972" on="1"/>
        <pt x="638" y="977" on="0"/>
        <pt x="557" y="957" on="0"/>
        <pt x="477" y="926" on="0"/>
        <pt x="408" y="893" on="0"/>
        <pt x="390" y="885" on="1"/>
        <pt x="408" y="851" on="1"/>
      </contour>
    </TTGlyph>
    <TTGlyph name="C" xMin="28" yMin="7" xMax="607" yMax="729">
      <contour>
        <pt x="139" y="17" on="1"/>
        <pt x="98" y="33" on="0"/>
        <pt x="47" y="116" on="0"/>
        <pt x="25" y="227" on="0"/>
        <pt x="31" y="357" on="0"/>
        <pt x="60" y="487" on="0"/>
        <pt x="110" y="605" on="0"/>
        <pt x="178" y="692" on="0"/>
        <pt x="263" y="737" on="0"/>
        <pt x="312" y="729" on="1"/>
        <pt x="314" y="719" on="0"/>
        <pt x="325" y="670" on="0"/>
        <pt x="336" y="614" on="0"/>
        <pt x="345" y="565" on="0"/>
        <pt x="347" y="555" on="1"/>
        <pt x="349" y="544" on="0"/>
        <pt x="331" y="518" on="0"/>
        <pt x="306" y="502" on="0"/>
        <pt x="282" y="503" on="0"/>
        <pt x="278" y="520" on="1"/>
        <pt x="275" y="530" on="0"/>
        <pt x="271" y="568" on="0"/>
        <pt x="265" y="610" on="0"/>
        <pt x="255" y="647" on="0"/>
        <pt x="237" y="663" on="0"/>
        <pt x="210" y="652" on="0"/>
        <pt x="191" y="625" on="1"/>
        <pt x="185" y="617" on="0"/>
        <pt x="168" y="590" on="0"/>
        <pt x="151" y="562" on="0"/>
        <pt x="139" y="540" on="0"/>
        <pt x="139" y="538" on="1"/>
        <pt x="87" y="260" on="1"/>
        <pt x="78" y="214" on="0"/>
        <pt x="98" y="141" on="0"/>
        <pt x="142" y="90" on="0"/>
        <pt x="206" y="61" on="0"/>
        <pt x="277" y="58" on="0"/>
        <pt x="350" y="79" on="0"/>
        <pt x="382" y="104" on="1"/>
        <pt x="394" y="113" on="0"/>
        <pt x="433" y="163" on="0"/>
        <pt x="477" y="226" on="0"/>
        <pt x="525" y="295" on="0"/>
        <pt x="567" y="350" on="0"/>
        <pt x="599" y="384" on="0"/>
        <pt x="607" y="382" on="1"/>
        <pt x="622" y="338" on="0"/>
        <pt x="589" y="240" on="0"/>
        <pt x="514" y="147" on="0"/>
        <pt x="409" y="67" on="0"/>
        <pt x="295" y="15" on="0"/>
        <pt x="183" y="-1" on="0"/>
      </contour>
    </TTGlyph>
    <TTGlyph name="Cacute" xMin="28" yMin="7" xMax="607" yMax="949">
      <component glyphName="C" x="0" y="0" flags="0x1204"/>
      <component glyphName="acute" x="223" y="188" flags="0x1004"/>
    </TTGlyph>
    <TTGlyph name="Ccaron" xMin="28" yMin="7" xMax="607" yMax="991">
      <component glyphName="C" x="0" y="0" flags="0x1204"/>
      <component glyphName="caron" x="-133" y="188" flags="0x1004"/>
    </TTGlyph>
    <TTGlyph name="Ccedilla" xMin="28" yMin="-403" xMax="607" yMax="729">
      <contour>
        <pt x="211" y="-383" on="1"/>
        <pt x="195" y="-371" on="0"/>
        <pt x="174" y="-333" on="0"/>
        <pt x="164" y="-292" on="0"/>
        <pt x="162" y="-252" on="0"/>
        <pt x="169" y="-226" on="0"/>
        <pt x="183" y="-217" on="0"/>
        <pt x="193" y="-227" on="1"/>
        <pt x="191" y="-281" on="0"/>
        <pt x="235" y="-337" on="0"/>
        <pt x="298" y="-351" on="0"/>
        <pt x="368" y="-330" on="0"/>
        <pt x="419" y="-282" on="0"/>
        <pt x="438" y="-214" on="0"/>
        <pt x="418" y="-175" on="1"/>
        <pt x="392" y="-146" on="0"/>
        <pt x="330" y="-129" on="0"/>
        <pt x="267" y="-120" on="0"/>
        <pt x="207" y="-101" on="0"/>
        <pt x="183" y="-69" on="1"/>
        <pt x="173" y="-23" on="0"/>
        <pt x="178" y="6" on="1"/>
        <pt x="157" y="9" on="0"/>
        <pt x="139" y="17" on="1"/>
        <pt x="98" y="33" on="0"/>
        <pt x="47" y="116" on="0"/>
        <pt x="25" y="227" on="0"/>
        <pt x="31" y="357" on="0"/>
        <pt x="60" y="487" on="0"/>
        <pt x="110" y="605" on="0"/>
        <pt x="178" y="692" on="0"/>
        <pt x="263" y="737" on="0"/>
        <pt x="312" y="729" on="1"/>
        <pt x="314" y="719" on="0"/>
        <pt x="325" y="670" on="0"/>
        <pt x="336" y="614" on="0"/>
        <pt x="345" y="565" on="0"/>
        <pt x="347" y="555" on="1"/>
        <pt x="349" y="544" on="0"/>
        <pt x="331" y="518" on="0"/>
        <pt x="306" y="502" on="0"/>
        <pt x="282" y="503" on="0"/>
        <pt x="278" y="520" on="1"/>
        <pt x="275" y="530" on="0"/>
        <pt x="271" y="568" on="0"/>
        <pt x="265" y="610" on="0"/>
        <pt x="255" y="647" on="0"/>
        <pt x="237" y="663" on="0"/>
        <pt x="210" y="652" on="0"/>
        <pt x="191" y="625" on="1"/>
        <pt x="185" y="617" on="0"/>
        <pt x="168" y="590" on="0"/>
        <pt x="151" y="562" on="0"/>
        <pt x="139" y="540" on="0"/>
        <pt x="139" y="538" on="1"/>
        <pt x="87" y="260" on="1"/>
        <pt x="78" y="214" on="0"/>
        <pt x="98" y="141" on="0"/>
        <pt x="142" y="90" on="0"/>
        <pt x="206" y="61" on="0"/>
        <pt x="277" y="58" on="0"/>
        <pt x="350" y="79" on="0"/>
        <pt x="382" y="104" on="1"/>
        <pt x="394" y="113" on="0"/>
        <pt x="433" y="163" on="0"/>
        <pt x="477" y="226" on="0"/>
        <pt x="525" y="295" on="0"/>
        <pt x="567" y="350" on="0"/>
        <pt x="599" y="384" on="0"/>
        <pt x="607" y="382" on="1"/>
        <pt x="622" y="338" on="0"/>
        <pt x="589" y="240" on="0"/>
        <pt x="514" y="147" on="0"/>
        <pt x="409" y="67" on="0"/>
        <pt x="352" y="41" on="1"/>
        <pt x="299" y="17" on="0"/>
        <pt x="247" y="8" on="1"/>
        <pt x="251" y="-9" on="0"/>
        <pt x="253" y="-34" on="1"/>
        <pt x="251" y="-41" on="0"/>
        <pt x="285" y="-57" on="0"/>
        <pt x="338" y="-78" on="0"/>
        <pt x="402" y="-106" on="0"/>
        <pt x="456" y="-142" on="0"/>
        <pt x="492" y="-189" on="0"/>
        <pt x="490" y="-248" on="0"/>
        <pt x="442" y="-320" on="0"/>
        <pt x="384" y="-365" on="1"/>
        <pt x="366" y="-379" on="0"/>
        <pt x="323" y="-399" on="0"/>
        <pt x="277" y="-406" on="0"/>
        <pt x="231" y="-398" on="0"/>
      </contour>
    </TTGlyph>
    <TTGlyph name="Ccircumflex" xMin="28" yMin="7" xMax="607" yMax="1062">
      <component glyphName="C" x="0" y="0" flags="0x1204"/>
      <component glyphName="circumflex" x="-154" y="188" flags="0x1004"/>
    </TTGlyph>
    <TTGlyph name="Cdotaccent" xMin="28" yMin="7" xMax="607" yMax="986">
      <component glyphName="C" x="0" y="0" flags="0x1204"/>
      <component glyphName="dotaccent" x="226" y="188" flags="0x1004"/>
    </TTGlyph>
    <TTGlyph name="D" xMin="-2" yMin="-128" xMax="657" yMax="713">
      <contour>
        <pt x="275" y="80" on="1"/>
        <pt x="277" y="81" on="0"/>
        <pt x="282" y="130" on="0"/>
        <pt x="288" y="196" on="0"/>
        <pt x="292" y="266" on="0"/>
        <pt x="293" y="289" on="1"/>
        <pt x="293" y="302" on="0"/>
        <pt x="294" y="350" on="0"/>
        <pt x="294" y="409" on="0"/>
        <pt x="295" y="473" on="0"/>
        <pt x="294" y="530" on="0"/>
        <pt x="293" y="574" on="0"/>
        <pt x="293" y="584" on="1"/>
        <pt x="293" y="588" on="0"/>
        <pt x="288" y="608" on="0"/>
        <pt x="283" y="630" on="0"/>
        <pt x="277" y="649" on="0"/>
        <pt x="275" y="653" on="1"/>
        <pt x="240" y="656" on="0"/>
        <pt x="168" y="642" on="0"/>
        <pt x="98" y="624" on="0"/>
        <pt x="29" y="612" on="0"/>
        <pt x="-2" y="618" on="1"/>
        <pt x="-10" y="635" on="0"/>
        <pt x="37" y="670" on="0"/>
        <pt x="127" y="697" on="0"/>
        <pt x="247" y="714" on="0"/>
        <pt x="375" y="712" on="0"/>
        <pt x="499" y="687" on="0"/>
        <pt x="597" y="632" on="0"/>
        <pt x="657" y="544" on="0"/>
        <pt x="657" y="479" on="1"/>
        <pt x="657" y="456" on="0"/>
        <pt x="641" y="404" on="0"/>
        <pt x="616" y="352" on="0"/>
        <pt x="585" y="305" on="0"/>
        <pt x="570" y="289" on="1"/>
        <pt x="563" y="281" on="0"/>
        <pt x="531" y="248" on="0"/>
        <pt x="490" y="206" on="0"/>
        <pt x="444" y="161" on="0"/>
        <pt x="403" y="120" on="0"/>
        <pt x="370" y="88" on="0"/>
        <pt x="362" y="80" on="1"/>
        <pt x="359" y="56" on="0"/>
        <pt x="349" y="16" on="0"/>
        <pt x="329" y="-6" on="0"/>
        <pt x="298" y="-5" on="0"/>
        <pt x="275" y="11" on="1"/>
        <pt x="253" y="-4" on="0"/>
        <pt x="204" y="-59" on="0"/>
        <pt x="152" y="-110" on="0"/>
        <pt x="96" y="-140" on="0"/>
        <pt x="68" y="-128" on="1"/>
        <pt x="68" y="-93" on="1"/>
      </contour>
      <contour>
        <pt x="362" y="150" on="1"/>
        <pt x="425" y="176" on="0"/>
        <pt x="522" y="277" on="0"/>
        <pt x="579" y="397" on="0"/>
        <pt x="591" y="520" on="0"/>
        <pt x="549" y="614" on="0"/>
        <pt x="448" y="665" on="0"/>
        <pt x="362" y="653" on="1"/>
      </contour>
    </TTGlyph>
    <TTGlyph name="Dcaron" xMin="-2" yMin="-128" xMax="657" yMax="991">
      <component glyphName="D" x="0" y="0" flags="0x1204"/>
      <component glyphName="caron" x="-99" y="188" flags="0x1004"/>
    </TTGlyph>
    <TTGlyph name="Dcroat" xMin="-2" yMin="-128" xMax="657" yMax="713">
      <contour>
        <pt x="21" y="336" on="1"/>
        <pt x="17" y="344" on="0"/>
        <pt x="23" y="356" on="0"/>
        <pt x="35" y="365" on="0"/>
        <pt x="50" y="369" on="0"/>
        <pt x="56" y="370" on="1"/>
        <pt x="69" y="373" on="0"/>
        <pt x="126" y="384" on="0"/>
        <pt x="198" y="398" on="0"/>
        <pt x="237" y="405" on="1"/>
        <pt x="266" y="411" on="0"/>
        <pt x="294" y="416" on="1"/>
        <pt x="294" y="441" on="1"/>
        <pt x="295" y="473" on="0"/>
        <pt x="294" y="530" on="0"/>
        <pt x="293" y="574" on="0"/>
        <pt x="293" y="584" on="1"/>
        <pt x="293" y="588" on="0"/>
        <pt x="288" y="608" on="0"/>
        <pt x="283" y="630" on="0"/>
        <pt x="277" y="649" on="0"/>
        <pt x="275" y="653" on="1"/>
        <pt x="240" y="656" on="0"/>
        <pt x="168" y="642" on="0"/>
        <pt x="98" y="624" on="0"/>
        <pt x="29" y="612" on="0"/>
        <pt x="-2" y="618" on="1"/>
        <pt x="-10" y="635" on="0"/>
        <pt x="37" y="670" on="0"/>
        <pt x="127" y="697" on="0"/>
        <pt x="247" y="714" on="0"/>
        <pt x="375" y="712" on="0"/>
        <pt x="499" y="687" on="0"/>
        <pt x="597" y="632" on="0"/>
        <pt x="657" y="544" on="0"/>
        <pt x="657" y="479" on="1"/>
        <pt x="657" y="456" on="0"/>
        <pt x="641" y="404" on="0"/>
        <pt x="616" y="352" on="0"/>
        <pt x="585" y="305" on="0"/>
        <pt x="570" y="289" on="1"/>
        <pt x="563" y="281" on="0"/>
        <pt x="531" y="248" on="0"/>
        <pt x="490" y="206" on="0"/>
        <pt x="444" y="161" on="0"/>
        <pt x="403" y="120" on="0"/>
        <pt x="370" y="88" on="0"/>
        <pt x="362" y="80" on="1"/>
        <pt x="359" y="56" on="0"/>
        <pt x="349" y="16" on="0"/>
        <pt x="329" y="-6" on="0"/>
        <pt x="298" y="-5" on="0"/>
        <pt x="275" y="11" on="1"/>
        <pt x="253" y="-4" on="0"/>
        <pt x="204" y="-59" on="0"/>
        <pt x="152" y="-110" on="0"/>
        <pt x="96" y="-140" on="0"/>
        <pt x="68" y="-128" on="1"/>
        <pt x="68" y="-93" on="1"/>
        <pt x="275" y="80" on="1"/>
        <pt x="277" y="81" on="0"/>
        <pt x="282" y="130" on="0"/>
        <pt x="288" y="196" on="0"/>
        <pt x="292" y="266" on="0"/>
        <pt x="293" y="289" on="1"/>
        <pt x="293" y="326" on="1"/>
        <pt x="294" y="341" on="0"/>
        <pt x="294" y="360" on="1"/>
        <pt x="283" y="358" on="0"/>
        <pt x="271" y="355" on="1"/>
        <pt x="230" y="347" on="0"/>
        <pt x="146" y="327" on="0"/>
        <pt x="77" y="317" on="0"/>
        <pt x="28" y="321" on="0"/>
      </contour>
      <contour>
        <pt x="362" y="150" on="1"/>
        <pt x="425" y="176" on="0"/>
        <pt x="522" y="277" on="0"/>
        <pt x="579" y="397" on="0"/>
        <pt x="591" y="520" on="0"/>
        <pt x="549" y="614" on="0"/>
        <pt x="448" y="665" on="0"/>
        <pt x="362" y="653" on="1"/>
        <pt x="362" y="429" on="1"/>
        <pt x="370" y="430" on="0"/>
        <pt x="378" y="432" on="1"/>
        <pt x="407" y="437" on="0"/>
        <pt x="421" y="440" on="1"/>
        <pt x="444" y="444" on="0"/>
        <pt x="456" y="428" on="0"/>
        <pt x="449" y="402" on="0"/>
        <pt x="430" y="376" on="0"/>
        <pt x="421" y="370" on="1"/>
        <pt x="395" y="373" on="0"/>
        <pt x="362" y="370" on="1"/>
      </contour>
    </TTGlyph>
    <TTGlyph name="E" xMin="17" yMin="-3" xMax="434" yMax="816">
      <contour>
        <pt x="87" y="17" on="1"/>
        <pt x="48" y="46" on="0"/>
        <pt x="23" y="126" on="0"/>
        <pt x="17" y="173" on="1"/>
        <pt x="19" y="187" on="0"/>
        <pt x="25" y="247" on="0"/>
        <pt x="33" y="322" on="0"/>
        <pt x="40" y="406" on="0"/>
        <pt x="47" y="481" on="0"/>
        <pt x="51" y="541" on="0"/>
        <pt x="52" y="555" on="1"/>
        <pt x="53" y="563" on="0"/>
        <pt x="53" y="583" on="1"/>
        <pt x="53" y="666" on="1"/>
        <pt x="53" y="686" on="0"/>
        <pt x="52" y="694" on="1"/>
        <pt x="70" y="712" on="1"/>
        <pt x="382" y="816" on="1"/>
        <pt x="417" y="816" on="1"/>
        <pt x="422" y="802" on="0"/>
        <pt x="415" y="770" on="0"/>
        <pt x="399" y="764" on="1"/>
        <pt x="139" y="659" on="1"/>
        <pt x="122" y="642" on="1"/>
        <pt x="121" y="641" on="0"/>
        <pt x="117" y="601" on="0"/>
        <pt x="111" y="546" on="0"/>
        <pt x="105" y="488" on="0"/>
        <pt x="104" y="469" on="1"/>
        <pt x="104" y="464" on="0"/>
        <pt x="103" y="439" on="0"/>
        <pt x="103" y="412" on="0"/>
        <pt x="104" y="387" on="0"/>
        <pt x="104" y="382" on="1"/>
        <pt x="399" y="538" on="1"/>
        <pt x="406" y="542" on="0"/>
        <pt x="413" y="530" on="0"/>
        <pt x="413" y="510" on="0"/>
        <pt x="406" y="490" on="0"/>
        <pt x="399" y="486" on="1"/>
        <pt x="382" y="475" on="0"/>
        <pt x="333" y="447" on="0"/>
        <pt x="280" y="416" on="0"/>
        <pt x="227" y="386" on="0"/>
        <pt x="185" y="362" on="0"/>
        <pt x="158" y="347" on="0"/>
        <pt x="157" y="347" on="1"/>
        <pt x="87" y="347" on="1"/>
        <pt x="87" y="122" on="1"/>
        <pt x="87" y="76" on="0"/>
        <pt x="128" y="50" on="0"/>
        <pt x="191" y="65" on="0"/>
        <pt x="265" y="109" on="0"/>
        <pt x="330" y="159" on="0"/>
        <pt x="377" y="202" on="0"/>
        <pt x="382" y="208" on="1"/>
        <pt x="386" y="233" on="0"/>
        <pt x="393" y="249" on="1"/>
        <pt x="399" y="263" on="0"/>
        <pt x="419" y="275" on="0"/>
        <pt x="434" y="260" on="1"/>
        <pt x="440" y="229" on="0"/>
        <pt x="409" y="157" on="0"/>
        <pt x="351" y="89" on="0"/>
        <pt x="272" y="32" on="0"/>
        <pt x="191" y="-1" on="0"/>
        <pt x="115" y="-4" on="0"/>
      </contour>
    </TTGlyph>
    <TTGlyph name="Eacute" xMin="17" yMin="-3" xMax="434" yMax="973">
      <component glyphName="E" x="0" y="0" flags="0x1204"/>
      <component glyphName="acute" x="149" y="212" flags="0x1004"/>
    </TTGlyph>
    <TTGlyph name="Ebreve" xMin="17" yMin="-3" xMax="434" yMax="1111">
      <component glyphName="E" x="0" y="0" flags="0x1204"/>
      <component glyphName="breve" x="41" y="188" flags="0x1004"/>
    </TTGlyph>
    <TTGlyph name="Ecaron" xMin="15" yMin="-3" xMax="515" yMax="1108">
      <component glyphName="E" x="0" y="0" flags="0x1204"/>
      <component glyphName="caron" x="-206" y="305" flags="0x1004"/>
    </TTGlyph>
    <TTGlyph name="Ecircumflex" xMin="17" yMin="-3" xMax="506" yMax="1138">
      <component glyphName="E" x="0" y="0" flags="0x1204"/>
      <component glyphName="circumflex" x="-225" y="264" flags="0x1004"/>
    </TTGlyph>
    <TTGlyph name="Edieresis" xMin="17" yMin="-3" xMax="434" yMax="961">
      <component glyphName="E" x="0" y="0" flags="0x1204"/>
      <component glyphName="dieresis" x="-56" y="327" flags="0x1004"/>
    </TTGlyph>
    <TTGlyph name="Edotaccent" xMin="17" yMin="-3" xMax="434" yMax="986">
      <component glyphName="E" x="0" y="0" flags="0x1204"/>
      <component glyphName="dotaccent" x="147" y="188" flags="0x1004"/>
    </TTGlyph>
    <TTGlyph name="Egrave" xMin="17" yMin="-3" xMax="434" yMax="987">
      <component glyphName="E" x="0" y="0" flags="0x1204"/>
      <component glyphName="grave" x="178" y="212" flags="0x1004"/>
    </TTGlyph>
    <TTGlyph name="Emacron" xMin="15" yMin="-3" xMax="448" yMax="906">
      <component glyphName="E" x="0" y="0" flags="0x1204"/>
      <component glyphName="macron" x="0" y="188" flags="0x1004"/>
    </TTGlyph>
    <TTGlyph name="Eogonek" xMin="17" yMin="-149" xMax="434" yMax="816">
      <contour>
        <pt x="298" y="-149" on="1"/>
        <pt x="256" y="-159" on="0"/>
        <pt x="185" y="-139" on="0"/>
        <pt x="140" y="-94" on="0"/>
        <pt x="126" y="-33" on="0"/>
        <pt x="139" y="-3" on="1"/>
        <pt x="139" y="-2" on="1"/>
        <pt x="109" y="0" on="0"/>
        <pt x="87" y="17" on="1"/>
        <pt x="48" y="46" on="0"/>
        <pt x="23" y="126" on="0"/>
        <pt x="17" y="173" on="1"/>
        <pt x="19" y="187" on="0"/>
        <pt x="25" y="247" on="0"/>
        <pt x="33" y="322" on="0"/>
        <pt x="40" y="406" on="0"/>
        <pt x="47" y="481" on="0"/>
        <pt x="51" y="541" on="0"/>
        <pt x="52" y="555" on="1"/>
        <pt x="53" y="563" on="0"/>
        <pt x="53" y="583" on="1"/>
        <pt x="53" y="666" on="1"/>
        <pt x="53" y="686" on="0"/>
        <pt x="52" y="694" on="1"/>
        <pt x="70" y="712" on="1"/>
        <pt x="382" y="816" on="1"/>
        <pt x="417" y="816" on="1"/>
        <pt x="422" y="802" on="0"/>
        <pt x="415" y="770" on="0"/>
        <pt x="399" y="764" on="1"/>
        <pt x="139" y="659" on="1"/>
        <pt x="122" y="642" on="1"/>
        <pt x="121" y="641" on="0"/>
        <pt x="117" y="601" on="0"/>
        <pt x="111" y="546" on="0"/>
        <pt x="105" y="488" on="0"/>
        <pt x="104" y="469" on="1"/>
        <pt x="104" y="464" on="0"/>
        <pt x="103" y="439" on="0"/>
        <pt x="103" y="412" on="0"/>
        <pt x="104" y="387" on="0"/>
        <pt x="104" y="382" on="1"/>
        <pt x="399" y="538" on="1"/>
        <pt x="406" y="542" on="0"/>
        <pt x="413" y="530" on="0"/>
        <pt x="413" y="510" on="0"/>
        <pt x="406" y="490" on="0"/>
        <pt x="399" y="486" on="1"/>
        <pt x="382" y="475" on="0"/>
        <pt x="333" y="447" on="0"/>
        <pt x="280" y="416" on="0"/>
        <pt x="227" y="386" on="0"/>
        <pt x="185" y="362" on="0"/>
        <pt x="158" y="347" on="0"/>
        <pt x="157" y="347" on="1"/>
        <pt x="87" y="347" on="1"/>
        <pt x="87" y="122" on="1"/>
        <pt x="87" y="76" on="0"/>
        <pt x="128" y="50" on="0"/>
        <pt x="191" y="65" on="0"/>
        <pt x="265" y="109" on="0"/>
        <pt x="330" y="159" on="0"/>
        <pt x="377" y="202" on="0"/>
        <pt x="382" y="208" on="1"/>
        <pt x="386" y="233" on="0"/>
        <pt x="393" y="249" on="1"/>
        <pt x="399" y="263" on="0"/>
        <pt x="419" y="275" on="0"/>
        <pt x="434" y="260" on="1"/>
        <pt x="440" y="229" on="0"/>
        <pt x="409" y="157" on="0"/>
        <pt x="351" y="89" on="0"/>
        <pt x="311" y="60" on="1"/>
        <pt x="304" y="55" on="0"/>
        <pt x="297" y="51" on="1"/>
        <pt x="298" y="48" on="1"/>
        <pt x="295" y="47" on="0"/>
        <pt x="291" y="47" on="1"/>
        <pt x="262" y="28" on="0"/>
        <pt x="231" y="15" on="1"/>
        <pt x="218" y="10" on="0"/>
        <pt x="204" y="6" on="1"/>
        <pt x="187" y="-12" on="0"/>
        <pt x="183" y="-31" on="1"/>
        <pt x="177" y="-56" on="0"/>
        <pt x="199" y="-101" on="0"/>
        <pt x="241" y="-118" on="0"/>
        <pt x="298" y="-97" on="0"/>
        <pt x="327" y="-57" on="1"/>
        <pt x="349" y="-73" on="0"/>
        <pt x="356" y="-98" on="0"/>
        <pt x="341" y="-120" on="0"/>
        <pt x="312" y="-139" on="0"/>
      </contour>
    </TTGlyph>
    <TTGlyph name="Eth" xMin="-20" yMin="-170" xMax="639" yMax="671">
      <contour>
        <pt x="65" y="248" on="1"/>
        <pt x="60" y="256" on="0"/>
        <pt x="66" y="269" on="0"/>
        <pt x="78" y="277" on="0"/>
        <pt x="93" y="282" on="0"/>
        <pt x="99" y="283" on="1"/>
        <pt x="120" y="287" on="0"/>
        <pt x="217" y="305" on="0"/>
        <pt x="272" y="315" on="1"/>
        <pt x="275" y="315" on="1"/>
        <pt x="275" y="459" on="1"/>
        <pt x="275" y="488" on="0"/>
        <pt x="274" y="532" on="0"/>
        <pt x="274" y="542" on="1"/>
        <pt x="274" y="546" on="0"/>
        <pt x="269" y="566" on="0"/>
        <pt x="264" y="588" on="0"/>
        <pt x="258" y="607" on="0"/>
        <pt x="257" y="611" on="1"/>
        <pt x="222" y="614" on="0"/>
        <pt x="150" y="600" on="0"/>
        <pt x="79" y="582" on="0"/>
        <pt x="11" y="571" on="0"/>
        <pt x="-20" y="577" on="1"/>
        <pt x="-29" y="594" on="0"/>
        <pt x="19" y="629" on="0"/>
        <pt x="108" y="656" on="0"/>
        <pt x="228" y="672" on="0"/>
        <pt x="356" y="670" on="0"/>
        <pt x="481" y="645" on="0"/>
        <pt x="579" y="590" on="0"/>
        <pt x="639" y="502" on="0"/>
        <pt x="639" y="437" on="1"/>
        <pt x="639" y="414" on="0"/>
        <pt x="623" y="362" on="0"/>
        <pt x="598" y="310" on="0"/>
        <pt x="567" y="263" on="0"/>
        <pt x="552" y="247" on="1"/>
        <pt x="545" y="239" on="0"/>
        <pt x="512" y="206" on="0"/>
        <pt x="471" y="164" on="0"/>
        <pt x="448" y="141" on="1"/>
        <pt x="405" y="98" on="1"/>
        <pt x="385" y="78" on="0"/>
        <pt x="352" y="46" on="0"/>
        <pt x="344" y="38" on="1"/>
        <pt x="341" y="14" on="0"/>
        <pt x="331" y="-26" on="0"/>
        <pt x="311" y="-48" on="0"/>
        <pt x="280" y="-47" on="0"/>
        <pt x="257" y="-31" on="1"/>
        <pt x="235" y="-46" on="0"/>
        <pt x="186" y="-101" on="0"/>
        <pt x="134" y="-152" on="0"/>
        <pt x="78" y="-182" on="0"/>
        <pt x="49" y="-170" on="1"/>
        <pt x="49" y="-135" on="1"/>
        <pt x="257" y="38" on="1"/>
        <pt x="258" y="39" on="0"/>
        <pt x="264" y="88" on="0"/>
        <pt x="269" y="154" on="0"/>
        <pt x="273" y="224" on="0"/>
        <pt x="274" y="247" on="1"/>
        <pt x="274" y="258" on="1"/>
        <pt x="222" y="246" on="1"/>
        <pt x="183" y="237" on="0"/>
        <pt x="118" y="228" on="0"/>
        <pt x="72" y="233" on="0"/>
      </contour>
      <contour>
        <pt x="344" y="108" on="1"/>
        <pt x="407" y="134" on="0"/>
        <pt x="503" y="235" on="0"/>
        <pt x="560" y="355" on="0"/>
        <pt x="573" y="478" on="0"/>
        <pt x="531" y="572" on="0"/>
        <pt x="429" y="623" on="0"/>
        <pt x="344" y="611" on="1"/>
        <pt x="344" y="327" on="1"/>
        <pt x="360" y="331" on="0"/>
        <pt x="375" y="333" on="1"/>
        <pt x="424" y="342" on="0"/>
        <pt x="445" y="346" on="1"/>
        <pt x="468" y="350" on="0"/>
        <pt x="481" y="334" on="0"/>
        <pt x="474" y="308" on="0"/>
        <pt x="454" y="282" on="0"/>
        <pt x="445" y="276" on="1"/>
        <pt x="416" y="280" on="0"/>
        <pt x="378" y="275" on="1"/>
        <pt x="361" y="273" on="0"/>
        <pt x="344" y="270" on="1"/>
      </contour>
    </TTGlyph>
    <TTGlyph name="Euro" xMin="26" yMin="-6" xMax="638" yMax="765">
      <contour>
        <pt x="26" y="262" on="1"/>
        <pt x="20" y="274" on="0"/>
        <pt x="46" y="294" on="0"/>
        <pt x="84" y="309" on="0"/>
        <pt x="123" y="315" on="0"/>
        <pt x="130" y="314" on="1"/>
        <pt x="159" y="317" on="1"/>
        <pt x="161" y="340" on="0"/>
        <pt x="166" y="365" on="1"/>
        <pt x="170" y="386" on="0"/>
        <pt x="175" y="407" on="1"/>
        <pt x="149" y="400" on="0"/>
        <pt x="116" y="391" on="1"/>
        <pt x="63" y="391" on="1"/>
        <pt x="62" y="393" on="0"/>
        <pt x="62" y="407" on="0"/>
        <pt x="63" y="409" on="1"/>
        <pt x="65" y="412" on="0"/>
        <pt x="79" y="425" on="0"/>
        <pt x="81" y="426" on="1"/>
        <pt x="133" y="444" on="0"/>
        <pt x="170" y="456" on="1"/>
        <pt x="181" y="460" on="0"/>
        <pt x="191" y="463" on="1"/>
        <pt x="199" y="485" on="0"/>
        <pt x="208" y="505" on="1"/>
        <pt x="237" y="573" on="0"/>
        <pt x="321" y="687" on="0"/>
        <pt x="426" y="757" on="0"/>
        <pt x="547" y="772" on="0"/>
        <pt x="612" y="741" on="1"/>
        <pt x="639" y="702" on="0"/>
        <pt x="637" y="675" on="0"/>
        <pt x="595" y="674" on="0"/>
        <pt x="523" y="684" on="0"/>
        <pt x="438" y="678" on="0"/>
        <pt x="350" y="643" on="0"/>
        <pt x="313" y="597" on="1"/>
        <pt x="278" y="553" on="0"/>
        <pt x="253" y="479" on="1"/>
        <pt x="274" y="483" on="0"/>
        <pt x="293" y="485" on="1"/>
        <pt x="320" y="488" on="0"/>
        <pt x="381" y="488" on="0"/>
        <pt x="457" y="481" on="0"/>
        <pt x="511" y="477" on="1"/>
        <pt x="516" y="464" on="0"/>
        <pt x="510" y="430" on="0"/>
        <pt x="494" y="425" on="1"/>
        <pt x="443" y="432" on="0"/>
        <pt x="371" y="439" on="0"/>
        <pt x="317" y="439" on="0"/>
        <pt x="273" y="434" on="0"/>
        <pt x="248" y="428" on="1"/>
        <pt x="243" y="427" on="0"/>
        <pt x="237" y="425" on="1"/>
        <pt x="228" y="380" on="0"/>
        <pt x="222" y="323" on="1"/>
        <pt x="490" y="348" on="1"/>
        <pt x="611" y="348" on="1"/>
        <pt x="618" y="337" on="0"/>
        <pt x="616" y="318" on="0"/>
        <pt x="604" y="304" on="0"/>
        <pt x="587" y="296" on="0"/>
        <pt x="578" y="296" on="1"/>
        <pt x="351" y="296" on="1"/>
        <pt x="219" y="271" on="1"/>
        <pt x="219" y="260" on="1"/>
        <pt x="210" y="214" on="0"/>
        <pt x="233" y="138" on="0"/>
        <pt x="282" y="82" on="0"/>
        <pt x="352" y="49" on="0"/>
        <pt x="428" y="41" on="0"/>
        <pt x="504" y="59" on="0"/>
        <pt x="536" y="84" on="1"/>
        <pt x="554" y="98" on="0"/>
        <pt x="576" y="141" on="0"/>
        <pt x="593" y="180" on="0"/>
        <pt x="608" y="206" on="0"/>
        <pt x="620" y="202" on="1"/>
        <pt x="635" y="158" on="0"/>
        <pt x="619" y="86" on="0"/>
        <pt x="571" y="33" on="0"/>
        <pt x="497" y="0" on="0"/>
        <pt x="409" y="-11" on="0"/>
        <pt x="315" y="-1" on="0"/>
        <pt x="271" y="17" on="1"/>
        <pt x="219" y="49" on="0"/>
        <pt x="165" y="159" on="0"/>
        <pt x="159" y="225" on="1"/>
        <pt x="157" y="242" on="0"/>
        <pt x="157" y="260" on="1"/>
        <pt x="78" y="245" on="1"/>
        <pt x="61" y="242" on="0"/>
        <pt x="34" y="245" on="0"/>
      </contour>
    </TTGlyph>
    <TTGlyph name="F" xMin="18" yMin="0" xMax="650" yMax="870">
      <contour>
        <pt x="338" y="17" on="1"/>
        <pt x="337" y="18" on="0"/>
        <pt x="336" y="50" on="0"/>
        <pt x="336" y="95" on="0"/>
        <pt x="337" y="142" on="0"/>
        <pt x="338" y="157" on="1"/>
        <pt x="338" y="159" on="0"/>
        <pt x="344" y="200" on="0"/>
        <pt x="352" y="256" on="0"/>
        <pt x="356" y="313" on="0"/>
        <pt x="355" y="330" on="1"/>
        <pt x="353" y="331" on="0"/>
        <pt x="340" y="331" on="0"/>
        <pt x="338" y="330" on="1"/>
        <pt x="330" y="327" on="0"/>
        <pt x="290" y="307" on="0"/>
        <pt x="246" y="284" on="0"/>
        <pt x="206" y="264" on="0"/>
        <pt x="199" y="260" on="1"/>
        <pt x="175" y="272" on="0"/>
        <pt x="182" y="300" on="0"/>
        <pt x="221" y="329" on="0"/>
        <pt x="282" y="361" on="0"/>
        <pt x="341" y="395" on="0"/>
        <pt x="386" y="432" on="0"/>
        <pt x="390" y="452" on="1"/>
        <pt x="460" y="781" on="1"/>
        <pt x="463" y="794" on="0"/>
        <pt x="453" y="811" on="0"/>
        <pt x="436" y="819" on="0"/>
        <pt x="415" y="819" on="0"/>
        <pt x="408" y="816" on="1"/>
        <pt x="394" y="811" on="0"/>
        <pt x="349" y="790" on="0"/>
        <pt x="304" y="768" on="0"/>
        <pt x="270" y="749" on="0"/>
        <pt x="268" y="746" on="1"/>
        <pt x="43" y="504" on="1"/>
        <pt x="34" y="493" on="0"/>
        <pt x="22" y="501" on="0"/>
        <pt x="17" y="522" on="0"/>
        <pt x="20" y="548" on="0"/>
        <pt x="26" y="555" on="1"/>
        <pt x="32" y="564" on="0"/>
        <pt x="59" y="600" on="0"/>
        <pt x="93" y="644" on="0"/>
        <pt x="131" y="694" on="0"/>
        <pt x="165" y="738" on="0"/>
        <pt x="192" y="773" on="0"/>
        <pt x="199" y="781" on="1"/>
        <pt x="239" y="785" on="0"/>
        <pt x="310" y="823" on="0"/>
        <pt x="380" y="860" on="0"/>
        <pt x="453" y="880" on="0"/>
        <pt x="495" y="867" on="1"/>
        <pt x="518" y="844" on="0"/>
        <pt x="529" y="778" on="0"/>
        <pt x="518" y="701" on="0"/>
        <pt x="493" y="619" on="0"/>
        <pt x="470" y="542" on="0"/>
        <pt x="455" y="475" on="0"/>
        <pt x="460" y="452" on="1"/>
        <pt x="484" y="444" on="0"/>
        <pt x="530" y="463" on="0"/>
        <pt x="577" y="490" on="0"/>
        <pt x="625" y="511" on="0"/>
        <pt x="650" y="504" on="1"/>
        <pt x="655" y="490" on="0"/>
        <pt x="638" y="460" on="0"/>
        <pt x="633" y="452" on="1"/>
        <pt x="623" y="449" on="0"/>
        <pt x="573" y="430" on="0"/>
        <pt x="518" y="407" on="0"/>
        <pt x="469" y="387" on="0"/>
        <pt x="460" y="382" on="1"/>
        <pt x="457" y="380" on="0"/>
        <pt x="447" y="371" on="0"/>
        <pt x="435" y="360" on="0"/>
        <pt x="426" y="350" on="0"/>
        <pt x="425" y="347" on="1"/>
        <pt x="422" y="334" on="0"/>
        <pt x="412" y="270" on="0"/>
        <pt x="400" y="199" on="0"/>
        <pt x="391" y="135" on="0"/>
        <pt x="390" y="122" on="1"/>
        <pt x="388" y="109" on="0"/>
        <pt x="393" y="72" on="0"/>
        <pt x="392" y="36" on="0"/>
        <pt x="377" y="6" on="0"/>
        <pt x="355" y="0" on="1"/>
      </contour>
    </TTGlyph>
    <TTGlyph name="G" xMin="31" yMin="6" xMax="572" yMax="888">
      <contour>
        <pt x="104" y="52" on="1"/>
        <pt x="73" y="75" on="0"/>
        <pt x="42" y="157" on="0"/>
        <pt x="30" y="249" on="0"/>
        <pt x="32" y="336" on="0"/>
        <pt x="35" y="365" on="1"/>
        <pt x="36" y="376" on="0"/>
        <pt x="45" y="435" on="0"/>
        <pt x="56" y="502" on="0"/>
        <pt x="67" y="561" on="0"/>
        <pt x="70" y="572" on="1"/>
        <pt x="96" y="680" on="0"/>
        <pt x="159" y="812" on="0"/>
        <pt x="224" y="881" on="0"/>
        <pt x="288" y="895" on="0"/>
        <pt x="339" y="874" on="0"/>
        <pt x="374" y="828" on="0"/>
        <pt x="383" y="775" on="0"/>
        <pt x="361" y="725" on="0"/>
        <pt x="330" y="712" on="1"/>
        <pt x="325" y="710" on="0"/>
        <pt x="310" y="707" on="0"/>
        <pt x="296" y="707" on="0"/>
        <pt x="287" y="710" on="0"/>
        <pt x="287" y="712" on="1"/>
        <pt x="287" y="816" on="1"/>
        <pt x="287" y="819" on="0"/>
        <pt x="266" y="819" on="0"/>
        <pt x="260" y="816" on="1"/>
        <pt x="227" y="797" on="0"/>
        <pt x="173" y="710" on="0"/>
        <pt x="132" y="609" on="0"/>
        <pt x="107" y="514" on="0"/>
        <pt x="104" y="486" on="1"/>
        <pt x="103" y="475" on="0"/>
        <pt x="101" y="429" on="0"/>
        <pt x="100" y="370" on="0"/>
        <pt x="100" y="306" on="0"/>
        <pt x="101" y="248" on="0"/>
        <pt x="103" y="201" on="0"/>
        <pt x="104" y="190" on="1"/>
        <pt x="104" y="173" on="0"/>
        <pt x="122" y="136" on="0"/>
        <pt x="148" y="103" on="0"/>
        <pt x="178" y="76" on="0"/>
        <pt x="191" y="70" on="1"/>
        <pt x="225" y="53" on="0"/>
        <pt x="304" y="71" on="0"/>
        <pt x="381" y="125" on="0"/>
        <pt x="451" y="203" on="0"/>
        <pt x="502" y="287" on="0"/>
        <pt x="527" y="369" on="0"/>
        <pt x="521" y="399" on="1"/>
        <pt x="484" y="404" on="0"/>
        <pt x="410" y="391" on="0"/>
        <pt x="337" y="373" on="0"/>
        <pt x="263" y="360" on="0"/>
        <pt x="225" y="365" on="1"/>
        <pt x="223" y="371" on="0"/>
        <pt x="222" y="387" on="0"/>
        <pt x="226" y="402" on="0"/>
        <pt x="235" y="414" on="0"/>
        <pt x="243" y="417" on="1"/>
        <pt x="279" y="417" on="0"/>
        <pt x="367" y="445" on="0"/>
        <pt x="457" y="475" on="0"/>
        <pt x="541" y="495" on="0"/>
        <pt x="572" y="486" on="1"/>
        <pt x="578" y="430" on="0"/>
        <pt x="546" y="296" on="0"/>
        <pt x="482" y="170" on="0"/>
        <pt x="391" y="64" on="0"/>
        <pt x="283" y="5" on="0"/>
        <pt x="164" y="7" on="0"/>
      </contour>
    </TTGlyph>
    <TTGlyph name="Gbreve" xMin="31" yMin="6" xMax="572" yMax="1111">
      <component glyphName="G" x="0" y="0" flags="0x1204"/>
      <component glyphName="breve" x="102" y="188" flags="0x1004"/>
    </TTGlyph>
    <TTGlyph name="Gcircumflex" xMin="31" yMin="6" xMax="572" yMax="1214">
      <component glyphName="G" x="0" y="0" flags="0x1204"/>
      <component glyphName="circumflex" x="-164" y="340" flags="0x1004"/>
    </TTGlyph>
    <TTGlyph name="Gcommaaccent" xMin="31" yMin="-441" xMax="572" yMax="888">
      <component glyphName="G" x="0" y="0" flags="0x1204"/>
      <component glyphName="commaaccent" x="84" y="0" flags="0x1004"/>
    </TTGlyph>
    <TTGlyph name="Gdotaccent" xMin="31" yMin="6" xMax="572" yMax="1043">
      <component glyphName="G" x="0" y="0" flags="0x1204"/>
      <component glyphName="dotaccent" x="214" y="245" flags="0x1004"/>
    </TTGlyph>
    <TTGlyph name="H" xMin="24" yMin="17" xMax="738" yMax="892">
      <contour>
        <pt x="442" y="486" on="1"/>
        <pt x="442" y="487" on="0"/>
        <pt x="429" y="487" on="0"/>
        <pt x="425" y="486" on="1"/>
        <pt x="390" y="473" on="0"/>
        <pt x="347" y="454" on="0"/>
        <pt x="317" y="440" on="0"/>
        <pt x="293" y="429" on="0"/>
        <pt x="263" y="418" on="0"/>
        <pt x="218" y="407" on="0"/>
        <pt x="182" y="399" on="1"/>
        <pt x="182" y="52" on="1"/>
        <pt x="182" y="34" on="0"/>
        <pt x="166" y="32" on="0"/>
        <pt x="147" y="49" on="0"/>
        <pt x="130" y="76" on="0"/>
        <pt x="130" y="87" on="1"/>
        <pt x="129" y="110" on="0"/>
        <pt x="125" y="175" on="0"/>
        <pt x="122" y="244" on="0"/>
        <pt x="118" y="312" on="0"/>
        <pt x="115" y="366" on="0"/>
        <pt x="114" y="382" on="1"/>
        <pt x="113" y="399" on="1"/>
        <pt x="26" y="434" on="1"/>
        <pt x="24" y="435" on="0"/>
        <pt x="24" y="447" on="0"/>
        <pt x="26" y="452" on="1"/>
        <pt x="31" y="462" on="0"/>
        <pt x="54" y="475" on="0"/>
        <pt x="80" y="482" on="0"/>
        <pt x="105" y="485" on="0"/>
        <pt x="113" y="486" on="1"/>
        <pt x="113" y="501" on="0"/>
        <pt x="117" y="575" on="0"/>
        <pt x="123" y="658" on="0"/>
        <pt x="128" y="732" on="0"/>
        <pt x="130" y="746" on="1"/>
        <pt x="130" y="749" on="0"/>
        <pt x="141" y="774" on="0"/>
        <pt x="156" y="804" on="0"/>
        <pt x="174" y="830" on="0"/>
        <pt x="189" y="840" on="0"/>
        <pt x="199" y="825" on="0"/>
        <pt x="199" y="799" on="1"/>
        <pt x="199" y="793" on="0"/>
        <pt x="194" y="752" on="0"/>
        <pt x="187" y="706" on="0"/>
        <pt x="182" y="665" on="0"/>
        <pt x="182" y="659" on="1"/>
        <pt x="181" y="648" on="0"/>
        <pt x="180" y="595" on="0"/>
        <pt x="180" y="534" on="0"/>
        <pt x="181" y="480" on="0"/>
        <pt x="182" y="469" on="1"/>
        <pt x="207" y="463" on="0"/>
        <pt x="289" y="471" on="0"/>
        <pt x="372" y="496" on="0"/>
        <pt x="444" y="533" on="0"/>
        <pt x="460" y="555" on="1"/>
        <pt x="479" y="583" on="0"/>
        <pt x="499" y="655" on="0"/>
        <pt x="515" y="730" on="0"/>
        <pt x="539" y="804" on="0"/>
        <pt x="563" y="834" on="1"/>
        <pt x="592" y="869" on="0"/>
        <pt x="649" y="895" on="0"/>
        <pt x="697" y="888" on="0"/>
        <pt x="732" y="853" on="0"/>
        <pt x="743" y="803" on="0"/>
        <pt x="728" y="742" on="0"/>
        <pt x="702" y="712" on="1"/>
        <pt x="695" y="704" on="0"/>
        <pt x="666" y="674" on="0"/>
        <pt x="629" y="636" on="0"/>
        <pt x="588" y="594" on="0"/>
        <pt x="550" y="557" on="0"/>
        <pt x="519" y="527" on="0"/>
        <pt x="512" y="520" on="1"/>
        <pt x="506" y="460" on="0"/>
        <pt x="510" y="330" on="0"/>
        <pt x="526" y="200" on="0"/>
        <pt x="550" y="74" on="0"/>
        <pt x="563" y="17" on="1"/>
        <pt x="495" y="17" on="1"/>
      </contour>
      <contour>
        <pt x="563" y="729" on="1"/>
        <pt x="561" y="722" on="0"/>
        <pt x="551" y="688" on="0"/>
        <pt x="540" y="649" on="0"/>
        <pt x="531" y="614" on="0"/>
        <pt x="529" y="607" on="1"/>
        <pt x="559" y="622" on="0"/>
        <pt x="610" y="676" on="0"/>
        <pt x="648" y="736" on="0"/>
        <pt x="673" y="794" on="0"/>
        <pt x="680" y="834" on="0"/>
        <pt x="668" y="848" on="0"/>
        <pt x="650" y="834" on="1"/>
        <pt x="624" y="812" on="0"/>
        <pt x="575" y="762" on="0"/>
      </contour>
    </TTGlyph>
    <TTGlyph name="Hcircumflex" xMin="24" yMin="17" xMax="738" yMax="1275">
      <component glyphName="H" x="0" y="0" flags="0x1204"/>
      <component glyphName="circumflex" x="-96" y="401" flags="0x1004"/>
    </TTGlyph>
    <TTGlyph name="I" xMin="8" yMin="-111" xMax="803" yMax="819">
      <contour>
        <pt x="8" y="-93" on="1"/>
        <pt x="4" y="-86" on="0"/>
        <pt x="12" y="-69" on="0"/>
        <pt x="25" y="-54" on="0"/>
        <pt x="40" y="-43" on="0"/>
        <pt x="43" y="-41" on="1"/>
        <pt x="303" y="62" on="1"/>
        <pt x="321" y="80" on="1"/>
        <pt x="320" y="97" on="0"/>
        <pt x="319" y="168" on="0"/>
        <pt x="319" y="212" on="1"/>
        <pt x="319" y="399" on="1"/>
        <pt x="319" y="444" on="0"/>
        <pt x="320" y="514" on="0"/>
        <pt x="321" y="531" on="1"/>
        <pt x="321" y="537" on="0"/>
        <pt x="326" y="567" on="0"/>
        <pt x="331" y="601" on="0"/>
        <pt x="336" y="630" on="0"/>
        <pt x="338" y="636" on="1"/>
        <pt x="113" y="636" on="1"/>
        <pt x="100" y="636" on="0"/>
        <pt x="93" y="650" on="0"/>
        <pt x="97" y="668" on="0"/>
        <pt x="108" y="685" on="0"/>
        <pt x="113" y="688" on="1"/>
        <pt x="235" y="679" on="0"/>
        <pt x="355" y="706" on="1"/>
        <pt x="376" y="754" on="0"/>
        <pt x="450" y="806" on="0"/>
        <pt x="540" y="824" on="0"/>
        <pt x="637" y="813" on="0"/>
        <pt x="722" y="785" on="0"/>
        <pt x="787" y="745" on="0"/>
        <pt x="813" y="704" on="0"/>
        <pt x="793" y="669" on="0"/>
        <pt x="708" y="650" on="0"/>
        <pt x="550" y="653" on="0"/>
        <pt x="425" y="671" on="1"/>
        <pt x="400" y="635" on="0"/>
        <pt x="373" y="543" on="0"/>
        <pt x="364" y="441" on="0"/>
        <pt x="369" y="334" on="0"/>
        <pt x="382" y="231" on="0"/>
        <pt x="400" y="136" on="0"/>
        <pt x="408" y="97" on="1"/>
        <pt x="438" y="91" on="0"/>
        <pt x="499" y="100" on="0"/>
        <pt x="560" y="120" on="0"/>
        <pt x="620" y="145" on="0"/>
        <pt x="681" y="165" on="0"/>
        <pt x="741" y="174" on="0"/>
        <pt x="772" y="167" on="1"/>
        <pt x="777" y="154" on="0"/>
        <pt x="771" y="120" on="0"/>
        <pt x="755" y="115" on="1"/>
        <pt x="674" y="100" on="0"/>
        <pt x="485" y="59" on="0"/>
        <pt x="290" y="3" on="0"/>
        <pt x="104" y="-67" on="0"/>
        <pt x="26" y="-111" on="1"/>
      </contour>
      <contour>
        <pt x="425" y="723" on="1"/>
        <pt x="537" y="702" on="0"/>
        <pt x="670" y="692" on="0"/>
        <pt x="732" y="701" on="0"/>
        <pt x="734" y="724" on="0"/>
        <pt x="694" y="748" on="0"/>
        <pt x="624" y="767" on="0"/>
        <pt x="542" y="770" on="0"/>
        <pt x="458" y="750" on="0"/>
      </contour>
    </TTGlyph>
    <TTGlyph name="Iacute" xMin="8" yMin="-111" xMax="803" yMax="1008">
      <component glyphName="I" x="0" y="0" flags="0x1204"/>
      <component glyphName="acute" x="314" y="247" flags="0x1004"/>
    </TTGlyph>
    <TTGlyph name="Ibreve" xMin="8" yMin="-111" xMax="803" yMax="1111">
      <component glyphName="I" x="0" y="0" flags="0x1204"/>
      <component glyphName="breve" x="206" y="188" flags="0x1004"/>
    </TTGlyph>
    <TTGlyph name="Icircumflex" xMin="8" yMin="-111" xMax="803" yMax="1156">
      <component glyphName="I" x="0" y="0" flags="0x1204"/>
      <component glyphName="circumflex" x="-26" y="282" flags="0x1004"/>
    </TTGlyph>
    <TTGlyph name="Idieresis" xMin="8" yMin="-111" xMax="803" yMax="1024">
      <component glyphName="I" x="0" y="0" flags="0x1204"/>
      <component glyphName="dieresis" x="134" y="390" flags="0x1004"/>
    </TTGlyph>
    <TTGlyph name="Idotaccent" xMin="8" yMin="-111" xMax="803" yMax="986">
      <component glyphName="I" x="0" y="0" flags="0x1204"/>
      <component glyphName="dotaccent" x="312" y="188" flags="0x1004"/>
    </TTGlyph>
    <TTGlyph name="Igrave" xMin="8" yMin="-111" xMax="803" yMax="1112">
      <component glyphName="I" x="0" y="0" flags="0x1204"/>
      <component glyphName="grave" x="358" y="337" flags="0x1004"/>
    </TTGlyph>
    <TTGlyph name="Iogonek" xMin="8" yMin="-111" xMax="803" yMax="819">
      <contour>
        <pt x="744" y="-80" on="1"/>
        <pt x="702" y="-90" on="0"/>
        <pt x="631" y="-70" on="0"/>
        <pt x="586" y="-25" on="0"/>
        <pt x="572" y="36" on="0"/>
        <pt x="585" y="66" on="1"/>
        <pt x="588" y="74" on="0"/>
        <pt x="594" y="82" on="1"/>
        <pt x="587" y="81" on="0"/>
        <pt x="579" y="79" on="1"/>
        <pt x="485" y="59" on="0"/>
        <pt x="290" y="3" on="0"/>
        <pt x="104" y="-67" on="0"/>
        <pt x="26" y="-111" on="1"/>
        <pt x="8" y="-93" on="1"/>
        <pt x="4" y="-86" on="0"/>
        <pt x="12" y="-69" on="0"/>
        <pt x="25" y="-54" on="0"/>
        <pt x="40" y="-43" on="0"/>
        <pt x="43" y="-41" on="1"/>
        <pt x="303" y="62" on="1"/>
        <pt x="321" y="80" on="1"/>
        <pt x="320" y="97" on="0"/>
        <pt x="319" y="168" on="0"/>
        <pt x="319" y="212" on="1"/>
        <pt x="319" y="399" on="1"/>
        <pt x="319" y="444" on="0"/>
        <pt x="320" y="514" on="0"/>
        <pt x="321" y="531" on="1"/>
        <pt x="321" y="537" on="0"/>
        <pt x="326" y="567" on="0"/>
        <pt x="331" y="601" on="0"/>
        <pt x="336" y="630" on="0"/>
        <pt x="338" y="636" on="1"/>
        <pt x="113" y="636" on="1"/>
        <pt x="100" y="636" on="0"/>
        <pt x="93" y="650" on="0"/>
        <pt x="97" y="668" on="0"/>
        <pt x="108" y="685" on="0"/>
        <pt x="113" y="688" on="1"/>
        <pt x="235" y="679" on="0"/>
        <pt x="355" y="706" on="1"/>
        <pt x="376" y="754" on="0"/>
        <pt x="450" y="806" on="0"/>
        <pt x="540" y="824" on="0"/>
        <pt x="637" y="813" on="0"/>
        <pt x="722" y="785" on="0"/>
        <pt x="787" y="745" on="0"/>
        <pt x="813" y="704" on="0"/>
        <pt x="793" y="669" on="0"/>
        <pt x="708" y="650" on="0"/>
        <pt x="550" y="653" on="0"/>
        <pt x="425" y="671" on="1"/>
        <pt x="400" y="635" on="0"/>
        <pt x="373" y="543" on="0"/>
        <pt x="364" y="441" on="0"/>
        <pt x="369" y="334" on="0"/>
        <pt x="382" y="231" on="0"/>
        <pt x="400" y="136" on="0"/>
        <pt x="408" y="97" on="1"/>
        <pt x="438" y="91" on="0"/>
        <pt x="499" y="100" on="0"/>
        <pt x="560" y="120" on="0"/>
        <pt x="620" y="145" on="0"/>
        <pt x="681" y="165" on="0"/>
        <pt x="741" y="174" on="0"/>
        <pt x="772" y="167" on="1"/>
        <pt x="777" y="154" on="0"/>
        <pt x="771" y="120" on="0"/>
        <pt x="755" y="115" on="1"/>
        <pt x="724" y="109" on="0"/>
        <pt x="691" y="103" on="1"/>
        <pt x="674" y="95" on="0"/>
        <pt x="662" y="85" on="1"/>
        <pt x="635" y="63" on="0"/>
        <pt x="623" y="13" on="0"/>
        <pt x="645" y="-32" on="0"/>
        <pt x="687" y="-49" on="0"/>
        <pt x="744" y="-28" on="0"/>
        <pt x="773" y="12" on="1"/>
        <pt x="795" y="-4" on="0"/>
        <pt x="802" y="-29" on="0"/>
        <pt x="787" y="-51" on="0"/>
        <pt x="758" y="-70" on="0"/>
      </contour>
      <contour>
        <pt x="425" y="723" on="1"/>
        <pt x="537" y="702" on="0"/>
        <pt x="670" y="692" on="0"/>
        <pt x="732" y="701" on="0"/>
        <pt x="734" y="724" on="0"/>
        <pt x="694" y="748" on="0"/>
        <pt x="624" y="767" on="0"/>
        <pt x="542" y="770" on="0"/>
        <pt x="458" y="750" on="0"/>
      </contour>
    </TTGlyph>
    <TTGlyph name="Itilde" xMin="8" yMin="-111" xMax="803" yMax="1080">
      <component glyphName="I" x="0" y="0" flags="0x1204"/>
      <component glyphName="tilde" x="16" y="188" flags="0x1004"/>
    </TTGlyph>
    <TTGlyph name="J" xMin="1" yMin="-179" xMax="678" yMax="835">
      <contour>
        <pt x="191" y="-155" on="1"/>
        <pt x="155" y="-131" on="0"/>
        <pt x="147" y="-33" on="0"/>
        <pt x="180" y="87" on="0"/>
        <pt x="241" y="218" on="0"/>
        <pt x="308" y="332" on="0"/>
        <pt x="368" y="419" on="0"/>
        <pt x="383" y="435" on="1"/>
        <pt x="384" y="439" on="0"/>
        <pt x="384" y="466" on="0"/>
        <pt x="383" y="470" on="1"/>
        <pt x="381" y="482" on="0"/>
        <pt x="372" y="541" on="0"/>
        <pt x="361" y="608" on="0"/>
        <pt x="350" y="667" on="0"/>
        <pt x="348" y="679" on="1"/>
        <pt x="343" y="688" on="0"/>
        <pt x="324" y="700" on="0"/>
        <pt x="313" y="695" on="1"/>
        <pt x="36" y="592" on="1"/>
        <pt x="24" y="587" on="0"/>
        <pt x="6" y="599" on="0"/>
        <pt x="-2" y="619" on="0"/>
        <pt x="5" y="639" on="0"/>
        <pt x="18" y="644" on="1"/>
        <pt x="591" y="835" on="1"/>
        <pt x="643" y="835" on="1"/>
        <pt x="650" y="814" on="0"/>
        <pt x="644" y="795" on="0"/>
        <pt x="627" y="787" on="0"/>
        <pt x="603" y="785" on="0"/>
        <pt x="591" y="782" on="1"/>
        <pt x="581" y="779" on="0"/>
        <pt x="532" y="765" on="0"/>
        <pt x="476" y="748" on="0"/>
        <pt x="427" y="733" on="0"/>
        <pt x="418" y="730" on="1"/>
        <pt x="412" y="673" on="0"/>
        <pt x="430" y="558" on="0"/>
        <pt x="453" y="505" on="1"/>
        <pt x="626" y="592" on="1"/>
        <pt x="640" y="599" on="0"/>
        <pt x="667" y="589" on="0"/>
        <pt x="680" y="569" on="0"/>
        <pt x="676" y="546" on="0"/>
        <pt x="660" y="540" on="1"/>
        <pt x="637" y="531" on="0"/>
        <pt x="574" y="512" on="0"/>
        <pt x="512" y="486" on="0"/>
        <pt x="462" y="448" on="0"/>
        <pt x="453" y="418" on="1"/>
        <pt x="449" y="408" on="0"/>
        <pt x="443" y="335" on="0"/>
        <pt x="434" y="231" on="0"/>
        <pt x="419" y="109" on="0"/>
        <pt x="395" y="-8" on="0"/>
        <pt x="359" y="-110" on="0"/>
        <pt x="307" y="-173" on="0"/>
        <pt x="237" y="-185" on="0"/>
      </contour>
      <contour>
        <pt x="226" y="-102" on="1"/>
        <pt x="240" y="-130" on="0"/>
        <pt x="274" y="-113" on="0"/>
        <pt x="309" y="-54" on="0"/>
        <pt x="341" y="33" on="0"/>
        <pt x="366" y="117" on="0"/>
        <pt x="382" y="183" on="0"/>
        <pt x="383" y="193" on="1"/>
        <pt x="384" y="202" on="0"/>
        <pt x="384" y="226" on="1"/>
        <pt x="384" y="331" on="1"/>
        <pt x="384" y="356" on="0"/>
        <pt x="383" y="366" on="1"/>
        <pt x="341" y="322" on="0"/>
        <pt x="276" y="209" on="0"/>
        <pt x="234" y="86" on="0"/>
        <pt x="218" y="-42" on="0"/>
      </contour>
    </TTGlyph>
    <TTGlyph name="Jcircumflex" xMin="1" yMin="-179" xMax="678" yMax="1206">
      <component glyphName="J" x="0" y="0" flags="0x1204"/>
      <component glyphName="circumflex" x="-150" y="332" flags="0x1004"/>
    </TTGlyph>
    <TTGlyph name="K" xMin="17" yMin="-9" xMax="612" yMax="922">
      <contour>
        <pt x="572" y="17" on="1"/>
        <pt x="567" y="46" on="0"/>
        <pt x="558" y="125" on="0"/>
        <pt x="543" y="211" on="0"/>
        <pt x="520" y="297" on="0"/>
        <pt x="481" y="370" on="0"/>
        <pt x="423" y="423" on="0"/>
        <pt x="382" y="434" on="1"/>
        <pt x="374" y="436" on="0"/>
        <pt x="351" y="438" on="0"/>
        <pt x="328" y="438" on="0"/>
        <pt x="312" y="436" on="0"/>
        <pt x="312" y="434" on="1"/>
        <pt x="278" y="122" on="1"/>
        <pt x="277" y="113" on="0"/>
        <pt x="268" y="95" on="0"/>
        <pt x="255" y="82" on="0"/>
        <pt x="236" y="79" on="0"/>
        <pt x="225" y="87" on="1"/>
        <pt x="225" y="445" on="1"/>
        <pt x="70" y="347" on="1"/>
        <pt x="58" y="340" on="0"/>
        <pt x="22" y="351" on="0"/>
        <pt x="17" y="365" on="1"/>
        <pt x="31" y="383" on="0"/>
        <pt x="98" y="427" on="0"/>
        <pt x="168" y="473" on="0"/>
        <pt x="223" y="518" on="0"/>
        <pt x="225" y="538" on="1"/>
        <pt x="260" y="902" on="1"/>
        <pt x="261" y="911" on="0"/>
        <pt x="275" y="920" on="0"/>
        <pt x="292" y="923" on="0"/>
        <pt x="309" y="921" on="0"/>
        <pt x="312" y="920" on="1"/>
        <pt x="312" y="590" on="1"/>
        <pt x="365" y="625" on="1"/>
        <pt x="572" y="885" on="1"/>
        <pt x="607" y="885" on="1"/>
        <pt x="613" y="862" on="0"/>
        <pt x="588" y="802" on="0"/>
        <pt x="549" y="746" on="0"/>
        <pt x="510" y="701" on="0"/>
        <pt x="504" y="694" on="1"/>
        <pt x="497" y="687" on="0"/>
        <pt x="467" y="659" on="0"/>
        <pt x="430" y="624" on="0"/>
        <pt x="388" y="587" on="0"/>
        <pt x="350" y="553" on="0"/>
        <pt x="320" y="526" on="0"/>
        <pt x="312" y="520" on="1"/>
        <pt x="358" y="508" on="0"/>
        <pt x="445" y="475" on="0"/>
        <pt x="486" y="452" on="1"/>
        <pt x="511" y="437" on="0"/>
        <pt x="550" y="372" on="0"/>
        <pt x="580" y="288" on="0"/>
        <pt x="600" y="194" on="0"/>
        <pt x="611" y="107" on="0"/>
        <pt x="612" y="34" on="0"/>
        <pt x="604" y="-8" on="0"/>
        <pt x="586" y="-10" on="0"/>
      </contour>
    </TTGlyph>
    <TTGlyph name="Kcommaaccent" xMin="17" yMin="-441" xMax="612" yMax="922">
      <component glyphName="K" x="0" y="0" flags="0x1204"/>
      <component glyphName="commaaccent" x="119" y="0" flags="0x1004"/>
    </TTGlyph>
    <TTGlyph name="L" xMin="17" yMin="17" xMax="615" yMax="746">
      <contour>
        <pt x="17" y="729" on="1"/>
        <pt x="17" y="732" on="0"/>
        <pt x="25" y="738" on="0"/>
        <pt x="36" y="744" on="0"/>
        <pt x="48" y="747" on="0"/>
        <pt x="52" y="746" on="1"/>
        <pt x="56" y="745" on="0"/>
        <pt x="68" y="736" on="0"/>
        <pt x="79" y="726" on="0"/>
        <pt x="87" y="715" on="0"/>
        <pt x="87" y="712" on="1"/>
        <pt x="87" y="157" on="1"/>
        <pt x="99" y="172" on="0"/>
        <pt x="156" y="183" on="0"/>
        <pt x="234" y="187" on="0"/>
        <pt x="327" y="188" on="0"/>
        <pt x="423" y="197" on="0"/>
        <pt x="516" y="220" on="0"/>
        <pt x="555" y="243" on="1"/>
        <pt x="592" y="265" on="0"/>
        <pt x="619" y="266" on="0"/>
        <pt x="611" y="240" on="0"/>
        <pt x="571" y="198" on="0"/>
        <pt x="512" y="156" on="0"/>
        <pt x="438" y="124" on="0"/>
        <pt x="399" y="122" on="1"/>
        <pt x="389" y="121" on="0"/>
        <pt x="349" y="121" on="0"/>
        <pt x="297" y="120" on="0"/>
        <pt x="241" y="121" on="0"/>
        <pt x="215" y="121" on="1"/>
        <pt x="169" y="121" on="1"/>
        <pt x="149" y="121" on="0"/>
        <pt x="139" y="122" on="1"/>
        <pt x="127" y="113" on="0"/>
        <pt x="102" y="70" on="0"/>
        <pt x="73" y="30" on="0"/>
        <pt x="39" y="6" on="0"/>
        <pt x="17" y="17" on="1"/>
      </contour>
    </TTGlyph>
    <TTGlyph name="Lacute" xMin="17" yMin="17" xMax="615" yMax="949">
      <component glyphName="L" x="0" y="0" flags="0x1204"/>
      <component glyphName="acute" x="232" y="188" flags="0x1004"/>
    </TTGlyph>
    <TTGlyph name="Lcaron" xMin="17" yMin="17" xMax="615" yMax="1019">
      <component glyphName="L" x="0" y="0" flags="0x1204"/>
      <component glyphName="quoteright" x="253" y="-75" flags="0x1004"/>
    </TTGlyph>
    <TTGlyph name="Lcommaaccent" xMin="17" yMin="-441" xMax="615" yMax="746">
      <component glyphName="L" x="0" y="0" flags="0x1204"/>
      <component glyphName="commaaccent" x="110" y="0" flags="0x1004"/>
    </TTGlyph>
    <TTGlyph name="Ldot" xMin="17" yMin="17" xMax="615" yMax="746">
      <component glyphName="L" x="0" y="0" flags="0x1204"/>
      <component glyphName="periodcentered" x="236" y="0" flags="0x1004"/>
    </TTGlyph>
    <TTGlyph name="Lslash" xMin="-22" yMin="17" xMax="685" yMax="746">
      <contour>
        <pt x="-21" y="345" on="1"/>
        <pt x="-25" y="353" on="0"/>
        <pt x="-19" y="365" on="0"/>
        <pt x="-7" y="374" on="0"/>
        <pt x="8" y="378" on="0"/>
        <pt x="14" y="379" on="1"/>
        <pt x="27" y="382" on="0"/>
        <pt x="55" y="387" on="1"/>
        <pt x="70" y="390" on="0"/>
        <pt x="87" y="393" on="1"/>
        <pt x="87" y="729" on="1"/>
        <pt x="87" y="732" on="0"/>
        <pt x="95" y="738" on="0"/>
        <pt x="106" y="744" on="0"/>
        <pt x="118" y="747" on="0"/>
        <pt x="122" y="746" on="1"/>
        <pt x="126" y="745" on="0"/>
        <pt x="138" y="736" on="0"/>
        <pt x="149" y="726" on="0"/>
        <pt x="157" y="715" on="0"/>
        <pt x="157" y="712" on="1"/>
        <pt x="157" y="407" on="1"/>
        <pt x="175" y="410" on="0"/>
        <pt x="195" y="414" on="1"/>
        <pt x="235" y="422" on="0"/>
        <pt x="308" y="436" on="0"/>
        <pt x="365" y="446" on="0"/>
        <pt x="379" y="449" on="1"/>
        <pt x="402" y="453" on="0"/>
        <pt x="414" y="437" on="0"/>
        <pt x="407" y="411" on="0"/>
        <pt x="388" y="385" on="0"/>
        <pt x="379" y="379" on="1"/>
        <pt x="350" y="383" on="0"/>
        <pt x="271" y="373" on="0"/>
        <pt x="229" y="364" on="1"/>
        <pt x="193" y="357" on="0"/>
        <pt x="157" y="348" on="1"/>
        <pt x="157" y="157" on="1"/>
        <pt x="169" y="172" on="0"/>
        <pt x="226" y="183" on="0"/>
        <pt x="304" y="187" on="0"/>
        <pt x="397" y="188" on="0"/>
        <pt x="493" y="197" on="0"/>
        <pt x="586" y="220" on="0"/>
        <pt x="625" y="243" on="1"/>
        <pt x="662" y="265" on="0"/>
        <pt x="689" y="266" on="0"/>
        <pt x="681" y="240" on="0"/>
        <pt x="641" y="198" on="0"/>
        <pt x="582" y="156" on="0"/>
        <pt x="508" y="124" on="0"/>
        <pt x="469" y="122" on="1"/>
        <pt x="459" y="121" on="0"/>
        <pt x="419" y="121" on="0"/>
        <pt x="367" y="120" on="0"/>
        <pt x="311" y="121" on="0"/>
        <pt x="285" y="121" on="1"/>
        <pt x="239" y="121" on="1"/>
        <pt x="219" y="121" on="0"/>
        <pt x="209" y="122" on="1"/>
        <pt x="197" y="113" on="0"/>
        <pt x="172" y="70" on="0"/>
        <pt x="143" y="30" on="0"/>
        <pt x="109" y="6" on="0"/>
        <pt x="87" y="17" on="1"/>
        <pt x="87" y="333" on="1"/>
        <pt x="69" y="331" on="1"/>
        <pt x="35" y="326" on="0"/>
        <pt x="-14" y="330" on="0"/>
      </contour>
    </TTGlyph>
    <TTGlyph name="M" xMin="26" yMin="6" xMax="965" yMax="890">
      <contour>
        <pt x="807" y="17" on="1"/>
        <pt x="773" y="30" on="0"/>
        <pt x="726" y="87" on="0"/>
        <pt x="693" y="156" on="0"/>
        <pt x="674" y="230" on="0"/>
        <pt x="668" y="260" on="1"/>
        <pt x="665" y="276" on="0"/>
        <pt x="656" y="345" on="0"/>
        <pt x="645" y="430" on="0"/>
        <pt x="634" y="525" on="0"/>
        <pt x="629" y="567" on="1"/>
        <pt x="620" y="644" on="1"/>
        <pt x="616" y="678" on="0"/>
        <pt x="615" y="694" on="1"/>
        <pt x="495" y="208" on="1"/>
        <pt x="489" y="197" on="1"/>
        <pt x="485" y="188" on="0"/>
        <pt x="470" y="167" on="0"/>
        <pt x="452" y="147" on="0"/>
        <pt x="433" y="138" on="0"/>
        <pt x="415" y="142" on="0"/>
        <pt x="408" y="157" on="1"/>
        <pt x="147" y="677" on="1"/>
        <pt x="78" y="157" on="1"/>
        <pt x="76" y="143" on="0"/>
        <pt x="58" y="136" on="0"/>
        <pt x="39" y="143" on="0"/>
        <pt x="24" y="161" on="0"/>
        <pt x="26" y="173" on="1"/>
        <pt x="113" y="816" on="1"/>
        <pt x="113" y="820" on="0"/>
        <pt x="127" y="832" on="0"/>
        <pt x="145" y="840" on="0"/>
        <pt x="162" y="841" on="0"/>
        <pt x="165" y="834" on="1"/>
        <pt x="438" y="227" on="1"/>
        <pt x="598" y="834" on="1"/>
        <pt x="599" y="837" on="0"/>
        <pt x="619" y="862" on="0"/>
        <pt x="643" y="884" on="0"/>
        <pt x="665" y="895" on="0"/>
        <pt x="668" y="885" on="1"/>
        <pt x="685" y="816" on="1"/>
        <pt x="688" y="748" on="0"/>
        <pt x="692" y="568" on="0"/>
        <pt x="710" y="378" on="0"/>
        <pt x="750" y="194" on="0"/>
        <pt x="790" y="122" on="1"/>
        <pt x="793" y="117" on="0"/>
        <pt x="807" y="100" on="0"/>
        <pt x="823" y="84" on="0"/>
        <pt x="839" y="71" on="0"/>
        <pt x="842" y="70" on="1"/>
        <pt x="852" y="66" on="0"/>
        <pt x="886" y="72" on="0"/>
        <pt x="922" y="75" on="0"/>
        <pt x="955" y="68" on="0"/>
        <pt x="963" y="52" on="1"/>
        <pt x="971" y="36" on="0"/>
        <pt x="958" y="17" on="0"/>
        <pt x="928" y="7" on="0"/>
        <pt x="888" y="5" on="0"/>
        <pt x="848" y="8" on="0"/>
        <pt x="814" y="14" on="0"/>
      </contour>
    </TTGlyph>
    <TTGlyph name="N" xMin="16" yMin="-2" xMax="572" yMax="902">
      <contour>
        <pt x="35" y="17" on="1"/>
        <pt x="21" y="169" on="0"/>
        <pt x="12" y="473" on="0"/>
        <pt x="17" y="625" on="1"/>
        <pt x="19" y="630" on="0"/>
        <pt x="32" y="657" on="0"/>
        <pt x="51" y="680" on="0"/>
        <pt x="75" y="689" on="0"/>
        <pt x="87" y="677" on="1"/>
        <pt x="174" y="590" on="1"/>
        <pt x="417" y="190" on="1"/>
        <pt x="422" y="183" on="1"/>
        <pt x="428" y="176" on="0"/>
        <pt x="444" y="161" on="0"/>
        <pt x="461" y="152" on="0"/>
        <pt x="469" y="157" on="1"/>
        <pt x="468" y="173" on="0"/>
        <pt x="462" y="241" on="0"/>
        <pt x="455" y="326" on="0"/>
        <pt x="447" y="420" on="0"/>
        <pt x="440" y="506" on="0"/>
        <pt x="435" y="574" on="0"/>
        <pt x="434" y="590" on="1"/>
        <pt x="433" y="603" on="0"/>
        <pt x="433" y="664" on="0"/>
        <pt x="440" y="740" on="0"/>
        <pt x="455" y="820" on="0"/>
        <pt x="483" y="881" on="0"/>
        <pt x="525" y="912" on="0"/>
        <pt x="555" y="902" on="1"/>
        <pt x="559" y="902" on="0"/>
        <pt x="572" y="889" on="0"/>
        <pt x="572" y="885" on="1"/>
        <pt x="565" y="876" on="0"/>
        <pt x="545" y="851" on="0"/>
        <pt x="526" y="823" on="0"/>
        <pt x="508" y="794" on="0"/>
        <pt x="504" y="781" on="1"/>
        <pt x="503" y="768" on="0"/>
        <pt x="503" y="714" on="0"/>
        <pt x="502" y="645" on="0"/>
        <pt x="503" y="570" on="0"/>
        <pt x="503" y="535" on="1"/>
        <pt x="503" y="474" on="1"/>
        <pt x="503" y="447" on="0"/>
        <pt x="504" y="434" on="1"/>
        <pt x="504" y="426" on="0"/>
        <pt x="509" y="365" on="0"/>
        <pt x="515" y="295" on="0"/>
        <pt x="521" y="233" on="0"/>
        <pt x="521" y="225" on="1"/>
        <pt x="521" y="215" on="0"/>
        <pt x="522" y="173" on="0"/>
        <pt x="522" y="129" on="0"/>
        <pt x="521" y="92" on="0"/>
        <pt x="521" y="87" on="1"/>
        <pt x="520" y="82" on="0"/>
        <pt x="512" y="62" on="0"/>
        <pt x="498" y="46" on="0"/>
        <pt x="480" y="41" on="0"/>
        <pt x="469" y="52" on="1"/>
        <pt x="347" y="173" on="1"/>
        <pt x="122" y="538" on="1"/>
        <pt x="95" y="555" on="1"/>
        <pt x="95" y="17" on="1"/>
        <pt x="95" y="3" on="0"/>
        <pt x="78" y="-4" on="0"/>
        <pt x="57" y="1" on="0"/>
        <pt x="37" y="12" on="0"/>
      </contour>
    </TTGlyph>
    <TTGlyph name="Nacute" xMin="16" yMin="-2" xMax="572" yMax="949">
      <component glyphName="N" x="0" y="0" flags="0x1204"/>
      <component glyphName="acute" x="206" y="188" flags="0x1004"/>
    </TTGlyph>
    <TTGlyph name="Ncaron" xMin="16" yMin="-2" xMax="572" yMax="991">
      <component glyphName="N" x="0" y="0" flags="0x1204"/>
      <component glyphName="caron" x="-151" y="188" flags="0x1004"/>
    </TTGlyph>
    <TTGlyph name="Ncommaaccent" xMin="16" yMin="-441" xMax="572" yMax="902">
      <component glyphName="N" x="0" y="0" flags="0x1204"/>
      <component glyphName="commaaccent" x="84" y="0" flags="0x1004"/>
    </TTGlyph>
    <TTGlyph name="Ntilde" xMin="5" yMin="-2" xMax="572" yMax="1104">
      <component glyphName="N" x="0" y="0" flags="0x1204"/>
      <component glyphName="tilde" x="-86" y="212" flags="0x1004"/>
    </TTGlyph>
    <TTGlyph name="O" xMin="26" yMin="-4" xMax="446" yMax="813">
      <contour>
        <pt x="95" y="35" on="1"/>
        <pt x="45" y="85" on="0"/>
        <pt x="20" y="207" on="0"/>
        <pt x="33" y="336" on="0"/>
        <pt x="68" y="464" on="0"/>
        <pt x="78" y="520" on="1"/>
        <pt x="82" y="542" on="0"/>
        <pt x="86" y="604" on="0"/>
        <pt x="92" y="672" on="0"/>
        <pt x="102" y="738" on="0"/>
        <pt x="113" y="764" on="1"/>
        <pt x="114" y="766" on="0"/>
        <pt x="126" y="779" on="0"/>
        <pt x="130" y="781" on="1"/>
        <pt x="199" y="822" on="0"/>
        <pt x="309" y="803" on="0"/>
        <pt x="389" y="714" on="0"/>
        <pt x="438" y="571" on="0"/>
        <pt x="454" y="408" on="0"/>
        <pt x="437" y="241" on="0"/>
        <pt x="385" y="102" on="0"/>
        <pt x="296" y="8" on="0"/>
        <pt x="233" y="0" on="1"/>
        <pt x="209" y="-3" on="0"/>
        <pt x="173" y="-5" on="0"/>
        <pt x="141" y="1" on="0"/>
        <pt x="112" y="18" on="0"/>
      </contour>
      <contour>
        <pt x="147" y="70" on="1"/>
        <pt x="197" y="36" on="0"/>
        <pt x="274" y="45" on="0"/>
        <pt x="330" y="107" on="0"/>
        <pt x="366" y="211" on="0"/>
        <pt x="385" y="334" on="0"/>
        <pt x="387" y="466" on="0"/>
        <pt x="377" y="582" on="0"/>
        <pt x="354" y="673" on="0"/>
        <pt x="338" y="694" on="1"/>
        <pt x="301" y="743" on="0"/>
        <pt x="246" y="775" on="0"/>
        <pt x="205" y="762" on="0"/>
        <pt x="178" y="711" on="0"/>
        <pt x="163" y="640" on="0"/>
        <pt x="158" y="559" on="0"/>
        <pt x="162" y="486" on="0"/>
        <pt x="174" y="428" on="0"/>
        <pt x="182" y="417" on="1"/>
        <pt x="185" y="413" on="0"/>
        <pt x="209" y="395" on="0"/>
        <pt x="239" y="372" on="0"/>
        <pt x="268" y="344" on="0"/>
        <pt x="285" y="315" on="0"/>
        <pt x="284" y="289" on="0"/>
        <pt x="268" y="278" on="1"/>
        <pt x="255" y="269" on="0"/>
        <pt x="224" y="277" on="0"/>
        <pt x="192" y="299" on="0"/>
        <pt x="162" y="333" on="0"/>
        <pt x="136" y="365" on="0"/>
        <pt x="117" y="393" on="0"/>
        <pt x="113" y="399" on="1"/>
        <pt x="95" y="365" on="1"/>
        <pt x="95" y="157" on="1"/>
        <pt x="95" y="151" on="0"/>
        <pt x="105" y="127" on="0"/>
        <pt x="120" y="100" on="0"/>
        <pt x="138" y="76" on="0"/>
      </contour>
    </TTGlyph>
    <TTGlyph name="OE" xMin="32" yMin="-12" xMax="772" yMax="817">
      <contour>
        <pt x="102" y="27" on="1"/>
        <pt x="69" y="60" on="0"/>
        <pt x="37" y="137" on="0"/>
        <pt x="28" y="220" on="0"/>
        <pt x="39" y="306" on="0"/>
        <pt x="57" y="392" on="0"/>
        <pt x="78" y="474" on="0"/>
        <pt x="85" y="512" on="1"/>
        <pt x="89" y="534" on="0"/>
        <pt x="93" y="596" on="0"/>
        <pt x="99" y="664" on="0"/>
        <pt x="109" y="730" on="0"/>
        <pt x="120" y="756" on="1"/>
        <pt x="121" y="758" on="0"/>
        <pt x="133" y="771" on="0"/>
        <pt x="137" y="773" on="1"/>
        <pt x="186" y="812" on="0"/>
        <pt x="267" y="821" on="0"/>
        <pt x="330" y="777" on="0"/>
        <pt x="377" y="688" on="0"/>
        <pt x="391" y="631" on="1"/>
        <pt x="391" y="668" on="1"/>
        <pt x="391" y="686" on="0"/>
        <pt x="390" y="694" on="1"/>
        <pt x="408" y="712" on="1"/>
        <pt x="720" y="816" on="1"/>
        <pt x="755" y="816" on="1"/>
        <pt x="760" y="802" on="0"/>
        <pt x="753" y="770" on="0"/>
        <pt x="737" y="764" on="1"/>
        <pt x="477" y="659" on="1"/>
        <pt x="460" y="642" on="1"/>
        <pt x="459" y="641" on="0"/>
        <pt x="454" y="601" on="0"/>
        <pt x="448" y="546" on="0"/>
        <pt x="443" y="488" on="0"/>
        <pt x="442" y="469" on="1"/>
        <pt x="442" y="464" on="0"/>
        <pt x="441" y="439" on="0"/>
        <pt x="441" y="412" on="0"/>
        <pt x="442" y="387" on="0"/>
        <pt x="442" y="382" on="1"/>
        <pt x="737" y="538" on="1"/>
        <pt x="744" y="542" on="0"/>
        <pt x="751" y="530" on="0"/>
        <pt x="751" y="510" on="0"/>
        <pt x="744" y="490" on="0"/>
        <pt x="737" y="486" on="1"/>
        <pt x="720" y="475" on="0"/>
        <pt x="671" y="447" on="0"/>
        <pt x="618" y="416" on="0"/>
        <pt x="565" y="386" on="0"/>
        <pt x="523" y="362" on="0"/>
        <pt x="496" y="347" on="0"/>
        <pt x="495" y="347" on="1"/>
        <pt x="425" y="347" on="1"/>
        <pt x="425" y="122" on="1"/>
        <pt x="425" y="76" on="0"/>
        <pt x="466" y="50" on="0"/>
        <pt x="528" y="65" on="0"/>
        <pt x="602" y="109" on="0"/>
        <pt x="668" y="159" on="0"/>
        <pt x="715" y="202" on="0"/>
        <pt x="720" y="208" on="1"/>
        <pt x="724" y="233" on="0"/>
        <pt x="731" y="249" on="1"/>
        <pt x="737" y="263" on="0"/>
        <pt x="757" y="275" on="0"/>
        <pt x="772" y="260" on="1"/>
        <pt x="778" y="229" on="0"/>
        <pt x="747" y="157" on="0"/>
        <pt x="689" y="89" on="0"/>
        <pt x="610" y="32" on="0"/>
        <pt x="529" y="-1" on="0"/>
        <pt x="453" y="-4" on="0"/>
        <pt x="425" y="17" on="1"/>
        <pt x="396" y="39" on="0"/>
        <pt x="368" y="95" on="0"/>
        <pt x="361" y="127" on="1"/>
        <pt x="340" y="76" on="0"/>
        <pt x="280" y="6" on="0"/>
        <pt x="241" y="-8" on="1"/>
        <pt x="217" y="-11" on="0"/>
        <pt x="180" y="-13" on="0"/>
        <pt x="149" y="-7" on="0"/>
        <pt x="119" y="10" on="0"/>
      </contour>
      <contour>
        <pt x="155" y="61" on="1"/>
        <pt x="195" y="24" on="0"/>
        <pt x="257" y="28" on="0"/>
        <pt x="302" y="87" on="0"/>
        <pt x="332" y="189" on="0"/>
        <pt x="350" y="312" on="0"/>
        <pt x="357" y="445" on="0"/>
        <pt x="356" y="565" on="0"/>
        <pt x="350" y="661" on="0"/>
        <pt x="345" y="686" on="1"/>
        <pt x="309" y="735" on="0"/>
        <pt x="253" y="767" on="0"/>
        <pt x="212" y="754" on="0"/>
        <pt x="185" y="703" on="0"/>
        <pt x="170" y="632" on="0"/>
        <pt x="166" y="551" on="0"/>
        <pt x="169" y="478" on="0"/>
        <pt x="181" y="420" on="0"/>
        <pt x="189" y="409" on="1"/>
        <pt x="192" y="405" on="0"/>
        <pt x="216" y="387" on="0"/>
        <pt x="246" y="363" on="0"/>
        <pt x="275" y="335" on="0"/>
        <pt x="292" y="307" on="0"/>
        <pt x="291" y="280" on="0"/>
        <pt x="275" y="269" on="1"/>
        <pt x="262" y="260" on="0"/>
        <pt x="231" y="268" on="0"/>
        <pt x="199" y="291" on="0"/>
        <pt x="169" y="324" on="0"/>
        <pt x="143" y="357" on="0"/>
        <pt x="124" y="385" on="0"/>
        <pt x="120" y="391" on="1"/>
        <pt x="102" y="356" on="1"/>
        <pt x="102" y="148" on="1"/>
        <pt x="102" y="143" on="0"/>
        <pt x="112" y="119" on="0"/>
        <pt x="127" y="92" on="0"/>
        <pt x="146" y="67" on="0"/>
      </contour>
    </TTGlyph>
    <TTGlyph name="Oacute" xMin="26" yMin="-4" xMax="446" yMax="973">
      <component glyphName="O" x="0" y="0" flags="0x1204"/>
      <component glyphName="acute" x="149" y="212" flags="0x1004"/>
    </TTGlyph>
    <TTGlyph name="Obreve" xMin="26" yMin="-4" xMax="446" yMax="1111">
      <component glyphName="O" x="0" y="0" flags="0x1204"/>
      <component glyphName="breve" x="41" y="188" flags="0x1004"/>
    </TTGlyph>
    <TTGlyph name="Ocircumflex" xMin="19" yMin="-4" xMax="499" yMax="1086">
      <component glyphName="O" x="0" y="0" flags="0x1204"/>
      <component glyphName="circumflex" x="-232" y="212" flags="0x1004"/>
    </TTGlyph>
    <TTGlyph name="Odieresis" xMin="26" yMin="-4" xMax="446" yMax="943">
      <component glyphName="O" x="0" y="0" flags="0x1204"/>
      <component glyphName="dieresis" x="-56" y="309" flags="0x1004"/>
    </TTGlyph>
    <TTGlyph name="Ograve" xMin="26" yMin="-4" xMax="446" yMax="987">
      <component glyphName="O" x="0" y="0" flags="0x1204"/>
      <component glyphName="grave" x="178" y="212" flags="0x1004"/>
    </TTGlyph>
    <TTGlyph name="Ohungarumlaut" xMin="26" yMin="-4" xMax="446" yMax="1145">
      <component glyphName="O" x="0" y="0" flags="0x1204"/>
      <component glyphName="hungarumlaut" x="57" y="266" flags="0x1004"/>
    </TTGlyph>
    <TTGlyph name="Omacron" xMin="15" yMin="-4" xMax="448" yMax="1057">
      <component glyphName="O" x="0" y="0" flags="0x1204"/>
      <component glyphName="macron" x="0" y="339" flags="0x1004"/>
    </TTGlyph>
    <TTGlyph name="Oslash" xMin="26" yMin="-96" xMax="509" yMax="841">
      <contour>
        <pt x="40" y="-61" on="1"/>
        <pt x="38" y="-59" on="0"/>
        <pt x="38" y="-46" on="0"/>
        <pt x="40" y="-44" on="1"/>
        <pt x="49" y="-6" on="1"/>
        <pt x="56" y="20" on="0"/>
        <pt x="64" y="52" on="1"/>
        <pt x="68" y="66" on="1"/>
        <pt x="41" y="103" on="0"/>
        <pt x="32" y="146" on="1"/>
        <pt x="20" y="207" on="0"/>
        <pt x="33" y="336" on="0"/>
        <pt x="68" y="464" on="0"/>
        <pt x="78" y="520" on="1"/>
        <pt x="82" y="542" on="0"/>
        <pt x="86" y="604" on="0"/>
        <pt x="92" y="672" on="0"/>
        <pt x="102" y="738" on="0"/>
        <pt x="113" y="764" on="1"/>
        <pt x="114" y="766" on="0"/>
        <pt x="126" y="779" on="0"/>
        <pt x="130" y="781" on="1"/>
        <pt x="199" y="822" on="0"/>
        <pt x="309" y="803" on="0"/>
        <pt x="349" y="758" on="1"/>
        <pt x="358" y="748" on="0"/>
        <pt x="366" y="737" on="1"/>
        <pt x="373" y="744" on="0"/>
        <pt x="381" y="754" on="1"/>
        <pt x="400" y="775" on="0"/>
        <pt x="439" y="813" on="0"/>
        <pt x="470" y="841" on="0"/>
        <pt x="474" y="841" on="1"/>
        <pt x="509" y="841" on="1"/>
        <pt x="509" y="806" on="1"/>
        <pt x="500" y="797" on="0"/>
        <pt x="455" y="748" on="0"/>
        <pt x="430" y="720" on="1"/>
        <pt x="413" y="701" on="0"/>
        <pt x="397" y="684" on="1"/>
        <pt x="406" y="664" on="0"/>
        <pt x="413" y="642" on="1"/>
        <pt x="438" y="571" on="0"/>
        <pt x="454" y="408" on="0"/>
        <pt x="437" y="241" on="0"/>
        <pt x="385" y="102" on="0"/>
        <pt x="296" y="8" on="0"/>
        <pt x="233" y="0" on="1"/>
        <pt x="209" y="-3" on="0"/>
        <pt x="173" y="-5" on="0"/>
        <pt x="141" y="1" on="0"/>
        <pt x="126" y="9" on="1"/>
        <pt x="122" y="12" on="0"/>
        <pt x="117" y="15" on="1"/>
        <pt x="117" y="9" on="1"/>
        <pt x="117" y="-22" on="0"/>
        <pt x="102" y="-78" on="0"/>
        <pt x="75" y="-96" on="1"/>
        <pt x="73" y="-95" on="0"/>
        <pt x="62" y="-85" on="0"/>
        <pt x="51" y="-74" on="0"/>
        <pt x="41" y="-63" on="0"/>
      </contour>
      <contour>
        <pt x="147" y="70" on="1"/>
        <pt x="197" y="36" on="0"/>
        <pt x="274" y="45" on="0"/>
        <pt x="330" y="107" on="0"/>
        <pt x="366" y="211" on="0"/>
        <pt x="385" y="334" on="0"/>
        <pt x="387" y="466" on="0"/>
        <pt x="377" y="582" on="0"/>
        <pt x="365" y="627" on="1"/>
        <pt x="363" y="636" on="0"/>
        <pt x="361" y="643" on="1"/>
        <pt x="356" y="637" on="0"/>
        <pt x="353" y="633" on="1"/>
        <pt x="350" y="630" on="0"/>
        <pt x="340" y="616" on="0"/>
        <pt x="329" y="599" on="0"/>
        <pt x="319" y="584" on="0"/>
        <pt x="318" y="581" on="1"/>
        <pt x="311" y="564" on="0"/>
        <pt x="280" y="494" on="0"/>
        <pt x="261" y="449" on="1"/>
        <pt x="246" y="415" on="0"/>
        <pt x="230" y="378" on="1"/>
        <pt x="242" y="369" on="0"/>
        <pt x="253" y="358" on="1"/>
        <pt x="268" y="344" on="0"/>
        <pt x="285" y="315" on="0"/>
        <pt x="284" y="289" on="0"/>
        <pt x="268" y="278" on="1"/>
        <pt x="255" y="269" on="0"/>
        <pt x="224" y="277" on="0"/>
        <pt x="208" y="288" on="1"/>
        <pt x="196" y="296" on="1"/>
        <pt x="182" y="262" on="1"/>
        <pt x="163" y="217" on="0"/>
        <pt x="134" y="146" on="0"/>
        <pt x="127" y="129" on="1"/>
        <pt x="121" y="116" on="0"/>
        <pt x="119" y="102" on="1"/>
        <pt x="129" y="88" on="1"/>
        <pt x="138" y="76" on="0"/>
      </contour>
      <contour>
        <pt x="273" y="759" on="1"/>
        <pt x="246" y="775" on="0"/>
        <pt x="205" y="762" on="0"/>
        <pt x="178" y="711" on="0"/>
        <pt x="163" y="640" on="0"/>
        <pt x="158" y="559" on="0"/>
        <pt x="162" y="486" on="0"/>
        <pt x="168" y="457" on="1"/>
        <pt x="173" y="433" on="0"/>
        <pt x="179" y="421" on="1"/>
        <pt x="199" y="467" on="0"/>
        <pt x="223" y="512" on="1"/>
        <pt x="253" y="568" on="0"/>
        <pt x="286" y="620" on="1"/>
        <pt x="311" y="660" on="0"/>
        <pt x="336" y="696" on="1"/>
        <pt x="300" y="743" on="0"/>
      </contour>
      <contour>
        <pt x="126" y="379" on="1"/>
        <pt x="117" y="393" on="0"/>
        <pt x="113" y="399" on="1"/>
        <pt x="95" y="365" on="1"/>
        <pt x="95" y="171" on="1"/>
        <pt x="100" y="189" on="1"/>
        <pt x="109" y="222" on="0"/>
        <pt x="123" y="274" on="0"/>
        <pt x="127" y="286" on="1"/>
        <pt x="137" y="317" on="0"/>
        <pt x="149" y="349" on="1"/>
        <pt x="136" y="365" on="0"/>
      </contour>
    </TTGlyph>
    <TTGlyph name="Oslashacute" xMin="4" yMin="-4" xMax="475" yMax="1041">
      <contour>
        <pt x="6" y="35" on="1"/>
        <pt x="4" y="37" on="0"/>
        <pt x="4" y="50" on="0"/>
        <pt x="6" y="52" on="1"/>
        <pt x="15" y="90" on="1"/>
        <pt x="22" y="116" on="0"/>
        <pt x="30" y="148" on="1"/>
        <pt x="31" y="150" on="0"/>
        <pt x="31" y="152" on="1"/>
        <pt x="20" y="210" on="0"/>
        <pt x="26" y="271" on="1"/>
        <pt x="33" y="336" on="0"/>
        <pt x="68" y="464" on="0"/>
        <pt x="78" y="520" on="1"/>
        <pt x="82" y="542" on="0"/>
        <pt x="86" y="604" on="0"/>
        <pt x="92" y="672" on="0"/>
        <pt x="102" y="738" on="0"/>
        <pt x="113" y="764" on="1"/>
        <pt x="114" y="766" on="0"/>
        <pt x="126" y="779" on="0"/>
        <pt x="130" y="781" on="1"/>
        <pt x="199" y="822" on="0"/>
        <pt x="254" y="812" on="1"/>
        <pt x="281" y="808" on="0"/>
        <pt x="304" y="795" on="1"/>
        <pt x="319" y="816" on="1"/>
        <pt x="329" y="829" on="0"/>
        <pt x="366" y="871" on="0"/>
        <pt x="405" y="909" on="0"/>
        <pt x="436" y="937" on="0"/>
        <pt x="440" y="937" on="1"/>
        <pt x="475" y="937" on="1"/>
        <pt x="475" y="902" on="1"/>
        <pt x="466" y="893" on="0"/>
        <pt x="421" y="844" on="0"/>
        <pt x="371" y="789" on="0"/>
        <pt x="349" y="764" on="1"/>
        <pt x="348" y="762" on="0"/>
        <pt x="346" y="761" on="1"/>
        <pt x="349" y="758" on="1"/>
        <pt x="389" y="714" on="0"/>
        <pt x="438" y="571" on="0"/>
        <pt x="454" y="408" on="0"/>
        <pt x="437" y="241" on="0"/>
        <pt x="385" y="102" on="0"/>
        <pt x="296" y="8" on="0"/>
        <pt x="233" y="0" on="1"/>
        <pt x="209" y="-3" on="0"/>
        <pt x="173" y="-5" on="0"/>
        <pt x="141" y="1" on="0"/>
        <pt x="112" y="18" on="0"/>
        <pt x="95" y="35" on="1"/>
        <pt x="85" y="44" on="0"/>
        <pt x="77" y="53" on="1"/>
        <pt x="76" y="49" on="0"/>
        <pt x="75" y="46" on="1"/>
        <pt x="68" y="18" on="0"/>
        <pt x="41" y="0" on="1"/>
        <pt x="39" y="1" on="0"/>
        <pt x="28" y="11" on="0"/>
        <pt x="17" y="22" on="0"/>
        <pt x="7" y="33" on="0"/>
      </contour>
      <contour>
        <pt x="147" y="70" on="1"/>
        <pt x="197" y="36" on="0"/>
        <pt x="274" y="45" on="0"/>
        <pt x="330" y="107" on="0"/>
        <pt x="366" y="211" on="0"/>
        <pt x="385" y="334" on="0"/>
        <pt x="387" y="466" on="0"/>
        <pt x="377" y="582" on="0"/>
        <pt x="354" y="673" on="0"/>
        <pt x="338" y="694" on="1"/>
        <pt x="325" y="710" on="0"/>
        <pt x="314" y="723" on="1"/>
        <pt x="313" y="721" on="0"/>
        <pt x="311" y="719" on="1"/>
        <pt x="306" y="712" on="0"/>
        <pt x="295" y="695" on="0"/>
        <pt x="285" y="680" on="0"/>
        <pt x="284" y="677" on="1"/>
        <pt x="277" y="660" on="0"/>
        <pt x="246" y="590" on="0"/>
        <pt x="208" y="501" on="0"/>
        <pt x="187" y="452" on="1"/>
        <pt x="182" y="439" on="0"/>
        <pt x="176" y="426" on="1"/>
        <pt x="179" y="420" on="0"/>
        <pt x="182" y="417" on="1"/>
        <pt x="185" y="413" on="0"/>
        <pt x="209" y="395" on="0"/>
        <pt x="239" y="372" on="0"/>
        <pt x="268" y="344" on="0"/>
        <pt x="285" y="315" on="0"/>
        <pt x="284" y="289" on="0"/>
        <pt x="268" y="278" on="1"/>
        <pt x="255" y="269" on="0"/>
        <pt x="224" y="277" on="0"/>
        <pt x="192" y="299" on="0"/>
        <pt x="162" y="333" on="0"/>
        <pt x="149" y="349" on="1"/>
        <pt x="145" y="353" on="1"/>
        <pt x="128" y="311" on="0"/>
        <pt x="114" y="277" on="1"/>
        <pt x="102" y="246" on="0"/>
        <pt x="95" y="229" on="1"/>
        <pt x="95" y="157" on="1"/>
        <pt x="95" y="151" on="0"/>
        <pt x="105" y="127" on="0"/>
        <pt x="120" y="100" on="0"/>
        <pt x="138" y="76" on="0"/>
      </contour>
      <contour>
        <pt x="273" y="759" on="1"/>
        <pt x="246" y="775" on="0"/>
        <pt x="205" y="762" on="0"/>
        <pt x="178" y="711" on="0"/>
        <pt x="163" y="640" on="0"/>
        <pt x="160" y="599" on="1"/>
        <pt x="159" y="573" on="0"/>
        <pt x="159" y="548" on="1"/>
        <pt x="173" y="579" on="0"/>
        <pt x="189" y="608" on="1"/>
        <pt x="219" y="664" on="0"/>
        <pt x="252" y="716" on="1"/>
        <pt x="265" y="737" on="0"/>
        <pt x="277" y="756" on="1"/>
        <pt x="275" y="758" on="0"/>
      </contour>
      <contour>
        <pt x="185" y="920" on="1"/>
        <pt x="178" y="932" on="0"/>
        <pt x="166" y="951" on="0"/>
        <pt x="178" y="976" on="0"/>
        <pt x="225" y="1012" on="0"/>
        <pt x="277" y="1041" on="1"/>
        <pt x="296" y="1046" on="0"/>
        <pt x="308" y="1032" on="0"/>
        <pt x="299" y="1006" on="0"/>
        <pt x="275" y="972" on="0"/>
        <pt x="241" y="942" on="0"/>
        <pt x="203" y="921" on="0"/>
      </contour>
    </TTGlyph>
    <TTGlyph name="Otilde" xMin="-55" yMin="-4" xMax="482" yMax="1104">
      <component glyphName="O" x="0" y="0" flags="0x1204"/>
      <component glyphName="tilde" x="-146" y="212" flags="0x1004"/>
    </TTGlyph>
    <TTGlyph name="P" xMin="17" yMin="0" xMax="617" yMax="774">
      <contour>
        <pt x="243" y="295" on="1"/>
        <pt x="236" y="289" on="0"/>
        <pt x="205" y="262" on="0"/>
        <pt x="166" y="235" on="0"/>
        <pt x="123" y="219" on="0"/>
        <pt x="104" y="225" on="1"/>
        <pt x="96" y="228" on="0"/>
        <pt x="87" y="240" on="0"/>
        <pt x="84" y="255" on="0"/>
        <pt x="85" y="271" on="0"/>
        <pt x="87" y="278" on="1"/>
        <pt x="269" y="382" on="1"/>
        <pt x="269" y="677" on="1"/>
        <pt x="269" y="686" on="0"/>
        <pt x="291" y="695" on="0"/>
        <pt x="317" y="695" on="0"/>
        <pt x="339" y="686" on="0"/>
        <pt x="339" y="677" on="1"/>
        <pt x="339" y="434" on="1"/>
        <pt x="381" y="456" on="0"/>
        <pt x="462" y="521" on="0"/>
        <pt x="521" y="592" on="0"/>
        <pt x="547" y="660" on="0"/>
        <pt x="521" y="711" on="0"/>
        <pt x="432" y="736" on="0"/>
        <pt x="347" y="729" on="1"/>
        <pt x="329" y="727" on="0"/>
        <pt x="273" y="709" on="0"/>
        <pt x="207" y="683" on="0"/>
        <pt x="138" y="655" on="0"/>
        <pt x="76" y="632" on="0"/>
        <pt x="28" y="621" on="0"/>
        <pt x="17" y="625" on="1"/>
        <pt x="20" y="642" on="0"/>
        <pt x="42" y="669" on="0"/>
        <pt x="73" y="691" on="0"/>
        <pt x="107" y="707" on="0"/>
        <pt x="122" y="712" on="1"/>
        <pt x="183" y="732" on="0"/>
        <pt x="271" y="760" on="0"/>
        <pt x="356" y="774" on="0"/>
        <pt x="452" y="773" on="0"/>
        <pt x="521" y="764" on="1"/>
        <pt x="577" y="750" on="0"/>
        <pt x="620" y="702" on="0"/>
        <pt x="614" y="642" on="0"/>
        <pt x="570" y="575" on="0"/>
        <pt x="507" y="508" on="0"/>
        <pt x="434" y="444" on="0"/>
        <pt x="372" y="392" on="0"/>
        <pt x="331" y="354" on="0"/>
        <pt x="330" y="347" on="1"/>
        <pt x="295" y="35" on="1"/>
        <pt x="289" y="27" on="1"/>
        <pt x="284" y="20" on="0"/>
        <pt x="269" y="5" on="0"/>
        <pt x="250" y="-5" on="0"/>
        <pt x="243" y="0" on="1"/>
      </contour>
    </TTGlyph>
    <TTGlyph name="Q" xMin="26" yMin="0" xMax="658" yMax="875">
      <contour>
        <pt x="460" y="17" on="1"/>
        <pt x="454" y="21" on="0"/>
        <pt x="429" y="40" on="0"/>
        <pt x="402" y="63" on="0"/>
        <pt x="377" y="83" on="0"/>
        <pt x="373" y="87" on="1"/>
        <pt x="331" y="46" on="0"/>
        <pt x="246" y="18" on="0"/>
        <pt x="169" y="32" on="0"/>
        <pt x="103" y="82" on="0"/>
        <pt x="54" y="155" on="0"/>
        <pt x="26" y="246" on="0"/>
        <pt x="26" y="295" on="1"/>
        <pt x="26" y="362" on="0"/>
        <pt x="39" y="503" on="0"/>
        <pt x="68" y="641" on="0"/>
        <pt x="114" y="774" on="0"/>
        <pt x="147" y="834" on="1"/>
        <pt x="145" y="835" on="0"/>
        <pt x="132" y="835" on="0"/>
        <pt x="130" y="834" on="1"/>
        <pt x="127" y="832" on="0"/>
        <pt x="111" y="822" on="0"/>
        <pt x="95" y="811" on="0"/>
        <pt x="81" y="801" on="0"/>
        <pt x="78" y="799" on="1"/>
        <pt x="62" y="830" on="0"/>
        <pt x="87" y="869" on="0"/>
        <pt x="147" y="881" on="0"/>
        <pt x="232" y="863" on="0"/>
        <pt x="322" y="810" on="0"/>
        <pt x="408" y="722" on="0"/>
        <pt x="468" y="593" on="0"/>
        <pt x="493" y="421" on="0"/>
        <pt x="477" y="312" on="1"/>
        <pt x="475" y="302" on="0"/>
        <pt x="462" y="253" on="0"/>
        <pt x="446" y="197" on="0"/>
        <pt x="429" y="148" on="0"/>
        <pt x="425" y="139" on="1"/>
        <pt x="459" y="98" on="0"/>
        <pt x="512" y="58" on="0"/>
        <pt x="563" y="58" on="0"/>
        <pt x="616" y="98" on="0"/>
        <pt x="650" y="139" on="1"/>
        <pt x="662" y="112" on="0"/>
        <pt x="653" y="65" on="0"/>
        <pt x="623" y="29" on="0"/>
        <pt x="578" y="5" on="0"/>
        <pt x="528" y="-4" on="0"/>
        <pt x="478" y="4" on="0"/>
      </contour>
      <contour>
        <pt x="199" y="87" on="1"/>
        <pt x="214" y="74" on="0"/>
        <pt x="267" y="74" on="0"/>
        <pt x="316" y="95" on="0"/>
        <pt x="346" y="132" on="0"/>
        <pt x="338" y="157" on="1"/>
        <pt x="251" y="417" on="1"/>
        <pt x="241" y="446" on="0"/>
        <pt x="212" y="456" on="0"/>
        <pt x="182" y="440" on="0"/>
        <pt x="155" y="410" on="0"/>
        <pt x="147" y="399" on="1"/>
        <pt x="143" y="399" on="0"/>
        <pt x="130" y="413" on="0"/>
        <pt x="130" y="417" on="1"/>
        <pt x="130" y="431" on="0"/>
        <pt x="143" y="463" on="0"/>
        <pt x="163" y="491" on="0"/>
        <pt x="187" y="514" on="0"/>
        <pt x="199" y="520" on="1"/>
        <pt x="225" y="533" on="0"/>
        <pt x="272" y="504" on="0"/>
        <pt x="312" y="442" on="0"/>
        <pt x="346" y="361" on="0"/>
        <pt x="371" y="283" on="0"/>
        <pt x="387" y="220" on="0"/>
        <pt x="390" y="208" on="1"/>
        <pt x="413" y="219" on="0"/>
        <pt x="435" y="291" on="0"/>
        <pt x="439" y="389" on="0"/>
        <pt x="426" y="501" on="0"/>
        <pt x="403" y="606" on="0"/>
        <pt x="372" y="690" on="0"/>
        <pt x="355" y="712" on="1"/>
        <pt x="344" y="726" on="0"/>
        <pt x="301" y="760" on="0"/>
        <pt x="254" y="796" on="0"/>
        <pt x="211" y="833" on="0"/>
        <pt x="199" y="851" on="1"/>
        <pt x="195" y="844" on="1"/>
        <pt x="193" y="839" on="0"/>
        <pt x="187" y="828" on="0"/>
        <pt x="182" y="818" on="0"/>
        <pt x="182" y="816" on="1"/>
        <pt x="167" y="761" on="0"/>
        <pt x="127" y="635" on="0"/>
        <pt x="95" y="503" on="0"/>
        <pt x="78" y="369" on="0"/>
        <pt x="92" y="244" on="0"/>
        <pt x="145" y="132" on="0"/>
      </contour>
    </TTGlyph>
    <TTGlyph name="R" xMin="14" yMin="0" xMax="716" yMax="751">
      <contour>
        <pt x="190" y="17" on="1"/>
        <pt x="189" y="35" on="0"/>
        <pt x="186" y="108" on="0"/>
        <pt x="183" y="201" on="0"/>
        <pt x="179" y="303" on="0"/>
        <pt x="176" y="395" on="0"/>
        <pt x="174" y="468" on="0"/>
        <pt x="174" y="486" on="1"/>
        <pt x="174" y="492" on="0"/>
        <pt x="173" y="521" on="0"/>
        <pt x="173" y="554" on="0"/>
        <pt x="174" y="584" on="0"/>
        <pt x="174" y="590" on="1"/>
        <pt x="162" y="584" on="0"/>
        <pt x="129" y="554" on="0"/>
        <pt x="91" y="519" on="0"/>
        <pt x="52" y="490" on="0"/>
        <pt x="35" y="486" on="1"/>
        <pt x="12" y="500" on="0"/>
        <pt x="16" y="541" on="0"/>
        <pt x="57" y="588" on="0"/>
        <pt x="126" y="638" on="0"/>
        <pt x="209" y="684" on="0"/>
        <pt x="297" y="722" on="0"/>
        <pt x="376" y="747" on="0"/>
        <pt x="437" y="754" on="0"/>
        <pt x="452" y="746" on="1"/>
        <pt x="480" y="717" on="0"/>
        <pt x="478" y="631" on="0"/>
        <pt x="442" y="533" on="0"/>
        <pt x="384" y="427" on="0"/>
        <pt x="330" y="328" on="0"/>
        <pt x="292" y="241" on="0"/>
        <pt x="294" y="179" on="0"/>
        <pt x="350" y="149" on="0"/>
        <pt x="417" y="157" on="1"/>
        <pt x="451" y="165" on="0"/>
        <pt x="525" y="200" on="0"/>
        <pt x="595" y="243" on="0"/>
        <pt x="656" y="291" on="0"/>
        <pt x="677" y="312" on="1"/>
        <pt x="712" y="303" on="0"/>
        <pt x="720" y="269" on="0"/>
        <pt x="685" y="227" on="0"/>
        <pt x="615" y="181" on="0"/>
        <pt x="527" y="138" on="0"/>
        <pt x="432" y="104" on="0"/>
        <pt x="345" y="86" on="0"/>
        <pt x="276" y="88" on="0"/>
        <pt x="260" y="104" on="1"/>
        <pt x="260" y="98" on="0"/>
        <pt x="258" y="68" on="0"/>
        <pt x="252" y="35" on="0"/>
        <pt x="238" y="6" on="0"/>
        <pt x="225" y="0" on="1"/>
        <pt x="214" y="-5" on="0"/>
        <pt x="195" y="9" on="0"/>
      </contour>
      <contour>
        <pt x="243" y="237" on="1"/>
        <pt x="427" y="648" on="1"/>
        <pt x="420" y="671" on="0"/>
        <pt x="387" y="690" on="0"/>
        <pt x="345" y="689" on="0"/>
        <pt x="301" y="671" on="0"/>
        <pt x="264" y="646" on="0"/>
        <pt x="240" y="617" on="0"/>
        <pt x="240" y="605" on="1"/>
      </contour>
    </TTGlyph>
    <TTGlyph name="Racute" xMin="14" yMin="0" xMax="716" yMax="949">
      <component glyphName="R" x="0" y="0" flags="0x1204"/>
      <component glyphName="acute" x="266" y="188" flags="0x1004"/>
    </TTGlyph>
    <TTGlyph name="Rcaron" xMin="14" yMin="0" xMax="716" yMax="1023">
      <component glyphName="R" x="0" y="0" flags="0x1204"/>
      <component glyphName="caron" x="-141" y="220" flags="0x1004"/>
    </TTGlyph>
    <TTGlyph name="Rcommaaccent" xMin="14" yMin="-441" xMax="716" yMax="751">
      <component glyphName="R" x="0" y="0" flags="0x1204"/>
      <component glyphName="commaaccent" x="144" y="0" flags="0x1004"/>
    </TTGlyph>
    <TTGlyph name="S" xMin="22" yMin="-1" xMax="529" yMax="816">
      <contour>
        <pt x="157" y="17" on="1"/>
        <pt x="100" y="40" on="0"/>
        <pt x="40" y="115" on="0"/>
        <pt x="18" y="196" on="0"/>
        <pt x="26" y="272" on="0"/>
        <pt x="48" y="319" on="0"/>
        <pt x="77" y="324" on="0"/>
        <pt x="87" y="295" on="1"/>
        <pt x="76" y="232" on="0"/>
        <pt x="98" y="139" on="0"/>
        <pt x="148" y="78" on="0"/>
        <pt x="220" y="49" on="0"/>
        <pt x="296" y="48" on="0"/>
        <pt x="368" y="76" on="0"/>
        <pt x="420" y="129" on="0"/>
        <pt x="444" y="209" on="0"/>
        <pt x="434" y="260" on="1"/>
        <pt x="429" y="283" on="0"/>
        <pt x="386" y="350" on="0"/>
        <pt x="331" y="426" on="0"/>
        <pt x="273" y="505" on="0"/>
        <pt x="234" y="578" on="0"/>
        <pt x="223" y="639" on="0"/>
        <pt x="243" y="659" on="1"/>
        <pt x="259" y="672" on="0"/>
        <pt x="322" y="725" on="0"/>
        <pt x="396" y="777" on="0"/>
        <pt x="473" y="816" on="0"/>
        <pt x="504" y="816" on="1"/>
        <pt x="527" y="816" on="0"/>
        <pt x="530" y="802" on="0"/>
        <pt x="506" y="779" on="0"/>
        <pt x="461" y="747" on="0"/>
        <pt x="409" y="710" on="0"/>
        <pt x="356" y="669" on="0"/>
        <pt x="319" y="628" on="0"/>
        <pt x="302" y="589" on="0"/>
        <pt x="312" y="572" on="1"/>
        <pt x="348" y="521" on="0"/>
        <pt x="421" y="417" on="0"/>
        <pt x="475" y="316" on="0"/>
        <pt x="502" y="219" on="0"/>
        <pt x="482" y="130" on="0"/>
        <pt x="405" y="50" on="0"/>
        <pt x="330" y="17" on="1"/>
        <pt x="285" y="-2" on="0"/>
        <pt x="202" y="0" on="0"/>
      </contour>
    </TTGlyph>
    <TTGlyph name="Sacute" xMin="22" yMin="-1" xMax="529" yMax="949">
      <component glyphName="S" x="0" y="0" flags="0x1204"/>
      <component glyphName="acute" x="184" y="188" flags="0x1004"/>
    </TTGlyph>
    <TTGlyph name="Scaron" xMin="22" yMin="-1" xMax="548" yMax="1015">
      <component glyphName="S" x="0" y="0" flags="0x1204"/>
      <component glyphName="caron" x="-173" y="212" flags="0x1004"/>
    </TTGlyph>
    <TTGlyph name="Scedilla" xMin="22" yMin="-423" xMax="529" yMax="816">
      <contour>
        <pt x="232" y="-403" on="1"/>
        <pt x="216" y="-391" on="0"/>
        <pt x="195" y="-353" on="0"/>
        <pt x="185" y="-312" on="0"/>
        <pt x="183" y="-272" on="0"/>
        <pt x="190" y="-246" on="0"/>
        <pt x="204" y="-237" on="0"/>
        <pt x="214" y="-247" on="1"/>
        <pt x="212" y="-301" on="0"/>
        <pt x="256" y="-357" on="0"/>
        <pt x="319" y="-371" on="0"/>
        <pt x="389" y="-350" on="0"/>
        <pt x="440" y="-302" on="0"/>
        <pt x="459" y="-234" on="0"/>
        <pt x="439" y="-195" on="1"/>
        <pt x="413" y="-166" on="0"/>
        <pt x="351" y="-149" on="0"/>
        <pt x="288" y="-140" on="0"/>
        <pt x="228" y="-121" on="0"/>
        <pt x="204" y="-89" on="1"/>
        <pt x="193" y="-35" on="0"/>
        <pt x="201" y="-4" on="1"/>
        <pt x="202" y="0" on="0"/>
        <pt x="203" y="3" on="1"/>
        <pt x="181" y="8" on="0"/>
        <pt x="157" y="17" on="1"/>
        <pt x="100" y="40" on="0"/>
        <pt x="40" y="115" on="0"/>
        <pt x="18" y="196" on="0"/>
        <pt x="26" y="272" on="0"/>
        <pt x="48" y="319" on="0"/>
        <pt x="77" y="324" on="0"/>
        <pt x="87" y="295" on="1"/>
        <pt x="76" y="232" on="0"/>
        <pt x="98" y="139" on="0"/>
        <pt x="148" y="78" on="0"/>
        <pt x="220" y="49" on="0"/>
        <pt x="296" y="48" on="0"/>
        <pt x="368" y="76" on="0"/>
        <pt x="420" y="129" on="0"/>
        <pt x="444" y="209" on="0"/>
        <pt x="434" y="260" on="1"/>
        <pt x="429" y="283" on="0"/>
        <pt x="386" y="350" on="0"/>
        <pt x="331" y="426" on="0"/>
        <pt x="273" y="505" on="0"/>
        <pt x="234" y="578" on="0"/>
        <pt x="223" y="639" on="0"/>
        <pt x="243" y="659" on="1"/>
        <pt x="259" y="672" on="0"/>
        <pt x="322" y="725" on="0"/>
        <pt x="396" y="777" on="0"/>
        <pt x="473" y="816" on="0"/>
        <pt x="504" y="816" on="1"/>
        <pt x="527" y="816" on="0"/>
        <pt x="530" y="802" on="0"/>
        <pt x="506" y="779" on="0"/>
        <pt x="461" y="747" on="0"/>
        <pt x="409" y="710" on="0"/>
        <pt x="356" y="669" on="0"/>
        <pt x="319" y="628" on="0"/>
        <pt x="302" y="589" on="0"/>
        <pt x="312" y="572" on="1"/>
        <pt x="348" y="521" on="0"/>
        <pt x="421" y="417" on="0"/>
        <pt x="475" y="316" on="0"/>
        <pt x="502" y="219" on="0"/>
        <pt x="482" y="130" on="0"/>
        <pt x="405" y="50" on="0"/>
        <pt x="330" y="17" on="1"/>
        <pt x="296" y="2" on="0"/>
        <pt x="264" y="0" on="1"/>
        <pt x="272" y="-21" on="0"/>
        <pt x="274" y="-54" on="1"/>
        <pt x="272" y="-61" on="0"/>
        <pt x="306" y="-77" on="0"/>
        <pt x="359" y="-98" on="0"/>
        <pt x="423" y="-126" on="0"/>
        <pt x="477" y="-162" on="0"/>
        <pt x="513" y="-209" on="0"/>
        <pt x="511" y="-268" on="0"/>
        <pt x="463" y="-340" on="0"/>
        <pt x="405" y="-385" on="1"/>
        <pt x="387" y="-399" on="0"/>
        <pt x="344" y="-419" on="0"/>
        <pt x="298" y="-426" on="0"/>
        <pt x="252" y="-418" on="0"/>
      </contour>
    </TTGlyph>
    <TTGlyph name="Scircumflex" xMin="22" yMin="-1" xMax="602" yMax="1208">
      <component glyphName="S" x="0" y="0" flags="0x1204"/>
      <component glyphName="circumflex" x="-129" y="334" flags="0x1004"/>
    </TTGlyph>
    <TTGlyph name="Scommaaccent" xMin="22" yMin="-458" xMax="529" yMax="816">
      <component glyphName="S" x="0" y="0" flags="0x1204"/>
      <component glyphName="commaaccent" x="106" y="-17" flags="0x1004"/>
    </TTGlyph>
    <TTGlyph name="T" xMin="0" yMin="2" xMax="695" yMax="746">
      <contour>
        <pt x="365" y="35" on="1"/>
        <pt x="367" y="104" on="0"/>
        <pt x="360" y="243" on="0"/>
        <pt x="351" y="382" on="0"/>
        <pt x="344" y="521" on="0"/>
        <pt x="347" y="590" on="1"/>
        <pt x="336" y="587" on="0"/>
        <pt x="290" y="576" on="0"/>
        <pt x="232" y="562" on="0"/>
        <pt x="167" y="547" on="0"/>
        <pt x="109" y="533" on="0"/>
        <pt x="63" y="522" on="0"/>
        <pt x="52" y="520" on="1"/>
        <pt x="38" y="517" on="0"/>
        <pt x="11" y="530" on="0"/>
        <pt x="0" y="538" on="1"/>
        <pt x="35" y="572" on="1"/>
        <pt x="193" y="587" on="0"/>
        <pt x="499" y="680" on="0"/>
        <pt x="642" y="746" on="1"/>
        <pt x="694" y="746" on="1"/>
        <pt x="699" y="738" on="0"/>
        <pt x="690" y="720" on="0"/>
        <pt x="674" y="705" on="0"/>
        <pt x="666" y="699" on="1"/>
        <pt x="659" y="694" on="1"/>
        <pt x="417" y="607" on="1"/>
        <pt x="416" y="607" on="0"/>
        <pt x="415" y="559" on="0"/>
        <pt x="415" y="493" on="0"/>
        <pt x="416" y="422" on="0"/>
        <pt x="417" y="399" on="1"/>
        <pt x="417" y="391" on="0"/>
        <pt x="420" y="337" on="0"/>
        <pt x="423" y="266" on="0"/>
        <pt x="427" y="186" on="0"/>
        <pt x="431" y="114" on="0"/>
        <pt x="433" y="61" on="0"/>
        <pt x="434" y="52" on="1"/>
        <pt x="434" y="35" on="0"/>
        <pt x="415" y="7" on="0"/>
        <pt x="391" y="-3" on="0"/>
        <pt x="368" y="10" on="0"/>
      </contour>
    </TTGlyph>
    <TTGlyph name="Tcaron" xMin="0" yMin="2" xMax="695" yMax="991">
      <component glyphName="T" x="0" y="0" flags="0x1204"/>
      <component glyphName="caron" x="-94" y="188" flags="0x1004"/>
    </TTGlyph>
    <TTGlyph name="Tcommaaccent" xMin="0" yMin="-441" xMax="695" yMax="746">
      <component glyphName="T" x="0" y="0" flags="0x1204"/>
      <component glyphName="commaaccent" x="140" y="0" flags="0x1004"/>
    </TTGlyph>
    <TTGlyph name="Thorn" xMin="67" yMin="-127" xMax="489" yMax="905">
      <contour>
        <pt x="164" y="139" on="1"/>
        <pt x="159" y="154" on="0"/>
        <pt x="183" y="188" on="0"/>
        <pt x="226" y="223" on="0"/>
        <pt x="281" y="259" on="0"/>
        <pt x="332" y="293" on="0"/>
        <pt x="372" y="324" on="0"/>
        <pt x="379" y="338" on="1"/>
        <pt x="427" y="430" on="0"/>
        <pt x="434" y="549" on="0"/>
        <pt x="372" y="575" on="0"/>
        <pt x="252" y="494" on="0"/>
        <pt x="174" y="386" on="1"/>
        <pt x="169" y="362" on="0"/>
        <pt x="157" y="291" on="0"/>
        <pt x="157" y="246" on="1"/>
        <pt x="157" y="189" on="0"/>
        <pt x="148" y="75" on="0"/>
        <pt x="133" y="-24" on="0"/>
        <pt x="115" y="-98" on="0"/>
        <pt x="99" y="-133" on="0"/>
        <pt x="86" y="-121" on="0"/>
        <pt x="82" y="-46" on="0"/>
        <pt x="90" y="101" on="0"/>
        <pt x="101" y="217" on="1"/>
        <pt x="101" y="224" on="0"/>
        <pt x="102" y="259" on="0"/>
        <pt x="102" y="298" on="0"/>
        <pt x="101" y="332" on="0"/>
        <pt x="101" y="338" on="1"/>
        <pt x="98" y="406" on="0"/>
        <pt x="91" y="536" on="0"/>
        <pt x="82" y="664" on="0"/>
        <pt x="72" y="792" on="0"/>
        <pt x="67" y="859" on="1"/>
        <pt x="64" y="888" on="0"/>
        <pt x="72" y="908" on="0"/>
        <pt x="87" y="901" on="0"/>
        <pt x="106" y="871" on="0"/>
        <pt x="123" y="829" on="0"/>
        <pt x="135" y="779" on="0"/>
        <pt x="136" y="755" on="1"/>
        <pt x="136" y="743" on="0"/>
        <pt x="139" y="691" on="0"/>
        <pt x="143" y="626" on="0"/>
        <pt x="147" y="554" on="0"/>
        <pt x="150" y="489" on="0"/>
        <pt x="153" y="437" on="0"/>
        <pt x="154" y="425" on="1"/>
        <pt x="176" y="441" on="0"/>
        <pt x="207" y="488" on="0"/>
        <pt x="236" y="537" on="0"/>
        <pt x="268" y="583" on="0"/>
        <pt x="292" y="599" on="1"/>
        <pt x="356" y="639" on="0"/>
        <pt x="440" y="646" on="0"/>
        <pt x="485" y="601" on="0"/>
        <pt x="493" y="517" on="0"/>
        <pt x="469" y="414" on="0"/>
        <pt x="416" y="303" on="0"/>
        <pt x="339" y="206" on="0"/>
        <pt x="239" y="134" on="0"/>
        <pt x="180" y="122" on="1"/>
        <pt x="171" y="130" on="1"/>
        <pt x="165" y="137" on="0"/>
      </contour>
    </TTGlyph>
    <TTGlyph name="U" xMin="24" yMin="-3" xMax="720" yMax="678">
      <contour>
        <pt x="60" y="35" on="1"/>
        <pt x="46" y="53" on="0"/>
        <pt x="31" y="106" on="0"/>
        <pt x="24" y="164" on="0"/>
        <pt x="24" y="221" on="0"/>
        <pt x="26" y="243" on="1"/>
        <pt x="27" y="258" on="0"/>
        <pt x="32" y="324" on="0"/>
        <pt x="39" y="406" on="0"/>
        <pt x="46" y="496" on="0"/>
        <pt x="53" y="578" on="0"/>
        <pt x="58" y="643" on="0"/>
        <pt x="60" y="659" on="1"/>
        <pt x="65" y="668" on="0"/>
        <pt x="84" y="682" on="0"/>
        <pt x="95" y="677" on="1"/>
        <pt x="109" y="669" on="0"/>
        <pt x="118" y="643" on="0"/>
        <pt x="118" y="612" on="0"/>
        <pt x="113" y="582" on="0"/>
        <pt x="113" y="572" on="1"/>
        <pt x="110" y="520" on="0"/>
        <pt x="90" y="393" on="0"/>
        <pt x="79" y="261" on="0"/>
        <pt x="88" y="136" on="0"/>
        <pt x="113" y="87" on="1"/>
        <pt x="127" y="59" on="0"/>
        <pt x="167" y="62" on="0"/>
        <pt x="212" y="100" on="0"/>
        <pt x="258" y="162" on="0"/>
        <pt x="295" y="227" on="0"/>
        <pt x="319" y="282" on="0"/>
        <pt x="321" y="295" on="1"/>
        <pt x="321" y="314" on="1"/>
        <pt x="321" y="329" on="0"/>
        <pt x="320" y="365" on="0"/>
        <pt x="320" y="395" on="0"/>
        <pt x="321" y="399" on="1"/>
        <pt x="322" y="414" on="0"/>
        <pt x="332" y="488" on="0"/>
        <pt x="342" y="571" on="0"/>
        <pt x="352" y="645" on="0"/>
        <pt x="355" y="659" on="1"/>
        <pt x="360" y="675" on="0"/>
        <pt x="394" y="681" on="0"/>
        <pt x="408" y="677" on="1"/>
        <pt x="411" y="620" on="0"/>
        <pt x="400" y="507" on="0"/>
        <pt x="388" y="394" on="0"/>
        <pt x="382" y="281" on="0"/>
        <pt x="390" y="225" on="1"/>
        <pt x="398" y="174" on="0"/>
        <pt x="433" y="122" on="0"/>
        <pt x="479" y="107" on="0"/>
        <pt x="534" y="122" on="0"/>
        <pt x="590" y="153" on="0"/>
        <pt x="643" y="192" on="0"/>
        <pt x="686" y="225" on="0"/>
        <pt x="715" y="246" on="0"/>
        <pt x="720" y="243" on="1"/>
        <pt x="729" y="215" on="0"/>
        <pt x="692" y="152" on="0"/>
        <pt x="623" y="99" on="0"/>
        <pt x="531" y="66" on="0"/>
        <pt x="440" y="69" on="0"/>
        <pt x="361" y="117" on="0"/>
        <pt x="338" y="173" on="1"/>
        <pt x="322" y="160" on="0"/>
        <pt x="283" y="112" on="0"/>
        <pt x="239" y="60" on="0"/>
        <pt x="190" y="13" on="0"/>
        <pt x="139" y="-9" on="0"/>
        <pt x="86" y="3" on="0"/>
      </contour>
    </TTGlyph>
    <TTGlyph name="Uacute" xMin="24" yMin="-3" xMax="720" yMax="973">
      <component glyphName="U" x="0" y="0" flags="0x1204"/>
      <component glyphName="acute" x="221" y="212" flags="0x1004"/>
    </TTGlyph>
    <TTGlyph name="Ubreve" xMin="24" yMin="-3" xMax="720" yMax="1111">
      <component glyphName="U" x="0" y="0" flags="0x1204"/>
      <component glyphName="breve" x="113" y="188" flags="0x1004"/>
    </TTGlyph>
    <TTGlyph name="Ucircumflex" xMin="24" yMin="-3" xMax="720" yMax="1086">
      <component glyphName="U" x="0" y="0" flags="0x1204"/>
      <component glyphName="circumflex" x="-161" y="212" flags="0x1004"/>
    </TTGlyph>
    <TTGlyph name="Udieresis" xMin="24" yMin="-3" xMax="720" yMax="846">
      <component glyphName="U" x="0" y="0" flags="0x1204"/>
      <component glyphName="dieresis" x="13" y="212" flags="0x1004"/>
    </TTGlyph>
    <TTGlyph name="Ugrave" xMin="24" yMin="-3" xMax="720" yMax="987">
      <component glyphName="U" x="0" y="0" flags="0x1204"/>
      <component glyphName="grave" x="250" y="212" flags="0x1004"/>
    </TTGlyph>
    <TTGlyph name="Uhungarumlaut" xMin="24" yMin="-3" xMax="720" yMax="1067">
      <component glyphName="U" x="0" y="0" flags="0x1204"/>
      <component glyphName="hungarumlaut" x="117" y="188" flags="0x1004"/>
    </TTGlyph>
    <TTGlyph name="Umacron" xMin="24" yMin="-3" xMax="720" yMax="906">
      <component glyphName="U" x="0" y="0" flags="0x1204"/>
      <component glyphName="macron" x="70" y="188" flags="0x1004"/>
    </TTGlyph>
    <TTGlyph name="Uogonek" xMin="24" yMin="-124" xMax="720" yMax="678">
      <contour>
        <pt x="551" y="-124" on="1"/>
        <pt x="509" y="-134" on="0"/>
        <pt x="438" y="-114" on="0"/>
        <pt x="393" y="-69" on="0"/>
        <pt x="379" y="-8" on="0"/>
        <pt x="392" y="22" on="1"/>
        <pt x="404" y="50" on="0"/>
        <pt x="438" y="75" on="1"/>
        <pt x="418" y="82" on="0"/>
        <pt x="400" y="93" on="1"/>
        <pt x="361" y="117" on="0"/>
        <pt x="338" y="173" on="1"/>
        <pt x="322" y="160" on="0"/>
        <pt x="283" y="112" on="0"/>
        <pt x="239" y="60" on="0"/>
        <pt x="190" y="13" on="0"/>
        <pt x="139" y="-9" on="0"/>
        <pt x="86" y="3" on="0"/>
        <pt x="60" y="35" on="1"/>
        <pt x="46" y="53" on="0"/>
        <pt x="31" y="106" on="0"/>
        <pt x="24" y="164" on="0"/>
        <pt x="24" y="221" on="0"/>
        <pt x="26" y="243" on="1"/>
        <pt x="27" y="258" on="0"/>
        <pt x="32" y="324" on="0"/>
        <pt x="39" y="406" on="0"/>
        <pt x="46" y="496" on="0"/>
        <pt x="53" y="578" on="0"/>
        <pt x="58" y="643" on="0"/>
        <pt x="60" y="659" on="1"/>
        <pt x="65" y="668" on="0"/>
        <pt x="84" y="682" on="0"/>
        <pt x="95" y="677" on="1"/>
        <pt x="109" y="669" on="0"/>
        <pt x="118" y="643" on="0"/>
        <pt x="118" y="612" on="0"/>
        <pt x="113" y="582" on="0"/>
        <pt x="113" y="572" on="1"/>
        <pt x="110" y="520" on="0"/>
        <pt x="90" y="393" on="0"/>
        <pt x="79" y="261" on="0"/>
        <pt x="88" y="136" on="0"/>
        <pt x="113" y="87" on="1"/>
        <pt x="127" y="59" on="0"/>
        <pt x="167" y="62" on="0"/>
        <pt x="212" y="100" on="0"/>
        <pt x="258" y="162" on="0"/>
        <pt x="295" y="227" on="0"/>
        <pt x="319" y="282" on="0"/>
        <pt x="321" y="295" on="1"/>
        <pt x="321" y="314" on="1"/>
        <pt x="321" y="329" on="0"/>
        <pt x="320" y="365" on="0"/>
        <pt x="320" y="395" on="0"/>
        <pt x="321" y="399" on="1"/>
        <pt x="322" y="414" on="0"/>
        <pt x="332" y="488" on="0"/>
        <pt x="342" y="571" on="0"/>
        <pt x="352" y="645" on="0"/>
        <pt x="355" y="659" on="1"/>
        <pt x="360" y="675" on="0"/>
        <pt x="394" y="681" on="0"/>
        <pt x="408" y="677" on="1"/>
        <pt x="411" y="620" on="0"/>
        <pt x="400" y="507" on="0"/>
        <pt x="388" y="394" on="0"/>
        <pt x="382" y="281" on="0"/>
        <pt x="390" y="225" on="1"/>
        <pt x="398" y="174" on="0"/>
        <pt x="433" y="122" on="0"/>
        <pt x="479" y="107" on="0"/>
        <pt x="534" y="122" on="0"/>
        <pt x="590" y="153" on="0"/>
        <pt x="643" y="192" on="0"/>
        <pt x="686" y="225" on="0"/>
        <pt x="715" y="246" on="0"/>
        <pt x="720" y="243" on="1"/>
        <pt x="729" y="215" on="0"/>
        <pt x="692" y="152" on="0"/>
        <pt x="623" y="99" on="0"/>
        <pt x="577" y="82" on="1"/>
        <pt x="551" y="74" on="1"/>
        <pt x="551" y="73" on="1"/>
        <pt x="496" y="64" on="0"/>
        <pt x="442" y="19" on="0"/>
        <pt x="430" y="-31" on="0"/>
        <pt x="452" y="-76" on="0"/>
        <pt x="494" y="-93" on="0"/>
        <pt x="551" y="-72" on="0"/>
        <pt x="580" y="-32" on="1"/>
        <pt x="602" y="-48" on="0"/>
        <pt x="609" y="-73" on="0"/>
        <pt x="594" y="-95" on="0"/>
        <pt x="565" y="-114" on="0"/>
      </contour>
    </TTGlyph>
    <TTGlyph name="Uring" xMin="24" yMin="-3" xMax="720" yMax="1226">
      <component glyphName="U" x="0" y="0" flags="0x1204"/>
      <component glyphName="ring" x="-10" y="188" flags="0x1004"/>
    </TTGlyph>
    <TTGlyph name="Utilde" xMin="17" yMin="-3" xMax="720" yMax="1080">
      <component glyphName="U" x="0" y="0" flags="0x1204"/>
      <component glyphName="tilde" x="-74" y="188" flags="0x1004"/>
    </TTGlyph>
    <TTGlyph name="V" xMin="24" yMin="-2" xMax="633" yMax="851">
      <contour>
        <pt x="60" y="538" on="1"/>
        <pt x="57" y="542" on="0"/>
        <pt x="37" y="566" on="0"/>
        <pt x="24" y="593" on="0"/>
        <pt x="25" y="619" on="0"/>
        <pt x="43" y="625" on="1"/>
        <pt x="50" y="628" on="0"/>
        <pt x="77" y="628" on="0"/>
        <pt x="78" y="625" on="1"/>
        <pt x="251" y="208" on="1"/>
        <pt x="259" y="274" on="0"/>
        <pt x="286" y="410" on="0"/>
        <pt x="330" y="541" on="0"/>
        <pt x="395" y="662" on="0"/>
        <pt x="442" y="712" on="1"/>
        <pt x="456" y="728" on="0"/>
        <pt x="502" y="775" on="0"/>
        <pt x="547" y="819" on="0"/>
        <pt x="580" y="851" on="0"/>
        <pt x="581" y="851" on="1"/>
        <pt x="633" y="851" on="1"/>
        <pt x="641" y="839" on="0"/>
        <pt x="618" y="811" on="0"/>
        <pt x="583" y="786" on="0"/>
        <pt x="549" y="767" on="0"/>
        <pt x="546" y="764" on="1"/>
        <pt x="466" y="684" on="0"/>
        <pt x="374" y="514" on="0"/>
        <pt x="324" y="329" on="0"/>
        <pt x="307" y="128" on="0"/>
        <pt x="303" y="17" on="1"/>
        <pt x="296" y="13" on="1"/>
        <pt x="291" y="11" on="0"/>
        <pt x="280" y="5" on="0"/>
        <pt x="270" y="1" on="0"/>
        <pt x="268" y="0" on="1"/>
        <pt x="265" y="-2" on="0"/>
        <pt x="252" y="-2" on="0"/>
        <pt x="251" y="0" on="1"/>
      </contour>
    </TTGlyph>
    <TTGlyph name="W" xMin="15" yMin="1" xMax="727" yMax="752">
      <contour>
        <pt x="87" y="17" on="1"/>
        <pt x="65" y="32" on="0"/>
        <pt x="38" y="85" on="0"/>
        <pt x="23" y="145" on="0"/>
        <pt x="18" y="204" on="0"/>
        <pt x="17" y="225" on="1"/>
        <pt x="16" y="237" on="0"/>
        <pt x="16" y="289" on="0"/>
        <pt x="15" y="354" on="0"/>
        <pt x="16" y="426" on="0"/>
        <pt x="16" y="458" on="1"/>
        <pt x="16" y="517" on="1"/>
        <pt x="16" y="543" on="0"/>
        <pt x="17" y="555" on="1"/>
        <pt x="23" y="572" on="0"/>
        <pt x="56" y="577" on="0"/>
        <pt x="70" y="572" on="1"/>
        <pt x="70" y="557" on="0"/>
        <pt x="72" y="495" on="0"/>
        <pt x="76" y="416" on="0"/>
        <pt x="79" y="329" on="0"/>
        <pt x="83" y="251" on="0"/>
        <pt x="86" y="188" on="0"/>
        <pt x="87" y="173" on="1"/>
        <pt x="88" y="160" on="0"/>
        <pt x="95" y="126" on="0"/>
        <pt x="107" y="91" on="0"/>
        <pt x="126" y="61" on="0"/>
        <pt x="139" y="52" on="1"/>
        <pt x="162" y="70" on="0"/>
        <pt x="198" y="148" on="0"/>
        <pt x="227" y="246" on="0"/>
        <pt x="251" y="354" on="0"/>
        <pt x="274" y="450" on="0"/>
        <pt x="295" y="524" on="0"/>
        <pt x="320" y="556" on="0"/>
        <pt x="348" y="534" on="0"/>
        <pt x="365" y="486" on="1"/>
        <pt x="367" y="481" on="0"/>
        <pt x="377" y="449" on="0"/>
        <pt x="391" y="406" on="0"/>
        <pt x="407" y="358" on="0"/>
        <pt x="421" y="315" on="0"/>
        <pt x="432" y="283" on="0"/>
        <pt x="434" y="278" on="1"/>
        <pt x="445" y="250" on="0"/>
        <pt x="476" y="184" on="0"/>
        <pt x="514" y="126" on="0"/>
        <pt x="557" y="86" on="0"/>
        <pt x="600" y="81" on="0"/>
        <pt x="641" y="121" on="0"/>
        <pt x="659" y="173" on="1"/>
        <pt x="660" y="186" on="0"/>
        <pt x="662" y="237" on="0"/>
        <pt x="663" y="303" on="0"/>
        <pt x="663" y="374" on="0"/>
        <pt x="662" y="440" on="0"/>
        <pt x="660" y="491" on="0"/>
        <pt x="659" y="504" on="1"/>
        <pt x="659" y="510" on="0"/>
        <pt x="649" y="560" on="0"/>
        <pt x="637" y="619" on="0"/>
        <pt x="626" y="670" on="0"/>
        <pt x="625" y="677" on="1"/>
        <pt x="624" y="686" on="0"/>
        <pt x="631" y="722" on="0"/>
        <pt x="645" y="750" on="0"/>
        <pt x="665" y="753" on="0"/>
        <pt x="677" y="729" on="1"/>
        <pt x="692" y="662" on="0"/>
        <pt x="721" y="508" on="0"/>
        <pt x="733" y="349" on="0"/>
        <pt x="720" y="192" on="0"/>
        <pt x="694" y="122" on="1"/>
        <pt x="672" y="64" on="0"/>
        <pt x="621" y="16" on="0"/>
        <pt x="565" y="18" on="0"/>
        <pt x="508" y="60" on="0"/>
        <pt x="454" y="127" on="0"/>
        <pt x="404" y="209" on="0"/>
        <pt x="364" y="290" on="0"/>
        <pt x="336" y="360" on="0"/>
        <pt x="330" y="382" on="1"/>
        <pt x="312" y="382" on="1"/>
        <pt x="310" y="372" on="0"/>
        <pt x="301" y="322" on="0"/>
        <pt x="290" y="267" on="0"/>
        <pt x="280" y="218" on="0"/>
        <pt x="278" y="208" on="1"/>
        <pt x="273" y="191" on="0"/>
        <pt x="257" y="140" on="0"/>
        <pt x="232" y="85" on="0"/>
        <pt x="200" y="35" on="0"/>
        <pt x="160" y="4" on="0"/>
        <pt x="114" y="-1" on="0"/>
      </contour>
    </TTGlyph>
    <TTGlyph name="Wacute" xMin="15" yMin="1" xMax="727" yMax="949">
      <component glyphName="W" x="0" y="0" flags="0x1204"/>
      <component glyphName="acute" x="284" y="188" flags="0x1004"/>
    </TTGlyph>
    <TTGlyph name="Wcircumflex" xMin="15" yMin="1" xMax="727" yMax="1062">
      <component glyphName="W" x="0" y="0" flags="0x1204"/>
      <component glyphName="circumflex" x="-94" y="188" flags="0x1004"/>
    </TTGlyph>
    <TTGlyph name="Wdieresis" xMin="15" yMin="1" xMax="727" yMax="822">
      <component glyphName="W" x="0" y="0" flags="0x1204"/>
      <component glyphName="dieresis" x="80" y="188" flags="0x1004"/>
    </TTGlyph>
    <TTGlyph name="Wgrave" xMin="15" yMin="1" xMax="727" yMax="963">
      <component glyphName="W" x="0" y="0" flags="0x1204"/>
      <component glyphName="grave" x="279" y="188" flags="0x1004"/>
    </TTGlyph>
    <TTGlyph name="X" xMin="35" yMin="-2" xMax="695" yMax="817">
      <contour>
        <pt x="122" y="17" on="1"/>
        <pt x="114" y="59" on="0"/>
        <pt x="140" y="144" on="0"/>
        <pt x="171" y="229" on="0"/>
        <pt x="190" y="310" on="0"/>
        <pt x="174" y="347" on="1"/>
        <pt x="155" y="391" on="0"/>
        <pt x="97" y="474" on="0"/>
        <pt x="48" y="561" on="0"/>
        <pt x="22" y="656" on="0"/>
        <pt x="35" y="712" on="1"/>
        <pt x="78" y="721" on="0"/>
        <pt x="122" y="694" on="0"/>
        <pt x="142" y="641" on="0"/>
        <pt x="147" y="570" on="0"/>
        <pt x="157" y="499" on="0"/>
        <pt x="180" y="436" on="0"/>
        <pt x="208" y="417" on="1"/>
        <pt x="211" y="418" on="0"/>
        <pt x="224" y="431" on="0"/>
        <pt x="225" y="434" on="1"/>
        <pt x="251" y="475" on="0"/>
        <pt x="287" y="537" on="0"/>
        <pt x="317" y="588" on="0"/>
        <pt x="345" y="632" on="0"/>
        <pt x="382" y="678" on="0"/>
        <pt x="432" y="730" on="0"/>
        <pt x="469" y="764" on="1"/>
        <pt x="521" y="812" on="0"/>
        <pt x="609" y="822" on="0"/>
        <pt x="670" y="773" on="0"/>
        <pt x="700" y="679" on="0"/>
        <pt x="690" y="566" on="0"/>
        <pt x="635" y="448" on="0"/>
        <pt x="526" y="353" on="0"/>
        <pt x="360" y="293" on="0"/>
        <pt x="243" y="295" on="1"/>
        <pt x="227" y="266" on="0"/>
        <pt x="204" y="194" on="0"/>
        <pt x="187" y="119" on="0"/>
        <pt x="177" y="46" on="0"/>
        <pt x="174" y="17" on="1"/>
        <pt x="171" y="10" on="0"/>
        <pt x="155" y="0" on="0"/>
        <pt x="139" y="-3" on="0"/>
        <pt x="124" y="5" on="0"/>
      </contour>
      <contour>
        <pt x="278" y="382" on="1"/>
        <pt x="276" y="380" on="0"/>
        <pt x="276" y="367" on="0"/>
        <pt x="278" y="365" on="1"/>
        <pt x="366" y="351" on="0"/>
        <pt x="496" y="383" on="0"/>
        <pt x="585" y="450" on="0"/>
        <pt x="635" y="540" on="0"/>
        <pt x="652" y="630" on="0"/>
        <pt x="636" y="709" on="0"/>
        <pt x="594" y="751" on="0"/>
        <pt x="528" y="747" on="0"/>
        <pt x="441" y="672" on="0"/>
        <pt x="337" y="514" on="0"/>
      </contour>
    </TTGlyph>
    <TTGlyph name="Y" xMin="10" yMin="-294" xMax="710" yMax="773">
      <contour>
        <pt x="190" y="-252" on="1"/>
        <pt x="166" y="-221" on="0"/>
        <pt x="156" y="-138" on="0"/>
        <pt x="171" y="-46" on="0"/>
        <pt x="206" y="49" on="0"/>
        <pt x="248" y="136" on="0"/>
        <pt x="294" y="209" on="0"/>
        <pt x="312" y="233" on="1"/>
        <pt x="355" y="290" on="0"/>
        <pt x="409" y="372" on="0"/>
        <pt x="428" y="453" on="0"/>
        <pt x="411" y="546" on="0"/>
        <pt x="382" y="615" on="1"/>
        <pt x="350" y="479" on="0"/>
        <pt x="256" y="277" on="0"/>
        <pt x="159" y="159" on="0"/>
        <pt x="70" y="133" on="0"/>
        <pt x="15" y="212" on="0"/>
        <pt x="5" y="404" on="0"/>
        <pt x="35" y="564" on="1"/>
        <pt x="40" y="580" on="0"/>
        <pt x="74" y="585" on="0"/>
        <pt x="87" y="581" on="1"/>
        <pt x="87" y="251" on="1"/>
        <pt x="87" y="208" on="0"/>
        <pt x="112" y="189" on="0"/>
        <pt x="149" y="212" on="0"/>
        <pt x="192" y="264" on="0"/>
        <pt x="231" y="320" on="0"/>
        <pt x="258" y="366" on="0"/>
        <pt x="260" y="373" on="1"/>
        <pt x="265" y="387" on="0"/>
        <pt x="282" y="446" on="0"/>
        <pt x="303" y="521" on="0"/>
        <pt x="326" y="604" on="0"/>
        <pt x="346" y="680" on="0"/>
        <pt x="361" y="740" on="0"/>
        <pt x="365" y="755" on="1"/>
        <pt x="368" y="762" on="0"/>
        <pt x="383" y="772" on="0"/>
        <pt x="400" y="774" on="0"/>
        <pt x="414" y="766" on="0"/>
        <pt x="417" y="755" on="1"/>
        <pt x="486" y="425" on="1"/>
        <pt x="488" y="418" on="0"/>
        <pt x="515" y="426" on="0"/>
        <pt x="555" y="447" on="0"/>
        <pt x="601" y="475" on="0"/>
        <pt x="642" y="503" on="0"/>
        <pt x="673" y="525" on="0"/>
        <pt x="677" y="529" on="1"/>
        <pt x="709" y="524" on="0"/>
        <pt x="711" y="497" on="0"/>
        <pt x="677" y="459" on="0"/>
        <pt x="617" y="416" on="0"/>
        <pt x="558" y="377" on="0"/>
        <pt x="510" y="345" on="0"/>
        <pt x="504" y="338" on="1"/>
        <pt x="504" y="328" on="0"/>
        <pt x="502" y="288" on="0"/>
        <pt x="499" y="236" on="0"/>
        <pt x="495" y="180" on="0"/>
        <pt x="491" y="128" on="0"/>
        <pt x="489" y="108" on="1"/>
        <pt x="486" y="78" on="1"/>
        <pt x="484" y="65" on="0"/>
        <pt x="469" y="7" on="0"/>
        <pt x="443" y="-66" on="0"/>
        <pt x="408" y="-147" on="0"/>
        <pt x="367" y="-219" on="0"/>
        <pt x="320" y="-276" on="0"/>
        <pt x="269" y="-301" on="0"/>
        <pt x="216" y="-287" on="0"/>
      </contour>
      <contour>
        <pt x="243" y="-217" on="1"/>
        <pt x="258" y="-239" on="0"/>
        <pt x="294" y="-227" on="0"/>
        <pt x="332" y="-181" on="0"/>
        <pt x="368" y="-114" on="0"/>
        <pt x="397" y="-49" on="0"/>
        <pt x="415" y="2" on="0"/>
        <pt x="417" y="8" on="1"/>
        <pt x="431" y="75" on="0"/>
        <pt x="438" y="219" on="0"/>
        <pt x="434" y="286" on="1"/>
        <pt x="406" y="262" on="0"/>
        <pt x="342" y="189" on="0"/>
        <pt x="283" y="102" on="0"/>
        <pt x="235" y="6" on="0"/>
        <pt x="211" y="-89" on="0"/>
        <pt x="218" y="-179" on="0"/>
      </contour>
    </TTGlyph>
    <TTGlyph name="Yacute" xMin="10" yMin="-294" xMax="710" yMax="869">
      <component glyphName="Y" x="0" y="0" flags="0x1204"/>
      <component glyphName="acute" x="137" y="108" flags="0x1004"/>
    </TTGlyph>
    <TTGlyph name="Ycircumflex" xMin="10" yMin="-294" xMax="710" yMax="1062">
      <component glyphName="Y" x="0" y="0" flags="0x1204"/>
      <component glyphName="circumflex" x="-165" y="188" flags="0x1004"/>
    </TTGlyph>
    <TTGlyph name="Ydieresis" xMin="10" yMin="-294" xMax="710" yMax="926">
      <component glyphName="Y" x="0" y="0" flags="0x1004"/>
      <component glyphName="dieresis" x="-85" y="292" flags="0x1004"/>
    </TTGlyph>
    <TTGlyph name="Ygrave" xMin="10" yMin="-294" xMax="710" yMax="1001">
      <component glyphName="Y" x="0" y="0" flags="0x1204"/>
      <component glyphName="grave" x="91" y="226" flags="0x1004"/>
    </TTGlyph>
    <TTGlyph name="Z" xMin="22" yMin="-10" xMax="650" yMax="760">
      <contour>
        <pt x="650" y="417" on="1"/>
        <pt x="646" y="370" on="0"/>
        <pt x="596" y="258" on="0"/>
        <pt x="521" y="150" on="0"/>
        <pt x="428" y="56" on="0"/>
        <pt x="335" y="-3" on="0"/>
        <pt x="251" y="-17" on="0"/>
        <pt x="192" y="36" on="0"/>
        <pt x="168" y="165" on="0"/>
        <pt x="182" y="278" on="1"/>
        <pt x="293" y="665" on="1"/>
        <pt x="43" y="452" on="1"/>
        <pt x="42" y="452" on="0"/>
        <pt x="32" y="460" on="0"/>
        <pt x="24" y="470" on="0"/>
        <pt x="21" y="482" on="0"/>
        <pt x="26" y="486" on="1"/>
        <pt x="321" y="746" on="1"/>
        <pt x="334" y="757" on="0"/>
        <pt x="357" y="762" on="0"/>
        <pt x="373" y="751" on="0"/>
        <pt x="378" y="728" on="0"/>
        <pt x="373" y="712" on="1"/>
        <pt x="350" y="643" on="0"/>
        <pt x="307" y="519" on="0"/>
        <pt x="270" y="397" on="0"/>
        <pt x="242" y="275" on="0"/>
        <pt x="233" y="208" on="1"/>
        <pt x="224" y="132" on="0"/>
        <pt x="251" y="67" on="0"/>
        <pt x="306" y="60" on="0"/>
        <pt x="379" y="100" on="0"/>
        <pt x="451" y="158" on="0"/>
        <pt x="513" y="221" on="0"/>
        <pt x="529" y="243" on="1"/>
        <pt x="537" y="254" on="0"/>
        <pt x="548" y="294" on="0"/>
        <pt x="558" y="341" on="0"/>
        <pt x="570" y="388" on="0"/>
        <pt x="588" y="423" on="0"/>
        <pt x="613" y="440" on="0"/>
        <pt x="633" y="434" on="1"/>
        <pt x="636" y="433" on="0"/>
        <pt x="649" y="420" on="0"/>
      </contour>
    </TTGlyph>
    <TTGlyph name="Zacute" xMin="22" yMin="-10" xMax="650" yMax="949">
      <component glyphName="Z" x="0" y="0" flags="0x1204"/>
      <component glyphName="acute" x="241" y="188" flags="0x1004"/>
    </TTGlyph>
    <TTGlyph name="Zcaron" xMin="-6" yMin="-10" xMax="650" yMax="1029">
      <component glyphName="Z" x="0" y="0" flags="0x1204"/>
      <component glyphName="caron" x="-227" y="226" flags="0x1004"/>
    </TTGlyph>
    <TTGlyph name="Zdotaccent" xMin="22" yMin="-10" xMax="650" yMax="986">
      <component glyphName="Z" x="0" y="0" flags="0x1204"/>
      <component glyphName="dotaccent" x="243" y="188" flags="0x1004"/>
    </TTGlyph>
    <TTGlyph name="a" xMin="21" yMin="-7" xMax="598" yMax="672">
      <contour>
        <pt x="43" y="17" on="1"/>
        <pt x="23" y="59" on="0"/>
        <pt x="20" y="145" on="0"/>
        <pt x="26" y="190" on="1"/>
        <pt x="27" y="204" on="0"/>
        <pt x="35" y="260" on="0"/>
        <pt x="45" y="328" on="0"/>
        <pt x="57" y="404" on="0"/>
        <pt x="67" y="472" on="0"/>
        <pt x="76" y="525" on="0"/>
        <pt x="78" y="538" on="1"/>
        <pt x="86" y="580" on="0"/>
        <pt x="105" y="639" on="0"/>
        <pt x="138" y="671" on="0"/>
        <pt x="191" y="673" on="0"/>
        <pt x="233" y="659" on="1"/>
        <pt x="238" y="658" on="0"/>
        <pt x="250" y="645" on="0"/>
        <pt x="251" y="642" on="1"/>
        <pt x="253" y="629" on="0"/>
        <pt x="264" y="575" on="0"/>
        <pt x="278" y="506" on="0"/>
        <pt x="293" y="431" on="0"/>
        <pt x="307" y="362" on="0"/>
        <pt x="318" y="308" on="0"/>
        <pt x="321" y="295" on="1"/>
        <pt x="336" y="224" on="0"/>
        <pt x="380" y="169" on="0"/>
        <pt x="430" y="167" on="0"/>
        <pt x="483" y="202" on="0"/>
        <pt x="535" y="241" on="0"/>
        <pt x="581" y="269" on="0"/>
        <pt x="598" y="260" on="1"/>
        <pt x="598" y="241" on="0"/>
        <pt x="580" y="205" on="0"/>
        <pt x="555" y="174" on="0"/>
        <pt x="525" y="148" on="0"/>
        <pt x="512" y="139" on="1"/>
        <pt x="456" y="102" on="0"/>
        <pt x="381" y="98" on="0"/>
        <pt x="329" y="136" on="0"/>
        <pt x="297" y="202" on="0"/>
        <pt x="272" y="270" on="0"/>
        <pt x="249" y="323" on="0"/>
        <pt x="233" y="330" on="1"/>
        <pt x="230" y="317" on="0"/>
        <pt x="211" y="253" on="0"/>
        <pt x="189" y="181" on="0"/>
        <pt x="169" y="117" on="0"/>
        <pt x="165" y="104" on="1"/>
        <pt x="163" y="99" on="0"/>
        <pt x="150" y="71" on="0"/>
        <pt x="130" y="38" on="0"/>
        <pt x="105" y="7" on="0"/>
        <pt x="79" y="-10" on="0"/>
        <pt x="53" y="-4" on="0"/>
      </contour>
      <contour>
        <pt x="95" y="312" on="1"/>
        <pt x="93" y="300" on="0"/>
        <pt x="92" y="236" on="0"/>
        <pt x="92" y="164" on="0"/>
        <pt x="93" y="100" on="0"/>
        <pt x="95" y="87" on="1"/>
        <pt x="130" y="140" on="0"/>
        <pt x="186" y="281" on="0"/>
        <pt x="215" y="432" on="0"/>
        <pt x="209" y="581" on="0"/>
        <pt x="182" y="642" on="1"/>
        <pt x="165" y="611" on="0"/>
        <pt x="135" y="517" on="0"/>
        <pt x="113" y="420" on="0"/>
        <pt x="98" y="335" on="0"/>
      </contour>
    </TTGlyph>
    <TTGlyph name="aacute" xMin="21" yMin="-7" xMax="598" yMax="838">
      <component glyphName="a" x="0" y="0" flags="0x1204"/>
      <component glyphName="acute" x="104" y="77" flags="0x1004"/>
    </TTGlyph>
    <TTGlyph name="abreve" xMin="21" yMin="-7" xMax="598" yMax="923">
      <component glyphName="a" x="0" y="0" flags="0x1204"/>
      <component glyphName="breve" x="56" y="0" flags="0x1004"/>
    </TTGlyph>
    <TTGlyph name="acircumflex" xMin="-2" yMin="-7" xMax="598" yMax="951">
      <component glyphName="a" x="0" y="0" flags="0x1204"/>
      <component glyphName="circumflex" x="-253" y="77" flags="0x1004"/>
    </TTGlyph>
    <TTGlyph name="acute" xMin="19" yMin="640" xMax="151" yMax="761">
      <contour>
        <pt x="32" y="640" on="1"/>
        <pt x="25" y="652" on="0"/>
        <pt x="13" y="671" on="0"/>
        <pt x="25" y="696" on="0"/>
        <pt x="72" y="732" on="0"/>
        <pt x="124" y="761" on="1"/>
        <pt x="143" y="766" on="0"/>
        <pt x="155" y="752" on="0"/>
        <pt x="146" y="726" on="0"/>
        <pt x="122" y="692" on="0"/>
        <pt x="88" y="662" on="0"/>
        <pt x="50" y="641" on="0"/>
      </contour>
    </TTGlyph>
    <TTGlyph name="adieresis" xMin="21" yMin="-7" xMax="598" yMax="839">
      <component glyphName="a" x="0" y="0" flags="0x1204"/>
      <component glyphName="dieresis" x="-96" y="205" flags="0x1004"/>
    </TTGlyph>
    <TTGlyph name="ae" xMin="21" yMin="-7" xMax="732" yMax="672">
      <contour>
        <pt x="43" y="17" on="1"/>
        <pt x="23" y="59" on="0"/>
        <pt x="20" y="145" on="0"/>
        <pt x="26" y="190" on="1"/>
        <pt x="27" y="204" on="0"/>
        <pt x="35" y="260" on="0"/>
        <pt x="45" y="328" on="0"/>
        <pt x="57" y="404" on="0"/>
        <pt x="67" y="472" on="0"/>
        <pt x="76" y="525" on="0"/>
        <pt x="78" y="538" on="1"/>
        <pt x="86" y="580" on="0"/>
        <pt x="105" y="639" on="0"/>
        <pt x="138" y="671" on="0"/>
        <pt x="191" y="673" on="0"/>
        <pt x="233" y="659" on="1"/>
        <pt x="238" y="658" on="0"/>
        <pt x="250" y="645" on="0"/>
        <pt x="251" y="642" on="1"/>
        <pt x="253" y="631" on="0"/>
        <pt x="256" y="576" on="0"/>
        <pt x="259" y="503" on="0"/>
        <pt x="261" y="417" on="0"/>
        <pt x="262" y="375" on="1"/>
        <pt x="272" y="424" on="0"/>
        <pt x="307" y="515" on="0"/>
        <pt x="348" y="589" on="0"/>
        <pt x="394" y="642" on="0"/>
        <pt x="438" y="663" on="0"/>
        <pt x="476" y="646" on="0"/>
        <pt x="489" y="615" on="1"/>
        <pt x="478" y="571" on="0"/>
        <pt x="433" y="488" on="0"/>
        <pt x="385" y="407" on="0"/>
        <pt x="343" y="327" on="0"/>
        <pt x="334" y="286" on="1"/>
        <pt x="329" y="264" on="0"/>
        <pt x="329" y="201" on="0"/>
        <pt x="343" y="139" on="0"/>
        <pt x="375" y="88" on="0"/>
        <pt x="402" y="78" on="1"/>
        <pt x="434" y="66" on="0"/>
        <pt x="499" y="78" on="0"/>
        <pt x="560" y="112" on="0"/>
        <pt x="616" y="163" on="0"/>
        <pt x="664" y="217" on="0"/>
        <pt x="702" y="268" on="0"/>
        <pt x="715" y="286" on="1"/>
        <pt x="732" y="268" on="1"/>
        <pt x="739" y="262" on="0"/>
        <pt x="708" y="206" on="0"/>
        <pt x="649" y="135" on="0"/>
        <pt x="569" y="61" on="0"/>
        <pt x="484" y="12" on="0"/>
        <pt x="401" y="0" on="0"/>
        <pt x="368" y="26" on="1"/>
        <pt x="342" y="40" on="0"/>
        <pt x="305" y="78" on="0"/>
        <pt x="291" y="100" on="1"/>
        <pt x="300" y="51" on="0"/>
        <pt x="288" y="2" on="0"/>
        <pt x="262" y="-2" on="0"/>
        <pt x="230" y="33" on="0"/>
        <pt x="207" y="101" on="0"/>
        <pt x="203" y="149" on="1"/>
        <pt x="200" y="195" on="0"/>
        <pt x="211" y="251" on="1"/>
        <pt x="206" y="232" on="0"/>
        <pt x="199" y="212" on="1"/>
        <pt x="192" y="189" on="0"/>
        <pt x="178" y="146" on="0"/>
        <pt x="168" y="112" on="0"/>
        <pt x="165" y="104" on="1"/>
        <pt x="163" y="99" on="0"/>
        <pt x="150" y="71" on="0"/>
        <pt x="130" y="38" on="0"/>
        <pt x="105" y="7" on="0"/>
        <pt x="79" y="-10" on="0"/>
        <pt x="53" y="-4" on="0"/>
      </contour>
      <contour>
        <pt x="95" y="312" on="1"/>
        <pt x="93" y="300" on="0"/>
        <pt x="92" y="236" on="0"/>
        <pt x="92" y="164" on="0"/>
        <pt x="93" y="100" on="0"/>
        <pt x="95" y="87" on="1"/>
        <pt x="130" y="140" on="0"/>
        <pt x="186" y="281" on="0"/>
        <pt x="215" y="432" on="0"/>
        <pt x="209" y="581" on="0"/>
        <pt x="182" y="642" on="1"/>
        <pt x="165" y="611" on="0"/>
        <pt x="135" y="517" on="0"/>
        <pt x="113" y="420" on="0"/>
        <pt x="98" y="335" on="0"/>
      </contour>
      <contour>
        <pt x="437" y="615" on="1"/>
        <pt x="404" y="599" on="0"/>
        <pt x="355" y="544" on="0"/>
        <pt x="325" y="477" on="0"/>
        <pt x="317" y="405" on="0"/>
        <pt x="325" y="371" on="1"/>
        <pt x="341" y="398" on="0"/>
        <pt x="374" y="458" on="0"/>
        <pt x="404" y="520" on="0"/>
        <pt x="429" y="583" on="0"/>
      </contour>
    </TTGlyph>
    <TTGlyph name="aeacute" xMin="21" yMin="-7" xMax="732" yMax="850">
      <component glyphName="ae" x="0" y="0" flags="0x1204"/>
      <component glyphName="acute" x="240" y="89" flags="0x1004"/>
    </TTGlyph>
    <TTGlyph name="agrave" xMin="21" yMin="-7" xMax="598" yMax="876">
      <component glyphName="a" x="0" y="0" flags="0x1204"/>
      <component glyphName="grave" x="85" y="101" flags="0x1004"/>
    </TTGlyph>
    <TTGlyph name="amacron" xMin="2" yMin="-7" xMax="598" yMax="862">
      <component glyphName="a" x="0" y="0" flags="0x1204"/>
      <component glyphName="macron" x="-13" y="144" flags="0x1004"/>
    </TTGlyph>
    <TTGlyph name="ampersand" xMin="24" yMin="-15" xMax="797" yMax="764">
      <contour>
        <pt x="78" y="17" on="1"/>
        <pt x="46" y="35" on="0"/>
        <pt x="22" y="82" on="0"/>
        <pt x="27" y="133" on="0"/>
        <pt x="55" y="184" on="0"/>
        <pt x="96" y="230" on="0"/>
        <pt x="143" y="267" on="0"/>
        <pt x="165" y="278" on="1"/>
        <pt x="175" y="283" on="0"/>
        <pt x="229" y="308" on="0"/>
        <pt x="290" y="336" on="0"/>
        <pt x="344" y="360" on="0"/>
        <pt x="355" y="365" on="1"/>
        <pt x="354" y="383" on="0"/>
        <pt x="353" y="471" on="0"/>
        <pt x="353" y="571" on="0"/>
        <pt x="354" y="659" on="0"/>
        <pt x="355" y="677" on="1"/>
        <pt x="355" y="686" on="0"/>
        <pt x="360" y="716" on="0"/>
        <pt x="366" y="744" on="0"/>
        <pt x="371" y="764" on="0"/>
        <pt x="373" y="764" on="1"/>
        <pt x="425" y="764" on="1"/>
        <pt x="423" y="733" on="0"/>
        <pt x="420" y="640" on="0"/>
        <pt x="421" y="538" on="0"/>
        <pt x="431" y="438" on="0"/>
        <pt x="442" y="399" on="1"/>
        <pt x="444" y="398" on="0"/>
        <pt x="489" y="405" on="0"/>
        <pt x="553" y="418" on="0"/>
        <pt x="626" y="438" on="0"/>
        <pt x="685" y="462" on="0"/>
        <pt x="722" y="490" on="0"/>
        <pt x="714" y="521" on="0"/>
        <pt x="651" y="555" on="0"/>
        <pt x="581" y="572" on="1"/>
        <pt x="573" y="574" on="0"/>
        <pt x="564" y="587" on="0"/>
        <pt x="560" y="603" on="0"/>
        <pt x="561" y="619" on="0"/>
        <pt x="563" y="625" on="1"/>
        <pt x="583" y="629" on="0"/>
        <pt x="648" y="617" on="0"/>
        <pt x="715" y="592" on="0"/>
        <pt x="774" y="557" on="0"/>
        <pt x="803" y="520" on="0"/>
        <pt x="791" y="483" on="0"/>
        <pt x="755" y="469" on="1"/>
        <pt x="442" y="347" on="1"/>
        <pt x="438" y="345" on="0"/>
        <pt x="425" y="303" on="0"/>
        <pt x="406" y="237" on="0"/>
        <pt x="377" y="157" on="0"/>
        <pt x="337" y="81" on="0"/>
        <pt x="284" y="18" on="0"/>
        <pt x="215" y="-17" on="0"/>
        <pt x="130" y="-13" on="0"/>
      </contour>
      <contour>
        <pt x="78" y="87" on="1"/>
        <pt x="80" y="83" on="0"/>
        <pt x="85" y="77" on="1"/>
        <pt x="106" y="56" on="1"/>
        <pt x="111" y="52" on="0"/>
        <pt x="113" y="52" on="1"/>
        <pt x="175" y="36" on="0"/>
        <pt x="272" y="73" on="0"/>
        <pt x="335" y="151" on="0"/>
        <pt x="362" y="258" on="0"/>
        <pt x="355" y="312" on="1"/>
        <pt x="341" y="317" on="0"/>
        <pt x="283" y="297" on="0"/>
        <pt x="214" y="259" on="0"/>
        <pt x="143" y="208" on="0"/>
        <pt x="91" y="155" on="0"/>
        <pt x="66" y="105" on="0"/>
      </contour>
    </TTGlyph>
    <TTGlyph name="aogonek" xMin="21" yMin="-98" xMax="598" yMax="672">
      <contour>
        <pt x="413" y="-98" on="1"/>
        <pt x="371" y="-108" on="0"/>
        <pt x="300" y="-88" on="0"/>
        <pt x="255" y="-43" on="0"/>
        <pt x="241" y="18" on="0"/>
        <pt x="267" y="78" on="0"/>
        <pt x="304" y="104" on="1"/>
        <pt x="321" y="116" on="0"/>
        <pt x="343" y="126" on="1"/>
        <pt x="325" y="143" on="0"/>
        <pt x="313" y="169" on="1"/>
        <pt x="297" y="202" on="0"/>
        <pt x="272" y="270" on="0"/>
        <pt x="249" y="323" on="0"/>
        <pt x="233" y="330" on="1"/>
        <pt x="230" y="317" on="0"/>
        <pt x="211" y="253" on="0"/>
        <pt x="189" y="181" on="0"/>
        <pt x="169" y="117" on="0"/>
        <pt x="165" y="104" on="1"/>
        <pt x="163" y="99" on="0"/>
        <pt x="150" y="71" on="0"/>
        <pt x="130" y="38" on="0"/>
        <pt x="105" y="7" on="0"/>
        <pt x="79" y="-10" on="0"/>
        <pt x="53" y="-4" on="0"/>
        <pt x="43" y="17" on="1"/>
        <pt x="23" y="59" on="0"/>
        <pt x="20" y="145" on="0"/>
        <pt x="26" y="190" on="1"/>
        <pt x="27" y="204" on="0"/>
        <pt x="35" y="260" on="0"/>
        <pt x="45" y="328" on="0"/>
        <pt x="57" y="404" on="0"/>
        <pt x="67" y="472" on="0"/>
        <pt x="76" y="525" on="0"/>
        <pt x="78" y="538" on="1"/>
        <pt x="86" y="580" on="0"/>
        <pt x="105" y="639" on="0"/>
        <pt x="138" y="671" on="0"/>
        <pt x="191" y="673" on="0"/>
        <pt x="233" y="659" on="1"/>
        <pt x="238" y="658" on="0"/>
        <pt x="250" y="645" on="0"/>
        <pt x="251" y="642" on="1"/>
        <pt x="253" y="629" on="0"/>
        <pt x="264" y="575" on="0"/>
        <pt x="278" y="506" on="0"/>
        <pt x="293" y="431" on="0"/>
        <pt x="307" y="362" on="0"/>
        <pt x="318" y="308" on="0"/>
        <pt x="321" y="295" on="1"/>
        <pt x="336" y="224" on="0"/>
        <pt x="380" y="169" on="0"/>
        <pt x="430" y="167" on="0"/>
        <pt x="483" y="202" on="0"/>
        <pt x="535" y="241" on="0"/>
        <pt x="581" y="269" on="0"/>
        <pt x="598" y="260" on="1"/>
        <pt x="598" y="241" on="0"/>
        <pt x="580" y="205" on="0"/>
        <pt x="555" y="174" on="0"/>
        <pt x="525" y="148" on="0"/>
        <pt x="512" y="139" on="1"/>
        <pt x="456" y="102" on="0"/>
        <pt x="418" y="100" on="1"/>
        <pt x="413" y="100" on="1"/>
        <pt x="413" y="99" on="1"/>
        <pt x="358" y="90" on="0"/>
        <pt x="304" y="45" on="0"/>
        <pt x="292" y="-5" on="0"/>
        <pt x="314" y="-50" on="0"/>
        <pt x="356" y="-67" on="0"/>
        <pt x="413" y="-46" on="0"/>
        <pt x="442" y="-6" on="1"/>
        <pt x="464" y="-22" on="0"/>
        <pt x="471" y="-47" on="0"/>
        <pt x="456" y="-69" on="0"/>
        <pt x="427" y="-88" on="0"/>
      </contour>
      <contour>
        <pt x="95" y="312" on="1"/>
        <pt x="93" y="300" on="0"/>
        <pt x="92" y="236" on="0"/>
        <pt x="92" y="164" on="0"/>
        <pt x="93" y="100" on="0"/>
        <pt x="95" y="87" on="1"/>
        <pt x="130" y="140" on="0"/>
        <pt x="186" y="281" on="0"/>
        <pt x="215" y="432" on="0"/>
        <pt x="209" y="581" on="0"/>
        <pt x="182" y="642" on="1"/>
        <pt x="165" y="611" on="0"/>
        <pt x="135" y="517" on="0"/>
        <pt x="113" y="420" on="0"/>
        <pt x="98" y="335" on="0"/>
      </contour>
    </TTGlyph>
    <TTGlyph name="aring" xMin="21" yMin="-7" xMax="598" yMax="955">
      <contour>
        <pt x="141" y="669" on="1"/>
        <pt x="125" y="678" on="0"/>
        <pt x="102" y="718" on="0"/>
        <pt x="96" y="734" on="1"/>
        <pt x="87" y="774" on="0"/>
        <pt x="95" y="868" on="0"/>
        <pt x="139" y="940" on="0"/>
        <pt x="221" y="970" on="0"/>
        <pt x="287" y="946" on="1"/>
        <pt x="315" y="936" on="0"/>
        <pt x="343" y="894" on="0"/>
        <pt x="354" y="869" on="1"/>
        <pt x="370" y="818" on="0"/>
        <pt x="359" y="726" on="0"/>
        <pt x="307" y="666" on="0"/>
        <pt x="259" y="657" on="1"/>
        <pt x="250" y="655" on="0"/>
        <pt x="240" y="654" on="1"/>
        <pt x="242" y="653" on="0"/>
        <pt x="244" y="651" on="1"/>
        <pt x="250" y="645" on="0"/>
        <pt x="251" y="642" on="1"/>
        <pt x="253" y="629" on="0"/>
        <pt x="264" y="575" on="0"/>
        <pt x="278" y="506" on="0"/>
        <pt x="293" y="431" on="0"/>
        <pt x="307" y="362" on="0"/>
        <pt x="318" y="308" on="0"/>
        <pt x="321" y="295" on="1"/>
        <pt x="336" y="224" on="0"/>
        <pt x="380" y="169" on="0"/>
        <pt x="430" y="167" on="0"/>
        <pt x="483" y="202" on="0"/>
        <pt x="535" y="241" on="0"/>
        <pt x="581" y="269" on="0"/>
        <pt x="598" y="260" on="1"/>
        <pt x="598" y="241" on="0"/>
        <pt x="580" y="205" on="0"/>
        <pt x="555" y="174" on="0"/>
        <pt x="525" y="148" on="0"/>
        <pt x="512" y="139" on="1"/>
        <pt x="456" y="102" on="0"/>
        <pt x="381" y="98" on="0"/>
        <pt x="329" y="136" on="0"/>
        <pt x="297" y="202" on="0"/>
        <pt x="272" y="270" on="0"/>
        <pt x="249" y="323" on="0"/>
        <pt x="233" y="330" on="1"/>
        <pt x="230" y="317" on="0"/>
        <pt x="211" y="253" on="0"/>
        <pt x="189" y="181" on="0"/>
        <pt x="169" y="117" on="0"/>
        <pt x="165" y="104" on="1"/>
        <pt x="163" y="99" on="0"/>
        <pt x="150" y="71" on="0"/>
        <pt x="130" y="38" on="0"/>
        <pt x="105" y="7" on="0"/>
        <pt x="79" y="-10" on="0"/>
        <pt x="53" y="-4" on="0"/>
        <pt x="43" y="17" on="1"/>
        <pt x="23" y="59" on="0"/>
        <pt x="20" y="145" on="0"/>
        <pt x="26" y="190" on="1"/>
        <pt x="27" y="204" on="0"/>
        <pt x="35" y="260" on="0"/>
        <pt x="45" y="328" on="0"/>
        <pt x="57" y="404" on="0"/>
        <pt x="67" y="472" on="0"/>
        <pt x="76" y="525" on="0"/>
        <pt x="78" y="538" on="1"/>
        <pt x="86" y="580" on="0"/>
        <pt x="105" y="639" on="0"/>
        <pt x="121" y="655" on="1"/>
        <pt x="131" y="664" on="0"/>
        <pt x="143" y="668" on="1"/>
        <pt x="142" y="668" on="0"/>
      </contour>
      <contour>
        <pt x="95" y="312" on="1"/>
        <pt x="93" y="300" on="0"/>
        <pt x="92" y="236" on="0"/>
        <pt x="92" y="164" on="0"/>
        <pt x="93" y="100" on="0"/>
        <pt x="95" y="87" on="1"/>
        <pt x="130" y="140" on="0"/>
        <pt x="186" y="281" on="0"/>
        <pt x="215" y="432" on="0"/>
        <pt x="209" y="581" on="0"/>
        <pt x="182" y="642" on="1"/>
        <pt x="165" y="611" on="0"/>
        <pt x="135" y="517" on="0"/>
        <pt x="113" y="420" on="0"/>
        <pt x="98" y="335" on="0"/>
      </contour>
      <contour>
        <pt x="152" y="713" on="1"/>
        <pt x="165" y="704" on="0"/>
        <pt x="199" y="694" on="0"/>
        <pt x="235" y="693" on="0"/>
        <pt x="267" y="701" on="0"/>
        <pt x="278" y="710" on="1"/>
        <pt x="314" y="770" on="0"/>
        <pt x="328" y="852" on="0"/>
        <pt x="305" y="901" on="0"/>
        <pt x="255" y="918" on="0"/>
        <pt x="198" y="908" on="0"/>
        <pt x="145" y="875" on="0"/>
        <pt x="116" y="822" on="0"/>
        <pt x="122" y="753" on="0"/>
      </contour>
    </TTGlyph>
    <TTGlyph name="asciicircum" xMin="251" yMin="547" xMax="731" yMax="874">
      <contour>
        <pt x="702" y="559" on="1"/>
        <pt x="666" y="584" on="0"/>
        <pt x="592" y="608" on="0"/>
        <pt x="533" y="638" on="0"/>
        <pt x="496" y="693" on="0"/>
        <pt x="497" y="750" on="1"/>
        <pt x="282" y="547" on="1"/>
        <pt x="269" y="544" on="0"/>
        <pt x="255" y="556" on="0"/>
        <pt x="250" y="577" on="0"/>
        <pt x="253" y="598" on="0"/>
        <pt x="256" y="604" on="1"/>
        <pt x="257" y="607" on="0"/>
        <pt x="255" y="607" on="0"/>
        <pt x="262" y="617" on="0"/>
        <pt x="285" y="643" on="0"/>
        <pt x="339" y="701" on="0"/>
        <pt x="430" y="797" on="0"/>
        <pt x="501" y="872" on="1"/>
        <pt x="503" y="876" on="0"/>
        <pt x="516" y="872" on="0"/>
        <pt x="518" y="869" on="1"/>
        <pt x="542" y="834" on="0"/>
        <pt x="566" y="781" on="0"/>
        <pt x="581" y="741" on="0"/>
        <pt x="596" y="708" on="0"/>
        <pt x="627" y="677" on="0"/>
        <pt x="682" y="644" on="0"/>
        <pt x="731" y="624" on="1"/>
      </contour>
    </TTGlyph>
    <TTGlyph name="asciitilde" xMin="91" yMin="695" xMax="628" yMax="892">
      <contour>
        <pt x="91" y="721" on="1"/>
        <pt x="118" y="774" on="0"/>
        <pt x="177" y="817" on="0"/>
        <pt x="240" y="821" on="0"/>
        <pt x="305" y="798" on="0"/>
        <pt x="371" y="772" on="0"/>
        <pt x="436" y="757" on="0"/>
        <pt x="467" y="766" on="1"/>
        <pt x="479" y="775" on="0"/>
        <pt x="520" y="815" on="0"/>
        <pt x="564" y="857" on="0"/>
        <pt x="604" y="890" on="0"/>
        <pt x="628" y="894" on="0"/>
        <pt x="627" y="858" on="0"/>
        <pt x="608" y="810" on="1"/>
        <pt x="579" y="780" on="0"/>
        <pt x="517" y="732" on="0"/>
        <pt x="452" y="701" on="0"/>
        <pt x="387" y="690" on="0"/>
        <pt x="354" y="698" on="1"/>
        <pt x="332" y="704" on="0"/>
        <pt x="273" y="736" on="0"/>
        <pt x="212" y="754" on="0"/>
        <pt x="153" y="739" on="0"/>
        <pt x="132" y="698" on="1"/>
      </contour>
    </TTGlyph>
    <TTGlyph name="asterisk" xMin="16" yMin="-10" xMax="487" yMax="486">
      <contour>
        <pt x="70" y="17" on="1"/>
        <pt x="69" y="21" on="0"/>
        <pt x="68" y="38" on="0"/>
        <pt x="68" y="55" on="0"/>
        <pt x="69" y="68" on="0"/>
        <pt x="70" y="70" on="1"/>
        <pt x="157" y="190" on="1"/>
        <pt x="157" y="208" on="1"/>
        <pt x="155" y="208" on="0"/>
        <pt x="117" y="207" on="0"/>
        <pt x="70" y="212" on="0"/>
        <pt x="25" y="227" on="0"/>
        <pt x="17" y="243" on="1"/>
        <pt x="13" y="250" on="0"/>
        <pt x="20" y="269" on="0"/>
        <pt x="34" y="284" on="0"/>
        <pt x="48" y="295" on="0"/>
        <pt x="52" y="295" on="1"/>
        <pt x="190" y="295" on="1"/>
        <pt x="191" y="295" on="0"/>
        <pt x="196" y="307" on="0"/>
        <pt x="202" y="324" on="0"/>
        <pt x="207" y="341" on="0"/>
        <pt x="208" y="347" on="1"/>
        <pt x="209" y="354" on="0"/>
        <pt x="215" y="389" on="0"/>
        <pt x="220" y="428" on="0"/>
        <pt x="225" y="462" on="0"/>
        <pt x="225" y="469" on="1"/>
        <pt x="240" y="480" on="0"/>
        <pt x="251" y="484" on="1"/>
        <pt x="261" y="488" on="0"/>
        <pt x="278" y="484" on="0"/>
        <pt x="278" y="469" on="1"/>
        <pt x="278" y="330" on="1"/>
        <pt x="278" y="313" on="0"/>
        <pt x="302" y="308" on="0"/>
        <pt x="339" y="319" on="0"/>
        <pt x="386" y="339" on="0"/>
        <pt x="433" y="358" on="0"/>
        <pt x="473" y="369" on="0"/>
        <pt x="486" y="365" on="1"/>
        <pt x="491" y="357" on="0"/>
        <pt x="482" y="339" on="0"/>
        <pt x="467" y="323" on="0"/>
        <pt x="459" y="317" on="1"/>
        <pt x="452" y="312" on="1"/>
        <pt x="443" y="306" on="0"/>
        <pt x="399" y="276" on="0"/>
        <pt x="349" y="243" on="0"/>
        <pt x="304" y="214" on="0"/>
        <pt x="295" y="208" on="1"/>
        <pt x="290" y="187" on="0"/>
        <pt x="299" y="148" on="0"/>
        <pt x="313" y="112" on="0"/>
        <pt x="327" y="80" on="0"/>
        <pt x="327" y="51" on="0"/>
        <pt x="306" y="27" on="0"/>
        <pt x="278" y="17" on="1"/>
        <pt x="225" y="122" on="1"/>
        <pt x="215" y="142" on="0"/>
        <pt x="189" y="125" on="0"/>
        <pt x="159" y="82" on="0"/>
        <pt x="128" y="28" on="0"/>
        <pt x="100" y="-8" on="0"/>
        <pt x="77" y="-12" on="0"/>
      </contour>
    </TTGlyph>
    <TTGlyph name="at" xMin="25" yMin="19" xMax="973" yMax="911">
      <contour>
        <pt x="113" y="70" on="1"/>
        <pt x="73" y="92" on="0"/>
        <pt x="32" y="180" on="0"/>
        <pt x="20" y="282" on="0"/>
        <pt x="31" y="383" on="0"/>
        <pt x="43" y="417" on="1"/>
        <pt x="70" y="498" on="0"/>
        <pt x="146" y="639" on="0"/>
        <pt x="247" y="757" on="0"/>
        <pt x="377" y="851" on="0"/>
        <pt x="460" y="885" on="1"/>
        <pt x="491" y="898" on="0"/>
        <pt x="568" y="911" on="0"/>
        <pt x="647" y="911" on="0"/>
        <pt x="723" y="898" on="0"/>
        <pt x="755" y="885" on="1"/>
        <pt x="840" y="850" on="0"/>
        <pt x="940" y="749" on="0"/>
        <pt x="980" y="632" on="0"/>
        <pt x="965" y="508" on="0"/>
        <pt x="904" y="389" on="0"/>
        <pt x="803" y="282" on="0"/>
        <pt x="737" y="243" on="1"/>
        <pt x="701" y="221" on="0"/>
        <pt x="641" y="209" on="0"/>
        <pt x="584" y="219" on="0"/>
        <pt x="527" y="244" on="0"/>
        <pt x="495" y="260" on="1"/>
        <pt x="479" y="268" on="0"/>
        <pt x="446" y="263" on="0"/>
        <pt x="411" y="249" on="0"/>
        <pt x="375" y="231" on="0"/>
        <pt x="339" y="222" on="0"/>
        <pt x="303" y="227" on="0"/>
        <pt x="286" y="243" on="1"/>
        <pt x="277" y="282" on="0"/>
        <pt x="310" y="377" on="0"/>
        <pt x="375" y="471" on="0"/>
        <pt x="462" y="551" on="0"/>
        <pt x="553" y="599" on="0"/>
        <pt x="638" y="602" on="0"/>
        <pt x="668" y="572" on="1"/>
        <pt x="674" y="566" on="0"/>
        <pt x="644" y="548" on="0"/>
        <pt x="591" y="524" on="0"/>
        <pt x="524" y="496" on="0"/>
        <pt x="458" y="466" on="0"/>
        <pt x="403" y="433" on="0"/>
        <pt x="390" y="417" on="1"/>
        <pt x="356" y="374" on="0"/>
        <pt x="339" y="310" on="0"/>
        <pt x="365" y="282" on="0"/>
        <pt x="430" y="295" on="0"/>
        <pt x="477" y="330" on="1"/>
        <pt x="488" y="338" on="0"/>
        <pt x="506" y="381" on="0"/>
        <pt x="528" y="419" on="0"/>
        <pt x="558" y="435" on="0"/>
        <pt x="581" y="417" on="1"/>
        <pt x="584" y="403" on="0"/>
        <pt x="573" y="370" on="0"/>
        <pt x="561" y="337" on="0"/>
        <pt x="555" y="307" on="0"/>
        <pt x="563" y="295" on="1"/>
        <pt x="574" y="278" on="0"/>
        <pt x="614" y="267" on="0"/>
        <pt x="661" y="273" on="0"/>
        <pt x="712" y="291" on="0"/>
        <pt x="759" y="314" on="0"/>
        <pt x="796" y="338" on="0"/>
        <pt x="807" y="347" on="1"/>
        <pt x="877" y="407" on="0"/>
        <pt x="935" y="530" on="0"/>
        <pt x="929" y="644" on="0"/>
        <pt x="869" y="743" on="0"/>
        <pt x="772" y="818" on="0"/>
        <pt x="648" y="861" on="0"/>
        <pt x="514" y="863" on="0"/>
        <pt x="379" y="816" on="0"/>
        <pt x="321" y="764" on="1"/>
        <pt x="287" y="733" on="0"/>
        <pt x="203" y="636" on="0"/>
        <pt x="129" y="520" on="0"/>
        <pt x="74" y="393" on="0"/>
        <pt x="62" y="271" on="0"/>
        <pt x="105" y="162" on="0"/>
        <pt x="165" y="122" on="1"/>
        <pt x="167" y="120" on="0"/>
        <pt x="185" y="110" on="0"/>
        <pt x="207" y="99" on="0"/>
        <pt x="228" y="89" on="0"/>
        <pt x="233" y="87" on="1"/>
        <pt x="286" y="64" on="0"/>
        <pt x="312" y="26" on="0"/>
        <pt x="273" y="12" on="0"/>
        <pt x="179" y="33" on="0"/>
      </contour>
    </TTGlyph>
    <TTGlyph name="atilde" xMin="-41" yMin="-7" xMax="598" yMax="892">
      <component glyphName="a" x="0" y="0" flags="0x1204"/>
      <component glyphName="tilde" x="-132" y="0" flags="0x1004"/>
    </TTGlyph>
    <TTGlyph name="b" xMin="35" yMin="-8" xMax="457" yMax="775">
      <contour>
        <pt x="132" y="9" on="1"/>
        <pt x="127" y="24" on="0"/>
        <pt x="151" y="58" on="0"/>
        <pt x="195" y="93" on="0"/>
        <pt x="250" y="129" on="0"/>
        <pt x="301" y="163" on="0"/>
        <pt x="340" y="194" on="0"/>
        <pt x="347" y="208" on="1"/>
        <pt x="362" y="238" on="0"/>
        <pt x="383" y="318" on="0"/>
        <pt x="390" y="393" on="0"/>
        <pt x="382" y="454" on="0"/>
        <pt x="352" y="476" on="0"/>
        <pt x="300" y="448" on="0"/>
        <pt x="260" y="399" on="1"/>
        <pt x="249" y="385" on="0"/>
        <pt x="219" y="314" on="0"/>
        <pt x="185" y="228" on="0"/>
        <pt x="149" y="141" on="0"/>
        <pt x="114" y="81" on="0"/>
        <pt x="82" y="62" on="0"/>
        <pt x="70" y="87" on="1"/>
        <pt x="70" y="94" on="0"/>
        <pt x="71" y="128" on="0"/>
        <pt x="71" y="167" on="0"/>
        <pt x="70" y="201" on="0"/>
        <pt x="70" y="208" on="1"/>
        <pt x="67" y="276" on="0"/>
        <pt x="59" y="406" on="0"/>
        <pt x="50" y="534" on="0"/>
        <pt x="40" y="662" on="0"/>
        <pt x="35" y="729" on="1"/>
        <pt x="33" y="758" on="0"/>
        <pt x="41" y="778" on="0"/>
        <pt x="55" y="771" on="0"/>
        <pt x="74" y="741" on="0"/>
        <pt x="91" y="699" on="0"/>
        <pt x="103" y="649" on="0"/>
        <pt x="104" y="625" on="1"/>
        <pt x="104" y="613" on="0"/>
        <pt x="107" y="561" on="0"/>
        <pt x="111" y="496" on="0"/>
        <pt x="115" y="424" on="0"/>
        <pt x="118" y="359" on="0"/>
        <pt x="121" y="307" on="0"/>
        <pt x="122" y="295" on="1"/>
        <pt x="144" y="311" on="0"/>
        <pt x="175" y="358" on="0"/>
        <pt x="204" y="407" on="0"/>
        <pt x="237" y="453" on="0"/>
        <pt x="260" y="469" on="1"/>
        <pt x="324" y="509" on="0"/>
        <pt x="408" y="516" on="0"/>
        <pt x="453" y="471" on="0"/>
        <pt x="461" y="387" on="0"/>
        <pt x="437" y="284" on="0"/>
        <pt x="384" y="173" on="0"/>
        <pt x="307" y="76" on="0"/>
        <pt x="207" y="4" on="0"/>
        <pt x="148" y="-8" on="1"/>
        <pt x="139" y="0" on="1"/>
        <pt x="133" y="7" on="0"/>
      </contour>
    </TTGlyph>
    <TTGlyph name="backslash" xMin="26" yMin="0" xMax="524" yMax="662">
      <contour>
        <pt x="286" y="122" on="1"/>
        <pt x="228" y="169" on="0"/>
        <pt x="124" y="290" on="0"/>
        <pt x="50" y="429" on="0"/>
        <pt x="15" y="581" on="0"/>
        <pt x="26" y="659" on="1"/>
        <pt x="39" y="664" on="0"/>
        <pt x="73" y="659" on="0"/>
        <pt x="78" y="642" on="1"/>
        <pt x="91" y="546" on="0"/>
        <pt x="147" y="380" on="0"/>
        <pt x="240" y="237" on="0"/>
        <pt x="371" y="118" on="0"/>
        <pt x="460" y="70" on="1"/>
        <pt x="494" y="64" on="0"/>
        <pt x="525" y="35" on="0"/>
        <pt x="523" y="8" on="0"/>
        <pt x="490" y="-7" on="0"/>
        <pt x="460" y="0" on="1"/>
        <pt x="449" y="6" on="0"/>
        <pt x="399" y="40" on="0"/>
        <pt x="344" y="79" on="0"/>
        <pt x="295" y="114" on="0"/>
      </contour>
    </TTGlyph>
    <TTGlyph name="bar" xMin="0" yMin="0" xMax="139" yMax="783">
      <contour>
        <pt x="87" y="764" on="1"/>
        <pt x="88" y="779" on="0"/>
        <pt x="108" y="786" on="0"/>
        <pt x="129" y="768" on="0"/>
        <pt x="143" y="727" on="0"/>
        <pt x="139" y="694" on="1"/>
        <pt x="137" y="681" on="0"/>
        <pt x="127" y="601" on="0"/>
        <pt x="112" y="494" on="0"/>
        <pt x="96" y="373" on="0"/>
        <pt x="82" y="266" on="0"/>
        <pt x="71" y="186" on="0"/>
        <pt x="70" y="173" on="1"/>
        <pt x="69" y="165" on="0"/>
        <pt x="68" y="126" on="0"/>
        <pt x="68" y="82" on="0"/>
        <pt x="69" y="42" on="0"/>
        <pt x="70" y="35" on="1"/>
        <pt x="68" y="32" on="0"/>
        <pt x="57" y="17" on="0"/>
        <pt x="42" y="4" on="0"/>
        <pt x="25" y="-4" on="0"/>
        <pt x="17" y="0" on="1"/>
        <pt x="13" y="2" on="0"/>
        <pt x="0" y="15" on="0"/>
        <pt x="0" y="17" on="1"/>
      </contour>
    </TTGlyph>
    <TTGlyph name="braceleft" xMin="43" yMin="-168" xMax="582" yMax="1087">
      <contour>
        <pt x="129" y="-150" on="1"/>
        <pt x="109" y="-142" on="0"/>
        <pt x="69" y="-114" on="0"/>
        <pt x="44" y="-77" on="0"/>
        <pt x="42" y="-34" on="0"/>
        <pt x="59" y="-10" on="1"/>
        <pt x="67" y="0" on="0"/>
        <pt x="101" y="43" on="0"/>
        <pt x="142" y="97" on="0"/>
        <pt x="188" y="158" on="0"/>
        <pt x="228" y="212" on="0"/>
        <pt x="260" y="256" on="0"/>
        <pt x="267" y="267" on="1"/>
        <pt x="305" y="321" on="0"/>
        <pt x="309" y="387" on="0"/>
        <pt x="273" y="426" on="0"/>
        <pt x="210" y="449" on="0"/>
        <pt x="154" y="470" on="0"/>
        <pt x="120" y="500" on="0"/>
        <pt x="129" y="527" on="1"/>
        <pt x="152" y="532" on="0"/>
        <pt x="211" y="542" on="0"/>
        <pt x="270" y="560" on="0"/>
        <pt x="321" y="590" on="0"/>
        <pt x="337" y="614" on="1"/>
        <pt x="339" y="616" on="0"/>
        <pt x="339" y="630" on="0"/>
        <pt x="337" y="632" on="1"/>
        <pt x="164" y="753" on="1"/>
        <pt x="153" y="761" on="0"/>
        <pt x="144" y="798" on="0"/>
        <pt x="142" y="837" on="0"/>
        <pt x="145" y="870" on="0"/>
        <pt x="146" y="874" on="1"/>
        <pt x="164" y="894" on="0"/>
        <pt x="215" y="947" on="0"/>
        <pt x="275" y="1000" on="0"/>
        <pt x="342" y="1048" on="0"/>
        <pt x="411" y="1081" on="0"/>
        <pt x="479" y="1092" on="0"/>
        <pt x="511" y="1082" on="1"/>
        <pt x="517" y="1070" on="0"/>
        <pt x="470" y="1040" on="0"/>
        <pt x="395" y="1003" on="0"/>
        <pt x="307" y="958" on="0"/>
        <pt x="237" y="904" on="0"/>
        <pt x="201" y="841" on="0"/>
        <pt x="215" y="805" on="1"/>
        <pt x="223" y="785" on="0"/>
        <pt x="262" y="748" on="0"/>
        <pt x="310" y="714" on="0"/>
        <pt x="360" y="680" on="0"/>
        <pt x="397" y="646" on="0"/>
        <pt x="414" y="611" on="0"/>
        <pt x="398" y="574" on="0"/>
        <pt x="341" y="533" on="0"/>
        <pt x="285" y="510" on="1"/>
        <pt x="333" y="472" on="0"/>
        <pt x="362" y="387" on="0"/>
        <pt x="345" y="299" on="0"/>
        <pt x="295" y="212" on="0"/>
        <pt x="232" y="130" on="0"/>
        <pt x="168" y="55" on="0"/>
        <pt x="146" y="24" on="1"/>
        <pt x="118" y="-15" on="0"/>
        <pt x="120" y="-67" on="0"/>
        <pt x="162" y="-98" on="0"/>
        <pt x="236" y="-111" on="0"/>
        <pt x="324" y="-113" on="0"/>
        <pt x="419" y="-108" on="0"/>
        <pt x="502" y="-101" on="0"/>
        <pt x="566" y="-96" on="0"/>
        <pt x="580" y="-97" on="1"/>
        <pt x="593" y="-117" on="0"/>
        <pt x="571" y="-144" on="0"/>
        <pt x="516" y="-160" on="0"/>
        <pt x="436" y="-167" on="0"/>
        <pt x="347" y="-168" on="0"/>
        <pt x="258" y="-164" on="0"/>
        <pt x="184" y="-158" on="0"/>
        <pt x="134" y="-152" on="0"/>
      </contour>
    </TTGlyph>
    <TTGlyph name="braceright" xMin="12" yMin="-237" xMax="512" yMax="1116">
      <contour>
        <pt x="82" y="-218" on="1"/>
        <pt x="72" y="-198" on="0"/>
        <pt x="100" y="-172" on="0"/>
        <pt x="158" y="-151" on="0"/>
        <pt x="235" y="-133" on="0"/>
        <pt x="314" y="-110" on="0"/>
        <pt x="385" y="-78" on="0"/>
        <pt x="430" y="-30" on="0"/>
        <pt x="438" y="37" on="0"/>
        <pt x="392" y="131" on="0"/>
        <pt x="282" y="256" on="0"/>
        <pt x="185" y="337" on="1"/>
        <pt x="171" y="370" on="0"/>
        <pt x="174" y="428" on="0"/>
        <pt x="200" y="479" on="0"/>
        <pt x="244" y="525" on="0"/>
        <pt x="272" y="546" on="1"/>
        <pt x="99" y="581" on="1"/>
        <pt x="81" y="584" on="0"/>
        <pt x="65" y="616" on="0"/>
        <pt x="63" y="654" on="0"/>
        <pt x="74" y="692" on="0"/>
        <pt x="82" y="701" on="1"/>
        <pt x="224" y="797" on="0"/>
        <pt x="366" y="926" on="0"/>
        <pt x="355" y="1012" on="0"/>
        <pt x="184" y="1064" on="0"/>
        <pt x="12" y="1083" on="1"/>
        <pt x="7" y="1094" on="0"/>
        <pt x="53" y="1111" on="0"/>
        <pt x="131" y="1118" on="0"/>
        <pt x="230" y="1113" on="0"/>
        <pt x="323" y="1091" on="0"/>
        <pt x="398" y="1051" on="0"/>
        <pt x="432" y="988" on="0"/>
        <pt x="410" y="900" on="0"/>
        <pt x="359" y="841" on="1"/>
        <pt x="351" y="835" on="0"/>
        <pt x="319" y="810" on="0"/>
        <pt x="278" y="780" on="0"/>
        <pt x="233" y="745" on="0"/>
        <pt x="192" y="715" on="0"/>
        <pt x="159" y="690" on="0"/>
        <pt x="152" y="684" on="1"/>
        <pt x="129" y="666" on="0"/>
        <pt x="139" y="640" on="0"/>
        <pt x="169" y="632" on="1"/>
        <pt x="246" y="612" on="0"/>
        <pt x="400" y="610" on="0"/>
        <pt x="481" y="615" on="1"/>
        <pt x="491" y="595" on="0"/>
        <pt x="470" y="564" on="0"/>
        <pt x="425" y="537" on="0"/>
        <pt x="364" y="512" on="0"/>
        <pt x="304" y="486" on="0"/>
        <pt x="251" y="458" on="0"/>
        <pt x="224" y="423" on="0"/>
        <pt x="228" y="381" on="0"/>
        <pt x="255" y="354" on="1"/>
        <pt x="481" y="129" on="1"/>
        <pt x="511" y="99" on="0"/>
        <pt x="513" y="29" on="0"/>
        <pt x="474" y="-42" on="0"/>
        <pt x="402" y="-111" on="0"/>
        <pt x="317" y="-170" on="0"/>
        <pt x="226" y="-215" on="0"/>
        <pt x="148" y="-238" on="0"/>
        <pt x="91" y="-236" on="0"/>
      </contour>
    </TTGlyph>
    <TTGlyph name="bracketleft" xMin="25" yMin="3" xMax="618" yMax="1076">
      <contour>
        <pt x="26" y="17" on="1"/>
        <pt x="25" y="19" on="0"/>
        <pt x="25" y="33" on="0"/>
        <pt x="26" y="35" on="1"/>
        <pt x="45" y="138" on="0"/>
        <pt x="90" y="351" on="0"/>
        <pt x="124" y="566" on="0"/>
        <pt x="140" y="780" on="0"/>
        <pt x="130" y="885" on="1"/>
        <pt x="131" y="888" on="0"/>
        <pt x="169" y="902" on="0"/>
        <pt x="227" y="920" on="0"/>
        <pt x="297" y="940" on="0"/>
        <pt x="362" y="961" on="0"/>
        <pt x="414" y="981" on="0"/>
        <pt x="425" y="989" on="1"/>
        <pt x="431" y="993" on="0"/>
        <pt x="461" y="1017" on="0"/>
        <pt x="494" y="1045" on="0"/>
        <pt x="523" y="1070" on="0"/>
        <pt x="529" y="1076" on="1"/>
        <pt x="581" y="1076" on="1"/>
        <pt x="581" y="1059" on="1"/>
        <pt x="495" y="972" on="1"/>
        <pt x="216" y="851" on="1"/>
        <pt x="113" y="122" on="1"/>
        <pt x="172" y="116" on="0"/>
        <pt x="300" y="121" on="0"/>
        <pt x="430" y="132" on="0"/>
        <pt x="557" y="141" on="0"/>
        <pt x="615" y="139" on="1"/>
        <pt x="620" y="126" on="0"/>
        <pt x="615" y="92" on="0"/>
        <pt x="598" y="87" on="1"/>
        <pt x="587" y="87" on="0"/>
        <pt x="541" y="88" on="0"/>
        <pt x="512" y="88" on="1"/>
        <pt x="389" y="88" on="1"/>
        <pt x="360" y="88" on="0"/>
        <pt x="314" y="87" on="0"/>
        <pt x="303" y="87" on="1"/>
        <pt x="282" y="86" on="0"/>
        <pt x="229" y="67" on="0"/>
        <pt x="172" y="43" on="0"/>
        <pt x="115" y="18" on="0"/>
        <pt x="67" y="3" on="0"/>
        <pt x="32" y="4" on="0"/>
      </contour>
    </TTGlyph>
    <TTGlyph name="bracketright" xMin="17" yMin="2" xMax="555" yMax="972">
      <contour>
        <pt x="347" y="17" on="1"/>
        <pt x="308" y="33" on="0"/>
        <pt x="238" y="47" on="0"/>
        <pt x="166" y="51" on="0"/>
        <pt x="85" y="51" on="0"/>
        <pt x="35" y="52" on="1"/>
        <pt x="30" y="55" on="0"/>
        <pt x="19" y="72" on="0"/>
        <pt x="15" y="90" on="0"/>
        <pt x="22" y="104" on="0"/>
        <pt x="35" y="104" on="1"/>
        <pt x="365" y="104" on="1"/>
        <pt x="366" y="196" on="0"/>
        <pt x="375" y="400" on="0"/>
        <pt x="397" y="607" on="0"/>
        <pt x="437" y="810" on="0"/>
        <pt x="469" y="902" on="1"/>
        <pt x="104" y="902" on="1"/>
        <pt x="35" y="920" on="1"/>
        <pt x="25" y="923" on="0"/>
        <pt x="36" y="934" on="0"/>
        <pt x="59" y="946" on="0"/>
        <pt x="84" y="954" on="0"/>
        <pt x="87" y="954" on="1"/>
        <pt x="92" y="954" on="0"/>
        <pt x="133" y="948" on="0"/>
        <pt x="179" y="942" on="0"/>
        <pt x="220" y="937" on="0"/>
        <pt x="225" y="937" on="1"/>
        <pt x="238" y="937" on="0"/>
        <pt x="300" y="936" on="0"/>
        <pt x="367" y="936" on="0"/>
        <pt x="424" y="937" on="0"/>
        <pt x="434" y="937" on="1"/>
        <pt x="451" y="938" on="0"/>
        <pt x="480" y="952" on="0"/>
        <pt x="509" y="967" on="0"/>
        <pt x="538" y="976" on="0"/>
        <pt x="555" y="972" on="1"/>
        <pt x="555" y="937" on="1"/>
        <pt x="511" y="844" on="0"/>
        <pt x="468" y="671" on="0"/>
        <pt x="448" y="497" on="0"/>
        <pt x="441" y="313" on="0"/>
        <pt x="434" y="208" on="1"/>
        <pt x="432" y="183" on="0"/>
        <pt x="440" y="127" on="0"/>
        <pt x="447" y="74" on="0"/>
        <pt x="447" y="29" on="0"/>
        <pt x="429" y="3" on="0"/>
        <pt x="386" y="1" on="0"/>
      </contour>
    </TTGlyph>
    <TTGlyph name="breve" xMin="51" yMin="739" xMax="322" yMax="923">
      <contour>
        <pt x="322" y="923" on="1"/>
        <pt x="331" y="876" on="0"/>
        <pt x="313" y="797" on="0"/>
        <pt x="259" y="746" on="0"/>
        <pt x="167" y="732" on="0"/>
        <pt x="102" y="752" on="1"/>
        <pt x="86" y="761" on="0"/>
        <pt x="63" y="801" on="0"/>
        <pt x="57" y="817" on="1"/>
        <pt x="52" y="841" on="0"/>
        <pt x="50" y="896" on="0"/>
        <pt x="55" y="923" on="1"/>
        <pt x="87" y="922" on="1"/>
        <pt x="76" y="896" on="0"/>
        <pt x="85" y="833" on="0"/>
        <pt x="113" y="796" on="1"/>
        <pt x="126" y="787" on="0"/>
        <pt x="160" y="777" on="0"/>
        <pt x="196" y="776" on="0"/>
        <pt x="228" y="784" on="0"/>
        <pt x="239" y="793" on="1"/>
        <pt x="264" y="835" on="0"/>
        <pt x="285" y="899" on="0"/>
        <pt x="285" y="923" on="1"/>
      </contour>
    </TTGlyph>
    <TTGlyph name="brokenbar" xMin="17" yMin="12" xMax="78" yMax="730">
      <contour>
        <pt x="17" y="422" on="1"/>
        <pt x="17" y="714" on="1"/>
        <pt x="16" y="724" on="0"/>
        <pt x="35" y="730" on="0"/>
        <pt x="58" y="729" on="0"/>
        <pt x="77" y="724" on="0"/>
        <pt x="78" y="724" on="1"/>
        <pt x="78" y="426" on="1"/>
      </contour>
      <contour>
        <pt x="78" y="383" on="1"/>
        <pt x="78" y="19" on="1"/>
        <pt x="27" y="12" on="1"/>
        <pt x="25" y="16" on="0"/>
        <pt x="22" y="59" on="0"/>
        <pt x="19" y="148" on="0"/>
        <pt x="18" y="284" on="0"/>
        <pt x="19" y="381" on="1"/>
      </contour>
    </TTGlyph>
    <TTGlyph name="bullet" xMin="86" yMin="413" xMax="243" yMax="561">
      <contour>
        <pt x="95" y="452" on="1"/>
        <pt x="84" y="468" on="0"/>
        <pt x="89" y="504" on="0"/>
        <pt x="111" y="534" on="0"/>
        <pt x="145" y="557" on="0"/>
        <pt x="181" y="565" on="0"/>
        <pt x="215" y="556" on="0"/>
        <pt x="227" y="540" on="1"/>
        <pt x="242" y="518" on="0"/>
        <pt x="244" y="475" on="0"/>
        <pt x="226" y="440" on="0"/>
        <pt x="193" y="416" on="0"/>
        <pt x="153" y="411" on="0"/>
        <pt x="112" y="428" on="0"/>
      </contour>
    </TTGlyph>
    <TTGlyph name="c" xMin="15" yMin="-1" xMax="504" yMax="572">
      <contour>
        <pt x="87" y="35" on="1"/>
        <pt x="50" y="63" on="0"/>
        <pt x="17" y="142" on="0"/>
        <pt x="14" y="235" on="0"/>
        <pt x="37" y="333" on="0"/>
        <pt x="75" y="425" on="0"/>
        <pt x="122" y="504" on="0"/>
        <pt x="170" y="559" on="0"/>
        <pt x="212" y="582" on="0"/>
        <pt x="225" y="572" on="1"/>
        <pt x="227" y="561" on="0"/>
        <pt x="238" y="502" on="0"/>
        <pt x="249" y="435" on="0"/>
        <pt x="258" y="376" on="0"/>
        <pt x="260" y="365" on="1"/>
        <pt x="262" y="352" on="0"/>
        <pt x="260" y="323" on="0"/>
        <pt x="250" y="300" on="0"/>
        <pt x="227" y="289" on="0"/>
        <pt x="208" y="295" on="1"/>
        <pt x="207" y="302" on="0"/>
        <pt x="198" y="336" on="0"/>
        <pt x="187" y="375" on="0"/>
        <pt x="176" y="410" on="0"/>
        <pt x="174" y="417" on="1"/>
        <pt x="157" y="434" on="1"/>
        <pt x="126" y="413" on="0"/>
        <pt x="85" y="335" on="0"/>
        <pt x="67" y="244" on="0"/>
        <pt x="76" y="153" on="0"/>
        <pt x="113" y="84" on="0"/>
        <pt x="180" y="49" on="0"/>
        <pt x="281" y="73" on="0"/>
        <pt x="417" y="166" on="0"/>
        <pt x="504" y="260" on="1"/>
        <pt x="504" y="225" on="1"/>
        <pt x="504" y="222" on="0"/>
        <pt x="480" y="192" on="0"/>
        <pt x="446" y="153" on="0"/>
        <pt x="411" y="115" on="0"/>
        <pt x="399" y="104" on="1"/>
        <pt x="366" y="73" on="0"/>
        <pt x="291" y="21" on="0"/>
        <pt x="211" y="-5" on="0"/>
        <pt x="128" y="4" on="0"/>
      </contour>
    </TTGlyph>
    <TTGlyph name="cacute" xMin="15" yMin="-1" xMax="504" yMax="761">
      <component glyphName="c" x="0" y="0" flags="0x1204"/>
      <component glyphName="acute" x="166" y="0" flags="0x1004"/>
    </TTGlyph>
    <TTGlyph name="caron" xMin="221" yMin="577" xMax="721" yMax="803">
      <contour>
        <pt x="691" y="795" on="1"/>
        <pt x="721" y="750" on="1"/>
        <pt x="670" y="736" on="0"/>
        <pt x="612" y="713" on="0"/>
        <pt x="580" y="692" on="0"/>
        <pt x="565" y="669" on="0"/>
        <pt x="549" y="641" on="0"/>
        <pt x="524" y="605" on="0"/>
        <pt x="499" y="581" on="1"/>
        <pt x="497" y="579" on="0"/>
        <pt x="483" y="576" on="0"/>
        <pt x="481" y="578" on="1"/>
        <pt x="407" y="629" on="0"/>
        <pt x="312" y="696" on="0"/>
        <pt x="256" y="736" on="0"/>
        <pt x="232" y="754" on="0"/>
        <pt x="225" y="761" on="0"/>
        <pt x="227" y="761" on="0"/>
        <pt x="226" y="763" on="1"/>
        <pt x="222" y="767" on="0"/>
        <pt x="220" y="782" on="0"/>
        <pt x="225" y="796" on="0"/>
        <pt x="239" y="805" on="0"/>
        <pt x="253" y="803" on="1"/>
        <pt x="476" y="663" on="1"/>
        <pt x="475" y="702" on="0"/>
        <pt x="514" y="740" on="0"/>
        <pt x="576" y="761" on="0"/>
        <pt x="653" y="777" on="0"/>
      </contour>
    </TTGlyph>
    <TTGlyph name="ccaron" xMin="12" yMin="-1" xMax="512" yMax="868">
      <component glyphName="c" x="0" y="0" flags="0x1204"/>
      <component glyphName="caron" x="-209" y="65" flags="0x1004"/>
    </TTGlyph>
    <TTGlyph name="ccedilla" xMin="15" yMin="-425" xMax="504" yMax="572">
      <contour>
        <pt x="157" y="-405" on="1"/>
        <pt x="141" y="-393" on="0"/>
        <pt x="120" y="-355" on="0"/>
        <pt x="110" y="-314" on="0"/>
        <pt x="108" y="-274" on="0"/>
        <pt x="115" y="-248" on="0"/>
        <pt x="129" y="-239" on="0"/>
        <pt x="139" y="-249" on="1"/>
        <pt x="137" y="-303" on="0"/>
        <pt x="181" y="-359" on="0"/>
        <pt x="244" y="-373" on="0"/>
        <pt x="314" y="-352" on="0"/>
        <pt x="365" y="-304" on="0"/>
        <pt x="384" y="-236" on="0"/>
        <pt x="364" y="-197" on="1"/>
        <pt x="338" y="-168" on="0"/>
        <pt x="276" y="-151" on="0"/>
        <pt x="213" y="-142" on="0"/>
        <pt x="153" y="-123" on="0"/>
        <pt x="129" y="-91" on="1"/>
        <pt x="118" y="-37" on="0"/>
        <pt x="126" y="-6" on="1"/>
        <pt x="129" y="2" on="0"/>
        <pt x="131" y="9" on="1"/>
        <pt x="109" y="18" on="0"/>
        <pt x="87" y="35" on="1"/>
        <pt x="50" y="63" on="0"/>
        <pt x="17" y="142" on="0"/>
        <pt x="14" y="235" on="0"/>
        <pt x="37" y="333" on="0"/>
        <pt x="75" y="425" on="0"/>
        <pt x="122" y="504" on="0"/>
        <pt x="170" y="559" on="0"/>
        <pt x="212" y="582" on="0"/>
        <pt x="225" y="572" on="1"/>
        <pt x="227" y="561" on="0"/>
        <pt x="238" y="502" on="0"/>
        <pt x="249" y="435" on="0"/>
        <pt x="258" y="376" on="0"/>
        <pt x="260" y="365" on="1"/>
        <pt x="262" y="352" on="0"/>
        <pt x="260" y="323" on="0"/>
        <pt x="250" y="300" on="0"/>
        <pt x="227" y="289" on="0"/>
        <pt x="208" y="295" on="1"/>
        <pt x="207" y="302" on="0"/>
        <pt x="198" y="336" on="0"/>
        <pt x="187" y="375" on="0"/>
        <pt x="176" y="410" on="0"/>
        <pt x="174" y="417" on="1"/>
        <pt x="157" y="434" on="1"/>
        <pt x="126" y="413" on="0"/>
        <pt x="85" y="335" on="0"/>
        <pt x="67" y="244" on="0"/>
        <pt x="76" y="153" on="0"/>
        <pt x="113" y="84" on="0"/>
        <pt x="180" y="49" on="0"/>
        <pt x="281" y="73" on="0"/>
        <pt x="417" y="166" on="0"/>
        <pt x="504" y="260" on="1"/>
        <pt x="504" y="225" on="1"/>
        <pt x="504" y="222" on="0"/>
        <pt x="480" y="192" on="0"/>
        <pt x="446" y="153" on="0"/>
        <pt x="411" y="115" on="0"/>
        <pt x="399" y="104" on="1"/>
        <pt x="366" y="73" on="0"/>
        <pt x="291" y="21" on="0"/>
        <pt x="251" y="8" on="1"/>
        <pt x="220" y="-2" on="0"/>
        <pt x="189" y="-1" on="1"/>
        <pt x="197" y="-22" on="0"/>
        <pt x="199" y="-56" on="1"/>
        <pt x="197" y="-63" on="0"/>
        <pt x="231" y="-79" on="0"/>
        <pt x="284" y="-100" on="0"/>
        <pt x="348" y="-128" on="0"/>
        <pt x="402" y="-164" on="0"/>
        <pt x="438" y="-211" on="0"/>
        <pt x="436" y="-270" on="0"/>
        <pt x="388" y="-342" on="0"/>
        <pt x="330" y="-387" on="1"/>
        <pt x="312" y="-401" on="0"/>
        <pt x="269" y="-421" on="0"/>
        <pt x="223" y="-428" on="0"/>
        <pt x="177" y="-420" on="0"/>
      </contour>
    </TTGlyph>
    <TTGlyph name="ccircumflex" xMin="15" yMin="-1" xMax="504" yMax="963">
      <component glyphName="c" x="0" y="0" flags="0x1204"/>
      <component glyphName="circumflex" x="-227" y="89" flags="0x1004"/>
    </TTGlyph>
    <TTGlyph name="cdotaccent" xMin="15" yMin="-1" xMax="504" yMax="798">
      <component glyphName="c" x="0" y="0" flags="0x1204"/>
      <component glyphName="dotaccent" x="169" y="0" flags="0x1004"/>
    </TTGlyph>
    <TTGlyph name="cedilla" xMin="64" yMin="-442" xMax="392" yMax="14">
      <contour>
        <pt x="112" y="-422" on="1"/>
        <pt x="96" y="-410" on="0"/>
        <pt x="75" y="-372" on="0"/>
        <pt x="65" y="-331" on="0"/>
        <pt x="63" y="-291" on="0"/>
        <pt x="70" y="-265" on="0"/>
        <pt x="84" y="-256" on="0"/>
        <pt x="94" y="-266" on="1"/>
        <pt x="92" y="-320" on="0"/>
        <pt x="136" y="-376" on="0"/>
        <pt x="199" y="-390" on="0"/>
        <pt x="269" y="-369" on="0"/>
        <pt x="320" y="-321" on="0"/>
        <pt x="339" y="-253" on="0"/>
        <pt x="319" y="-214" on="1"/>
        <pt x="293" y="-185" on="0"/>
        <pt x="231" y="-168" on="0"/>
        <pt x="168" y="-159" on="0"/>
        <pt x="108" y="-140" on="0"/>
        <pt x="84" y="-108" on="1"/>
        <pt x="73" y="-54" on="0"/>
        <pt x="90" y="8" on="0"/>
        <pt x="120" y="19" on="0"/>
        <pt x="151" y="-24" on="0"/>
        <pt x="154" y="-73" on="1"/>
        <pt x="152" y="-80" on="0"/>
        <pt x="186" y="-96" on="0"/>
        <pt x="239" y="-117" on="0"/>
        <pt x="303" y="-145" on="0"/>
        <pt x="357" y="-181" on="0"/>
        <pt x="393" y="-228" on="0"/>
        <pt x="391" y="-287" on="0"/>
        <pt x="343" y="-359" on="0"/>
        <pt x="285" y="-404" on="1"/>
        <pt x="267" y="-418" on="0"/>
        <pt x="224" y="-438" on="0"/>
        <pt x="178" y="-445" on="0"/>
        <pt x="132" y="-437" on="0"/>
      </contour>
    </TTGlyph>
</ttFont>
